<svg id="Layer_1" data-name="Layer 1" xmlns="http://www.w3.org/2000/svg" xmlns:xlink="http://www.w3.org/1999/xlink" viewBox="0 0 811 509"><defs><style>.cls-1{fill:#e3edf4;}.cls-2{fill:#c5e4ce;}.cls-3{fill:#bae4eb;}.cls-4{fill:#71cac4;}.cls-5{fill:url(#Безымянный_градиент_64);}.cls-6{fill:url(#Безымянный_градиент_64-2);}.cls-7{fill:url(#Безымянный_градиент_64-3);}.cls-8{fill:url(#Безымянный_градиент_64-4);}.cls-9{fill:url(#Безымянный_градиент_64-5);}.cls-10{fill:url(#Безымянный_градиент_64-6);}.cls-11{fill:url(#Безымянный_градиент_64-7);}.cls-12{fill:url(#Безымянный_градиент_64-8);}.cls-13{fill:#59c6cc;}.cls-14{fill:url(#Безымянный_градиент_346);}.cls-15{fill:#6ccacf;}.cls-16{fill:#85b1df;}.cls-17{fill:#1f2959;}.cls-18{fill:#bcdaf3;}.cls-18,.cls-19{opacity:0.6;}.cls-20{fill:#dff2f6;}.cls-21{fill:url(#Безымянный_градиент_296);}.cls-22{fill:#fff;stroke:#fff;stroke-miterlimit:10;}.cls-23{opacity:0.7;}.cls-24{fill:#282968;}.cls-25{fill:#4dbd95;}.cls-26{fill:#fbd0cf;}.cls-27{fill:#194680;}.cls-28{fill:url(#linear-gradient);}.cls-29{fill:#e9659d;}.cls-30{fill:url(#linear-gradient-2);}.cls-31{fill:url(#linear-gradient-3);}.cls-32{fill:url(#linear-gradient-4);}.cls-33{fill:url(#linear-gradient-5);}.cls-34{fill:#26225b;}.cls-35{fill:#1f3d74;}.cls-36{fill:url(#linear-gradient-6);}.cls-37{fill:url(#linear-gradient-7);}.cls-38{fill:url(#Безымянный_градиент_69);}.cls-39{fill:url(#Безымянный_градиент_69-2);}.cls-40{fill:url(#Безымянный_градиент_69-3);}.cls-41{fill:url(#Безымянный_градиент_69-4);}.cls-42{fill:url(#Безымянный_градиент_69-5);}.cls-43{fill:url(#Безымянный_градиент_69-6);}.cls-44{fill:url(#Безымянный_градиент_69-7);}.cls-45{fill:url(#Безымянный_градиент_69-8);}.cls-46{fill:url(#Безымянный_градиент_69-9);}.cls-47{fill:url(#Безымянный_градиент_69-10);}.cls-48{fill:url(#Безымянный_градиент_69-11);}.cls-49{fill:url(#Безымянный_градиент_69-12);}.cls-50{fill:url(#Безымянный_градиент_69-13);}.cls-51{fill:url(#Безымянный_градиент_69-14);}.cls-52{fill:url(#Безымянный_градиент_69-15);}.cls-53{fill:url(#Безымянный_градиент_69-16);}.cls-54{fill:url(#Безымянный_градиент_69-17);}.cls-55{fill:url(#Безымянный_градиент_69-18);}.cls-56{fill:url(#Безымянный_градиент_69-19);}.cls-57{fill:url(#Безымянный_градиент_69-20);}.cls-58{fill:url(#Безымянный_градиент_69-21);}.cls-59{fill:url(#Безымянный_градиент_69-22);}.cls-60{fill:url(#Безымянный_градиент_69-23);}.cls-61{fill:url(#Безымянный_градиент_69-24);}.cls-62{fill:url(#Безымянный_градиент_69-25);}.cls-63{fill:url(#Безымянный_градиент_69-26);}.cls-64{fill:url(#Безымянный_градиент_69-27);}.cls-65{fill:url(#Безымянный_градиент_69-28);}.cls-66{fill:url(#Безымянный_градиент_69-29);}</style><linearGradient id="Безымянный_градиент_64" x1="588.95" y1="228.07" x2="641.85" y2="228.07" gradientUnits="userSpaceOnUse"><stop offset="0" stop-color="#8cbce5"/><stop offset="0.25" stop-color="#96c8d9"/><stop offset="0.63" stop-color="#a1d4cc"/><stop offset="1" stop-color="#a4d8c8"/></linearGradient><linearGradient id="Безымянный_градиент_64-2" x1="637.02" y1="157" x2="659.41" y2="157" xlink:href="#Безымянный_градиент_64"/><linearGradient id="Безымянный_градиент_64-3" x1="613.19" y1="126.19" x2="632.46" y2="126.19" xlink:href="#Безымянный_градиент_64"/><linearGradient id="Безымянный_градиент_64-4" x1="637.35" y1="201.63" x2="669.89" y2="201.63" xlink:href="#Безымянный_градиент_64"/><linearGradient id="Безымянный_градиент_64-5" x1="606.63" y1="169.24" x2="637.15" y2="169.24" xlink:href="#Безымянный_градиент_64"/><linearGradient id="Безымянный_градиент_64-6" x1="623.65" y1="261.22" x2="681.47" y2="261.22" xlink:href="#Безымянный_градиент_64"/><linearGradient id="Безымянный_градиент_64-7" x1="596.08" y1="255.81" x2="631.51" y2="255.81" xlink:href="#Безымянный_градиент_64"/><linearGradient id="Безымянный_градиент_64-8" x1="594.98" y1="217.21" x2="638.87" y2="217.21" xlink:href="#Безымянный_градиент_64"/><linearGradient id="Безымянный_градиент_346" x1="363" y1="424.54" x2="479.07" y2="424.54" gradientUnits="userSpaceOnUse"><stop offset="0.01" stop-color="#2f3c7a"/><stop offset="1" stop-color="#4e5ca2"/></linearGradient><linearGradient id="Безымянный_градиент_296" x1="211.78" y1="206.94" x2="417.39" y2="206.94" gradientUnits="userSpaceOnUse"><stop offset="0" stop-color="#354ea1"/><stop offset="0.99" stop-color="#263c8a"/></linearGradient><linearGradient id="linear-gradient" x1="92.88" y1="185.45" x2="142.96" y2="185.45" gradientTransform="matrix(1, 0.04, -0.04, 1, 76.97, 118.47)" gradientUnits="userSpaceOnUse"><stop offset="0" stop-color="#04add6"/><stop offset="1" stop-color="#04add6"/></linearGradient><linearGradient id="linear-gradient-2" x1="-127.6" y1="271.05" x2="-97.33" y2="323.46" gradientTransform="translate(299.45 -42.76) rotate(-2.26)" gradientUnits="userSpaceOnUse"><stop offset="0" stop-color="#fbd0cf"/><stop offset="1" stop-color="#f4aaa8"/></linearGradient><linearGradient id="linear-gradient-3" x1="109.6" y1="116.5" x2="115.1" y2="103.08" gradientTransform="matrix(1, 0.04, -0.04, 1, 76.97, 118.47)" xlink:href="#linear-gradient-2"/><linearGradient id="linear-gradient-4" x1="233.47" y1="119.5" x2="238.2" y2="119.5" gradientTransform="translate(-35.24 86.1) rotate(2.28)" xlink:href="#linear-gradient-2"/><linearGradient id="linear-gradient-5" x1="-4666.66" y1="-5101.65" x2="-4661.93" y2="-5101.65" gradientTransform="matrix(-1, -0.04, 0.04, -1, -4286.22, -5064.39)" xlink:href="#linear-gradient-2"/><linearGradient id="linear-gradient-6" x1="92.87" y1="253.88" x2="122.12" y2="253.88" xlink:href="#linear-gradient"/><linearGradient id="linear-gradient-7" x1="-2948.32" y1="450.19" x2="-2912.74" y2="450.19" gradientTransform="matrix(-1, 0.04, -0.04, 0.98, -2707.32, 53.15)" xlink:href="#linear-gradient"/><linearGradient id="Безымянный_градиент_69" x1="675.43" y1="112.89" x2="694.47" y2="112.89" gradientUnits="userSpaceOnUse"><stop offset="0" stop-color="#f06495"/><stop offset="1" stop-color="#5492ce"/></linearGradient><linearGradient id="Безымянный_градиент_69-2" x1="638.85" y1="329.05" x2="657.58" y2="329.05" xlink:href="#Безымянный_градиент_69"/><linearGradient id="Безымянный_градиент_69-3" x1="77.07" y1="81.85" x2="97.93" y2="81.85" xlink:href="#Безымянный_градиент_69"/><linearGradient id="Безымянный_градиент_69-4" x1="80.27" y1="81.85" x2="94.72" y2="81.85" xlink:href="#Безымянный_градиент_69"/><linearGradient id="Безымянный_градиент_69-5" x1="83.46" y1="70.18" x2="87.26" y2="70.18" xlink:href="#Безымянный_градиент_69"/><linearGradient id="Безымянный_градиент_69-6" x1="78.69" y1="72.2" x2="82.49" y2="72.2" xlink:href="#Безымянный_градиент_69"/><linearGradient id="Безымянный_градиент_69-7" x1="76.54" y1="69.18" x2="87.7" y2="69.18" xlink:href="#Безымянный_градиент_69"/><linearGradient id="Безымянный_градиент_69-8" x1="90.72" y1="71.22" x2="94.78" y2="71.22" xlink:href="#Безымянный_градиент_69"/><linearGradient id="Безымянный_градиент_69-9" x1="86.45" y1="80.31" x2="90.06" y2="80.31" xlink:href="#Безымянный_градиент_69"/><linearGradient id="Безымянный_градиент_69-10" x1="358.05" y1="51.73" x2="373.92" y2="51.73" xlink:href="#Безымянный_градиент_69"/><linearGradient id="Безымянный_градиент_69-11" x1="360.05" y1="57.12" x2="376.52" y2="57.12" xlink:href="#Безымянный_градиент_69"/><linearGradient id="Безымянный_градиент_69-12" x1="361.05" y1="47.73" x2="369.44" y2="47.73" xlink:href="#Безымянный_градиент_69"/><linearGradient id="Безымянный_градиент_69-13" x1="361.05" y1="51.33" x2="369.44" y2="51.33" xlink:href="#Безымянный_градиент_69"/><linearGradient id="Безымянный_градиент_69-14" x1="354.74" y1="48.83" x2="372.52" y2="48.83" xlink:href="#Безымянный_градиент_69"/><linearGradient id="Безымянный_градиент_69-15" x1="78.86" y1="248.7" x2="82.27" y2="248.7" gradientTransform="translate(40.8 -9.68) rotate(9.2)" xlink:href="#Безымянный_градиент_69"/><linearGradient id="Безымянный_градиент_69-16" x1="81.78" y1="244.96" x2="84.33" y2="244.96" gradientTransform="translate(40.21 -10.12) rotate(9.19)" xlink:href="#Безымянный_градиент_69"/><linearGradient id="Безымянный_градиент_69-17" x1="85.29" y1="247.68" x2="88.53" y2="247.68" gradientTransform="translate(40.71 -10.71) rotate(9.2)" xlink:href="#Безымянный_градиент_69"/><linearGradient id="Безымянный_градиент_69-18" x1="82.82" y1="251.47" x2="85.39" y2="251.47" gradientTransform="translate(41.26 -10.21) rotate(9.19)" xlink:href="#Безымянный_градиент_69"/><linearGradient id="Безымянный_градиент_69-19" x1="226.11" y1="61.93" x2="235.41" y2="61.93" xlink:href="#Безымянный_градиент_69"/><linearGradient id="Безымянный_градиент_69-20" x1="456.67" y1="59.82" x2="460.07" y2="59.82" gradientTransform="translate(15.46 -72.51) rotate(9.2)" xlink:href="#Безымянный_градиент_69"/><linearGradient id="Безымянный_градиент_69-21" x1="459.58" y1="56.08" x2="462.13" y2="56.08" gradientTransform="translate(14.88 -72.91) rotate(9.19)" xlink:href="#Безымянный_градиент_69"/><linearGradient id="Безымянный_градиент_69-22" x1="463.1" y1="58.79" x2="466.33" y2="58.79" gradientTransform="translate(15.38 -73.54) rotate(9.2)" xlink:href="#Безымянный_градиент_69"/><linearGradient id="Безымянный_градиент_69-23" x1="460.62" y1="62.58" x2="463.2" y2="62.58" gradientTransform="translate(15.93 -72.99) rotate(9.19)" xlink:href="#Безымянный_градиент_69"/><linearGradient id="Безымянный_градиент_69-24" x1="123.99" y1="191.14" x2="133.8" y2="191.14" xlink:href="#Безымянный_градиент_69"/><linearGradient id="Безымянный_градиент_69-25" x1="761.02" y1="92.72" x2="764.42" y2="92.72" gradientTransform="translate(24.64 -120.76) rotate(9.2)" xlink:href="#Безымянный_градиент_69"/><linearGradient id="Безымянный_градиент_69-26" x1="763.93" y1="88.98" x2="766.48" y2="88.98" gradientTransform="translate(24.05 -121.12) rotate(9.19)" xlink:href="#Безымянный_градиент_69"/><linearGradient id="Безымянный_градиент_69-27" x1="767.45" y1="91.7" x2="770.69" y2="91.7" gradientTransform="translate(24.56 -121.79) rotate(9.2)" xlink:href="#Безымянный_градиент_69"/><linearGradient id="Безымянный_градиент_69-28" x1="764.97" y1="95.49" x2="767.55" y2="95.49" gradientTransform="translate(25.1 -121.19) rotate(9.19)" xlink:href="#Безымянный_градиент_69"/><linearGradient id="Безымянный_градиент_69-29" x1="616.99" y1="40.35" x2="626.8" y2="40.35" xlink:href="#Безымянный_градиент_69"/></defs><title>main_illustration</title><polyline class="cls-1" points="126.4 450.51 126.4 457.08 571.54 457.08 571.54 450.51"/><path class="cls-2" d="M335,401.77C345.17,417.69,355.83,430,363.6,436a64.83,64.83,0,0,0,24.23,11.62s-2.26-1.37-2.5-14.61c-.21-12-4.07-19.6-13.61-26.08C360.82,399.53,335,401.77,335,401.77Z"/><path class="cls-3" d="M305.84,404s13.18,9.27,41,11c33.37,2.07,41,25.22,41,25.22s-33.18,17.43-56.49,2.72C306,427,305.84,404,305.84,404Z"/><path class="cls-4" d="M161.73,450.48A307.31,307.31,0,0,1,134,369.86c-4.82-25.06-4.55-41.55-4.54-41.71a1.2,1.2,0,0,0-1.2-1.16h0a1.15,1.15,0,0,0-1.24,1.08c0,.16-2.51,15.94,2.35,41.21,3.74,19.42,11,50,25.84,81.2Z"/><path class="cls-4" d="M141.17,409.76c1.54-13.1-5.89-37.48-21.27-48.25-13.12-9.19-19.58-18.87-19.58-18.87a74.19,74.19,0,0,0-1.24,23.71c1,8.79,8.63,20.07,17.7,24.24A65,65,0,0,1,141.17,409.76Z"/><path class="cls-4" d="M127.84,347.33c8-15.49,17.34-24.28,15.8-41.07-1.17-12.7,1.81-28.06,1.81-28.06s-11.54,6.13-19.23,15.13a30.69,30.69,0,0,0-6.15,28.45C122.09,328.5,127.84,347.33,127.84,347.33Z"/><path class="cls-4" d="M171.28,447.16c-13.91-14-29.79-31.11-44.88-34.15-17.75-3.58-27.3-1.33-39.16-7,0,0,3.75,8.78,12.56,22.3,8,12.21,22.13,24.68,38.36,22.7a121.43,121.43,0,0,1,12.72-.52h19.18Z"/><path class="cls-4" d="M155.43,305.1c-7.57,21.95-33.57,45.25-19.91,84.46,0,0,8.17-15.31,16.32-21.62,11.94-9.24,14.34-24,11.89-38.11C162,319.66,155.43,305.1,155.43,305.1Z"/><path class="cls-4" d="M190.74,366.91s-20,4.63-33.42,14.85C145.23,391,145,399.62,145,414c-.07,10.57,4.17,20.67,8.09,27.72h10.89c8.43-15.53,20-25.05,18-44.18A42.61,42.61,0,0,1,190.74,366.91Z"/><path class="cls-5" d="M594,315.19c14.9-10.87,29.14-28.26,35.54-63.84,5.46-30.35,7.72-60.16,5.1-77.3-2.83-18.55-7-30.06-7-30.17-1.6-5.77-3.58-17.47.67-8.53,3.51,7.37,8.07,20.33,11.09,36.4,3.22,17.17,4,47.76-1.48,78.33-6.48,36-20,53.21-33.41,66.15C589.87,330.28,583.87,322.55,594,315.19Z"/><path class="cls-6" d="M638,180.16c-2.38-8.35-.43-24.64,8-32.71A48.12,48.12,0,0,0,656,133.83a51.32,51.32,0,0,1,3.36,15.23c.35,5.75-3.17,13.59-8.36,16.95A38.27,38.27,0,0,0,638,180.16Z"/><path class="cls-7" d="M630.53,148.13c-5.8-9.3-13.9-12.5-16.49-22.29-2.12-8,.42-21.59.42-21.59s4.62,4.58,11.11,9.85c5.21,4.24,8.45,8.48,6.12,19.27C629.13,145.21,630.53,148.13,630.53,148.13Z"/><path class="cls-8" d="M637.35,236.14c1.27-14.22,1.07-34.67,10.43-46.42,7.89-9.91,14.61-14.13,18.5-22.6a124.77,124.77,0,0,1,3.27,18.57c1.2,10.63-.26,24.41-13.45,32.69A67.38,67.38,0,0,0,637.35,236.14Z"/><path class="cls-9" d="M637.15,191.11c-9.22-10.89-28.68-18.82-30.52-43.73,0,0,8,7,13.86,8.93,8.59,2.82,13.34,10.68,15.33,19.15C637.26,181.56,637.15,191.11,637.15,191.11Z"/><path class="cls-10" d="M681.47,230.48C670.21,244.93,670.41,254,649,266.6c-13.59,8-25.38,25.37-25.38,25.37s6.57-27.28,11.44-37.2c3.16-6.43,15.54-20.8,27.81-22.72A144.5,144.5,0,0,1,681.47,230.48Z"/><path class="cls-11" d="M621.56,291.35c-11.87-16.49-19.89-32-22.83-42.22a69.93,69.93,0,0,1-2-28.87s.47,2.81,13.62,8.32c11.88,5,18,11.9,20.65,24C634.09,266.45,621.56,291.35,621.56,291.35Z"/><path class="cls-12" d="M636.24,243.7c-10.57-13.84-24.06-16.77-28-33.27A33.73,33.73,0,0,0,595,190.79s14.48-.87,25.88,3.54c10.29,4,12.5,10,16,20C641.69,228.08,636.24,243.7,636.24,243.7Z"/><path class="cls-13" d="M387.71,399.61l-4.44,29.59a6,6,0,0,1-2.17,3.93l-12.21,13.55a2.15,2.15,0,0,0,1.48,3.7H482.14a2.14,2.14,0,0,0,1.47-3.7l-12.2-13.55a6,6,0,0,1-2.17-3.93l-4.55-30.5Z"/><path class="cls-14" d="M382.49,399.61l-4.44,29.59a6,6,0,0,1-2.17,3.93l-12.21,13.55a2.15,2.15,0,0,0,1.48,3.7H476.92a2.14,2.14,0,0,0,1.47-3.7l-12.2-13.55A6,6,0,0,1,464,429.2l-4.54-30.5Z"/><path class="cls-15" d="M249.58,158a11,11,0,0,1,11-11s306-.68,333.17.61a10.09,10.09,0,0,1,9,9c.86,17.23,0,51.69,0,51.69V390.11c-1.29,4.3-3.44,9.47-8.18,9.47-15.08,0-61.59.43-61.59.43l-6.31.17s-194,.26-268.09-.17c-4.3-.43-8.18-3.87-8.61-8.18C248.74,375.46,249.58,158,249.58,158Z"/><path class="cls-16" d="M396.07,392.26c-66.24,0-114-.08-142.06-.24a1.94,1.94,0,0,1-1.24-1c-1-13.59-.7-158.2-.4-233a3,3,0,0,1,3-3.05c.83,0,81.54-.18,162.72-.18,99.8,0,158.48.27,169.83.77a2.13,2.13,0,0,1,1.69,1.7c.81,16.82,0,50.52,0,50.86,0,.07,0,180.74,0,180.74a14.45,14.45,0,0,1-1.15,2.71c-15.88,0-60.24.43-60.7.43l-6.34.17C518.63,392.18,459.86,392.26,396.07,392.26Z"/><path class="cls-17" d="M260.37,158h0m157.73,4.8c106.56,0,148.61.3,163.73.6.43,17.47-.22,44.23-.23,44.53,0,.13,0,.27,0,.4V383.6c-18.84.09-52.28.4-53.92.41h-.26l-6.12.16c-3.8,0-62,.08-125.13.08-61.42,0-107-.07-135.63-.21-.63-29.57-.48-142.41-.18-221.08,18.75,0,88.08-.17,157.75-.17m0-16c-82.13,0-162.72.18-162.72.18a11,11,0,0,0-11,11s-.85,217.46.44,233.83c.43,4.31,4.31,7.75,8.61,8.18,33,.2,89.87.25,142.74.25,65.74,0,125.35-.08,125.35-.08l6.31-.17s46.51-.43,61.59-.43c4.74,0,6.89-5.17,8.18-9.47V208.33s.86-34.46,0-51.69a10.09,10.09,0,0,0-9-9c-13.22-.63-92.52-.79-170.45-.79Z"/><path class="cls-18" d="M164,103.45A12.46,12.46,0,0,1,176.5,91s360.8-.77,391.48.69a11.42,11.42,0,0,1,10.23,10.23c1,19.48,0,197.87,0,266.54-1.46,4.87-3.9,10.72-9.25,10.72-17.05,0-310.91,1-394.68.48-4.87-.48-9.25-4.38-9.74-9.25C163.08,351.89,164,103.45,164,103.45Z"/><g class="cls-19"><rect class="cls-20" x="211.78" y="303.82" width="205.61" height="50.46" rx="10.54" ry="10.54"/></g><rect class="cls-21" x="211.78" y="138.78" width="205.61" height="136.32" rx="40.44" ry="40.44"/><polygon class="cls-22" points="285.92 176.2 283.92 237.68 347.24 206.94 285.92 176.2"/><g class="cls-23"><g class="cls-19"><path class="cls-24" d="M552.15,153.62h-4.62v-2.09h4.62Zm-9.25,0h-4.63v-2.09h4.63Zm-9.25,0H529v-2.09h4.63Zm-9.25,0h-4.63v-2.09h4.63Zm-9.26,0h-4.62v-2.09h4.62Zm-9.25,0h-4.63v-2.09h4.63Zm-9.25,0H492v-2.09h4.63Z"/></g><g class="cls-19"><path class="cls-24" d="M533.65,167.21H529v-2.08h4.63Zm-9.25,0h-4.63v-2.08h4.63Zm-9.26,0h-4.62v-2.08h4.62Zm-9.25,0h-4.63v-2.08h4.63Zm-9.25,0H492v-2.08h4.63Z"/></g><g class="cls-19"><path class="cls-24" d="M484.2,179.9H437.87V138.85H484.2ZM440,177.81h42.16V140.94H440Z"/></g></g><g class="cls-23"><g class="cls-19"><path class="cls-24" d="M549.45,241.2h-1.92v-2.09h1.92Zm-6.55,0h-4.63v-2.09h4.63Zm-9.25,0H529v-2.09h4.63Zm-9.25,0h-4.63v-2.09h4.63Zm-9.26,0h-4.62v-2.09h4.62Zm-9.25,0h-4.63v-2.09h4.63Zm-9.25,0H492v-2.09h4.63Z"/></g><g class="cls-19"><path class="cls-24" d="M532.84,254.8H529v-2.09h3.82Zm-8.44,0h-4.63v-2.09h4.63Zm-9.26,0h-4.62v-2.09h4.62Zm-9.25,0h-4.63v-2.09h4.63Zm-9.25,0H492v-2.09h4.63Z"/></g><g class="cls-19"><path class="cls-24" d="M484.2,267.48H437.87V226.43H484.2ZM440,265.39h42.16V228.52H440Z"/></g></g><g class="cls-23"><g class="cls-19"><path class="cls-24" d="M533.65,329.05H529V327h4.63Zm-9.25,0h-4.63V327h4.63Zm-9.26,0h-4.62V327h4.62Zm-9.25,0h-4.63V327h4.63Zm-9.25,0H492V327h4.63Z"/></g><g class="cls-19"><path class="cls-24" d="M515.14,342.64h-4.62v-2.09h4.62Zm-9.25,0h-4.63v-2.09h4.63Zm-9.25,0H492v-2.09h4.63Z"/></g><g class="cls-19"><path class="cls-24" d="M484.2,355.32H437.87v-41H484.2ZM440,353.24h42.16V316.36H440Z"/></g></g><polygon class="cls-25" points="196.86 288.8 174.57 290.24 176.4 242.98 197.57 243.8 196.86 288.8"/><path class="cls-26" d="M163.76,317.69s.47,16.41,1,22.64c.45,5.73,2.11,17.1,3,22.77.88,5.35,3.54,18.74,3.4,21.41-.21,4-2,11.71-1.63,17.16,1.52,24.63,4.14,40.56,4.14,40.56a61.61,61.61,0,0,1-4.07,6.74c-.93,1.29-.6,2.27-2.14,4-.58.65,2.58,1.79,3.94,1.78,2.36,0,7.21-2.28,9.65-5.49,1.21-1.58.24-4.29.59-7.86.9-9.09,2.57-29.48,3.52-40.6.47-5.52-1-13.74-.26-19,.11-.76,1.14-11.52,1.25-12.27.9-6,1.9-29.19,1.9-29.19Z"/><path class="cls-26" d="M210.22,325.61s10.37,51.26,10.19,58.4c-.1,4-1.57,3-2.33,8.38-3.43,24.44-6.87,46.46-6.87,46.46s6.34,4.58,9.88,7.32c2.38,1.83,5.85,2.15,5.16,4-.3.83-14-1.69-15.33-1.81-2.34-.2-6.64,0-7.47-2.37-.51-1.41.42-4.52.34-8.1-.19-9.14-2.38-28.6-1.55-38.07.48-5.52,2.19-9.38,2.81-12.05,1.61-6.91-15.46-52.78-15.46-52.78Z"/><path class="cls-27" d="M164.59,456.62c1.21.16,3.28.29,3.28.29,1,.1,3.33,0,4.14-.58l4.12-3a6.27,6.27,0,0,1,2.44-1.06l.87-.17a3.06,3.06,0,0,0,2.28-2h0a15,15,0,0,0-.15-4.89s-6.7,7.28-11.6,6.21c-2.12-.47.81-4.11.81-4.11a27.78,27.78,0,0,1-6.19,6.3c-.51.38-1.31,1-1.39,1.61S163.35,456.46,164.59,456.62Z"/><path class="cls-27" d="M202.88,444l.63-2.79a51.8,51.8,0,0,0,11.88,4.46c2.21.55,5.19.24,5.7.46l4.94,2.08a3.92,3.92,0,0,1,1.74,1.45,1,1,0,0,1-.83,1.49l-9.57.1a3.2,3.2,0,0,1-1.22-.24l-5.75-2.36-.31,2.32-6.47-.26-.88-3.49A9.17,9.17,0,0,1,202.88,444Z"/><path class="cls-28" d="M188.49,329.16c-6.74.61-26.65-5.31-26.2-14.28.49-9.77,9.11-26.22,9.11-26.22l31.43-.59s7.88,17.43,9.4,23.92C214.69,322.49,195,328.56,188.49,329.16Z"/><path class="cls-29" d="M175.07,198.38c-9.88,13.22-7.69,31.09-4.87,34.47,3.76,4.53,22.83,1,30.9,1.91,1.55.17,6.3-16.89-.57-33.57C197.2,193.13,181,190.4,175.07,198.38Z"/><path class="cls-30" d="M185.35,248.62c4.45.11,12.67-8.05,14.3-10.64a32,32,0,0,0-3.5-1.51c-7.51-2.22-10.67-3-19.56.62a43.8,43.8,0,0,0-3.92,2.3C172.75,239.73,181.43,248.53,185.35,248.62Z"/><path class="cls-31" d="M189.87,226.84l-8.64-.34a.42.42,0,0,0-.44.41l-.33,8.3a4.75,4.75,0,0,0,9.5.37l.32-8.3A.42.42,0,0,0,189.87,226.84Z"/><path class="cls-32" d="M198,215a2.37,2.37,0,1,1-2.27-2.48A2.37,2.37,0,0,1,198,215Z"/><path class="cls-33" d="M174,214.06a2.36,2.36,0,1,1,2.27,2.48A2.38,2.38,0,0,1,174,214.06Z"/><path class="cls-26" d="M186.6,200.13h0a9.76,9.76,0,0,0-10,9.5l-.35,9a9.76,9.76,0,0,0,9.22,10.27h0a9.77,9.77,0,0,0,10-9.51l.36-9A9.76,9.76,0,0,0,186.6,200.13Z"/><path class="cls-29" d="M193.72,196.75c-2.42-2.06-8.78-3.92-14.77.86s-3.5,14.63-2.44,13.91c3.49-2.41,1.89-7.18,5.09-7.18,2.58,0,5.57,7.8,14.09,9.32.66.12,1.57-2.64,2.08-4.9A12.63,12.63,0,0,0,193.72,196.75Z"/><path class="cls-34" d="M183,211.46l-4.34-.17a1.56,1.56,0,0,0-1.63,1.5,3.75,3.75,0,0,0,3.59,3.89l.78,0a3,3,0,0,0,3.08-2.86l0-.77A1.56,1.56,0,0,0,183,211.46Zm1,2.37a2.45,2.45,0,0,1-2.54,2.35l-.78,0a3.21,3.21,0,0,1-3.09-3.34,1,1,0,0,1,1.09-1L183,212a1,1,0,0,1,1,1.08Z"/><path class="cls-34" d="M187.62,213.2l0,.77a3,3,0,0,0,2.86,3.09l.77,0a3.75,3.75,0,0,0,3.88-3.6,1.56,1.56,0,0,0-1.5-1.62l-4.35-.17A1.57,1.57,0,0,0,187.62,213.2Zm.53,0a1,1,0,0,1,1.08-1l4.35.17a1,1,0,0,1,1,1.08,3.23,3.23,0,0,1-3.34,3.1l-.77,0a2.46,2.46,0,0,1-2.35-2.55Z"/><path class="cls-34" d="M187.31,213.19a2.09,2.09,0,0,0-2.48-.12.24.24,0,1,0,.27.39,1.61,1.61,0,0,1,1.91.09.24.24,0,0,0,.14,0,.21.21,0,0,0,.19-.08A.24.24,0,0,0,187.31,213.19Z"/><path class="cls-35" d="M179,235.91s4.77,25.21,5.38,32.58c.86,10.28,3,34.49,3,34.49l-23.58-1.39L166,276s-4.23-27.45,1.33-34.31C169.3,239.25,179,235.91,179,235.91Z"/><path class="cls-35" d="M192.58,235.26s-2.64,21.74-3.36,28.8c-1,9.85.31,38.18.31,38.18l20.84-2.84a116.42,116.42,0,0,1-2-24.95c.75-15.5,2.59-27.07-3.3-33.65C203,238.46,192.58,235.26,192.58,235.26Z"/><path class="cls-27" d="M205.38,240.38c2.94-.4,5.61,7,6.81,13.61,2.53,14,2.74,18.39,2.71,30,0,2.58,0,3.45-3.31,3.2-7.72-.58-32-14.15-32-14.15l1.15-6.65L203.38,274s-2-12.65-2.06-17.67C201.29,252.37,201.57,240.91,205.38,240.38Z"/><path class="cls-26" d="M192.55,274.79l-3.92-4.14a36,36,0,0,1,3.68-2.3c2.78-.5,9.64-1.67,9.64-1.67l1.43,7.27S195.94,273.8,192.55,274.79Z"/><path class="cls-27" d="M167.32,241.7c-2.34-.09-6.13,6.24-7.42,13.07-2.22,11.78-2.58,14.29-1.91,27.48.26,5.12.27,6.55,4.18,5.79,3.71-.71,18.48-7.79,28.74-10.85,1.51-.45,6.35-2.22,6.35-2.22l-2.49-7.41-26.46,4.23s.08-7,1.12-16.19C170,250.83,169.36,241.78,167.32,241.7Z"/><path class="cls-26" d="M170.8,272.05c1.39.47,6-.26,9.07-.7l.71-4.11s-3.19-.46-3.62-.57c-2.74-.71-6.11-2.66-8.81-3.5-1.35-.43-6.88.76-6.88.76a3.59,3.59,0,0,0,.9,1c1,.55,4.75,0,4.75,0l-3.45,2.38-1.67,2.46a1.45,1.45,0,0,0,1.09.4c.69,0,1.84-1.64,1.84-1.64l2.09-.31-3.61,4.19a5.45,5.45,0,0,0,1.31.82,5.75,5.75,0,0,0,1.62-.31s.42.47.56.5C168,273.69,169.85,271.73,170.8,272.05Z"/><polygon class="cls-27" points="177.53 452.1 176.1 452.67 176.03 454.51 179.35 454.83 181.34 454.09 181.86 449.29 177.53 452.1"/><path class="cls-36" d="M172.08,439.71s-4.24-32.22-4-43.55c.06-3.36.53-11.5.53-11.5s-7.59-55-6.23-70.6c.62-7.09,29.13,2.36,29.13,2.36l-5.82,68.39,1.77,12.81-5,42-7.8,1.35Z"/><path class="cls-37" d="M213.5,436.57l6.15-46.15,2.27-5.53s-5-51.37-9.69-72.9c-1.43-6.54-23.78,18.19-23.78,18.19l14.26,54.93L200.56,395l1.15,42.43Z"/><path class="cls-38" d="M676.48,123.34a1.07,1.07,0,0,1-.74-.3,1,1,0,0,1-.31-.74V112.24a1.05,1.05,0,0,1,1-1l2.11,0a7.31,7.31,0,0,1,2.28-3,4.92,4.92,0,0,0,1.37-1.67,4.78,4.78,0,0,0,.17-2.59,1.06,1.06,0,0,1,.65-1.22,3.31,3.31,0,0,1,2.47.1,3,3,0,0,1,1.5,2,9.46,9.46,0,0,1,.26,4.24h4.27a2.62,2.62,0,0,1,2.62,2.62,2.55,2.55,0,0,1-.41,1.39,2.67,2.67,0,0,1,0,3.63,2.56,2.56,0,0,1,.41,1.4,2.63,2.63,0,0,1-1.12,2.14,2.56,2.56,0,0,1,.13.79,2.41,2.41,0,0,1-2.41,2.41Zm1-10.07v8h13.25a.32.32,0,0,0,0-.64,1,1,0,0,1,0-2.09h.78a.53.53,0,1,0,0-1,1,1,0,0,1,0-2.09h.23a.6.6,0,1,0,0-1.19h-.23a1,1,0,0,1,0-2.09.53.53,0,1,0,0-1h-5.69a1,1,0,0,1-.91-1.56,6,6,0,0,0,.06-4.21,1,1,0,0,0-.42-.67,6.23,6.23,0,0,1-.44,2.66,7.1,7.1,0,0,1-2,2.48,4.7,4.7,0,0,0-1.78,2.62,1,1,0,0,1-1,.88Z"/><path class="cls-39" d="M643.07,338a1.06,1.06,0,0,1-.61-.2,1,1,0,0,1-.41-1l.88-5.16-3.76-3.66a1,1,0,0,1,.58-1.78l5.2-.76,2.33-4.7a1.06,1.06,0,0,1,.94-.58,1,1,0,0,1,.93.58l2.33,4.7,5.2.76a1,1,0,0,1,.58,1.78l-3.76,3.66.89,5.16a1.06,1.06,0,0,1-.42,1,1,1,0,0,1-1.1.08l-4.65-2.44-4.66,2.44A1,1,0,0,1,643.07,338Zm5.15-4.78a1,1,0,0,1,.48.12L652,335l-.62-3.62a1,1,0,0,1,.3-.93l2.64-2.56-3.65-.53a1,1,0,0,1-.79-.57l-1.63-3.3-1.64,3.3a1,1,0,0,1-.78.57l-3.65.53,2.63,2.56a1.07,1.07,0,0,1,.31.93l-.63,3.62,3.27-1.71A1,1,0,0,1,648.22,333.2Z"/><path class="cls-40" d="M91.57,91.45A10.43,10.43,0,1,1,97.1,77.77,10.43,10.43,0,0,1,91.57,91.45ZM84.24,74.17a8.34,8.34,0,1,0,10.94,4.42A8.34,8.34,0,0,0,84.24,74.17Z"/><path class="cls-41" d="M90.32,88.5A7.22,7.22,0,1,1,94.15,79,7.23,7.23,0,0,1,90.32,88.5ZM85.49,77.12a5.14,5.14,0,1,0,6.74,2.72A5.13,5.13,0,0,0,85.49,77.12Z"/><path class="cls-42" d="M86.63,73.15a1,1,0,0,1-1.37-.55l-1.71-4a1,1,0,0,1,1.92-.82l1.71,4A1,1,0,0,1,86.63,73.15Z"/><path class="cls-43" d="M81.85,75.18a1,1,0,0,1-1.37-.55l-1.71-4a1,1,0,0,1,1.92-.82l1.71,4A1,1,0,0,1,81.85,75.18Z"/><path class="cls-44" d="M87.06,68.21,78,72.06a1,1,0,0,1-1.36-.55,1,1,0,0,1,.55-1.37l9.07-3.85a1,1,0,0,1,.81,1.92Z"/><path class="cls-45" d="M94.15,72.63a1,1,0,0,1-.84,0l-2-.89a1,1,0,1,1,.86-1.9l2,.89a1,1,0,0,1,.52,1.39A1.07,1.07,0,0,1,94.15,72.63Z"/><path class="cls-46" d="M87.91,82.81a1.06,1.06,0,0,1-.87,0,1,1,0,0,1-.48-1.4l1.52-3.06a1,1,0,1,1,1.87.92l-1.52,3.07A1.05,1.05,0,0,1,87.91,82.81Z"/><path class="cls-47" d="M372.88,60.36H361.51a3.47,3.47,0,0,1-3.46-3.46V44.14a1,1,0,0,1,1.05-1h12.38a1,1,0,0,1,1,1V54.92a1,1,0,1,1-2.09,0V45.18H360.14V56.9a1.37,1.37,0,0,0,1.37,1.37h11.37a1,1,0,0,1,0,2.09Z"/><path class="cls-48" d="M373.06,60.36H361.51a3,3,0,0,1-.59-.06,1,1,0,0,1,0-2,1.37,1.37,0,0,0,1.13-1.35v-2a1,1,0,0,1,1-1h12.38a1,1,0,0,1,1,1v2A3.47,3.47,0,0,1,373.06,60.36Zm-9.21-2.09h9.21a1.37,1.37,0,0,0,1.37-1.37V56H364.14v.93A3.3,3.3,0,0,1,363.85,58.27Z"/><path class="cls-49" d="M368.39,48.78h-6.3a1,1,0,0,1,0-2.09h6.3a1,1,0,1,1,0,2.09Z"/><path class="cls-50" d="M368.39,52.37h-6.3a1,1,0,0,1,0-2.09h6.3a1,1,0,1,1,0,2.09Z"/><path class="cls-51" d="M355.79,57.76a1,1,0,0,1-1.05-1V41a1,1,0,0,1,1.05-1.05h15.69a1,1,0,0,1,0,2.09H356.83V56.72A1,1,0,0,1,355.79,57.76Z"/><rect class="cls-52" x="79.01" y="247.66" width="3.11" height="2.09" transform="translate(-38.72 16.08) rotate(-9.2)"/><rect class="cls-53" x="82.01" y="243.44" width="2.09" height="3.05" transform="translate(-38.07 16.42) rotate(-9.19)"/><rect class="cls-54" x="85.44" y="246.63" width="2.94" height="2.09" transform="translate(-38.48 17.08) rotate(-9.2)"/><rect class="cls-55" x="83.06" y="249.85" width="2.09" height="3.23" transform="translate(-39.09 16.67) rotate(-9.19)"/><path class="cls-56" d="M230.76,66.58a4.85,4.85,0,0,1-1.06-.12,4.65,4.65,0,0,1-3.47-5.58,4.66,4.66,0,0,1,5.58-3.48A4.67,4.67,0,0,1,235.29,63h0A4.66,4.66,0,0,1,230.76,66.58Zm0-7.21a2.52,2.52,0,0,0-1.35.39,2.56,2.56,0,1,0,1.94-.32A2.38,2.38,0,0,0,230.75,59.37Z"/><rect class="cls-57" x="456.81" y="58.77" width="3.11" height="2.09" transform="translate(-3.67 74.05) rotate(-9.2)"/><rect class="cls-58" x="459.81" y="54.55" width="2.09" height="3.05" transform="translate(-3.04 74.35) rotate(-9.19)"/><rect class="cls-59" x="463.24" y="57.75" width="2.94" height="2.09" transform="translate(-3.42 75.05) rotate(-9.2)"/><rect class="cls-60" x="460.87" y="60.97" width="2.09" height="3.23" transform="translate(-4.06 74.6) rotate(-9.19)"/><path class="cls-61" d="M132.6,196,124,194.72l1.2-8.4,8.61,1.23Zm-6.25-3,4.48.64.61-4.27-4.48-.64Z"/><rect class="cls-62" x="761.17" y="91.68" width="3.11" height="2.09" transform="translate(-5.01 123.15) rotate(-9.2)"/><rect class="cls-63" x="764.16" y="87.46" width="2.09" height="3.05" transform="translate(-4.39 123.4) rotate(-9.19)"/><rect class="cls-64" x="767.59" y="90.65" width="2.94" height="2.09" transform="translate(-4.77 124.15) rotate(-9.2)"/><rect class="cls-65" x="765.22" y="93.87" width="2.09" height="3.23" transform="translate(-5.41 123.65) rotate(-9.19)"/><path class="cls-66" d="M625.6,45.16,617,43.93l1.2-8.4,8.61,1.23Zm-6.25-3,4.48.64.61-4.27L620,37.89Z"/></svg>