<svg id="Layer_1" data-name="Layer 1" xmlns="http://www.w3.org/2000/svg" xmlns:xlink="http://www.w3.org/1999/xlink" viewBox="0 0 714 486"><defs><style>.cls-1,.cls-28{fill:#e4f5fd;}.cls-2{fill:#57a6dc;}.cls-3{fill:#2f3c7a;stroke-width:3px;}.cls-11,.cls-12,.cls-3{stroke:#1f2959;stroke-miterlimit:10;}.cls-4{fill:#4452a4;}.cls-12,.cls-5{fill:#282968;}.cls-6{fill:#ca4097;}.cls-7{fill:url(#linear-gradient);}.cls-8{fill:url(#Безымянный_градиент_346);}.cls-9{fill:url(#Безымянный_градиент_346-2);}.cls-10{fill:#bcdaf3;}.cls-11{stroke-width:6px;fill:url(#Безымянный_градиент_318);}.cls-12{stroke-width:2px;}.cls-13{fill:url(#Безымянный_градиент_69);}.cls-14{fill:#d96689;}.cls-15{fill:#f389a8;}.cls-16{fill:url(#linear-gradient-2);}.cls-17{fill:url(#Безымянный_градиент_14);}.cls-18{fill:url(#linear-gradient-3);}.cls-19{fill:#fed307;}.cls-20{fill:url(#linear-gradient-4);}.cls-21{fill:#ef6495;}.cls-22{fill:#fff;}.cls-23{fill:url(#Безымянный_градиент_300);}.cls-24{fill:#f37d92;}.cls-25{fill:url(#Безымянный_градиент_69-2);}.cls-26{fill:url(#linear-gradient-5);}.cls-27{fill:url(#Безымянный_градиент_346-3);}.cls-28{opacity:0.48;}</style><linearGradient id="linear-gradient" x1="3081.46" y1="387.99" x2="3094.44" y2="387.99" gradientTransform="matrix(0.64, -0.77, 0.77, 0.64, -1926.96, 2178.32)" gradientUnits="userSpaceOnUse"><stop offset="0" stop-color="#fed307"/><stop offset="1" stop-color="#ecb91e"/></linearGradient><linearGradient id="Безымянный_градиент_346" x1="295.71" y1="436.48" x2="443.05" y2="436.48" gradientUnits="userSpaceOnUse"><stop offset="0.01" stop-color="#2f3c7a"/><stop offset="1" stop-color="#4e5ca2"/></linearGradient><linearGradient id="Безымянный_градиент_346-2" x1="295.71" y1="436.48" x2="443.05" y2="436.48" xlink:href="#Безымянный_градиент_346"/><linearGradient id="Безымянный_градиент_318" x1="178.75" y1="248.85" x2="560.01" y2="248.85" gradientUnits="userSpaceOnUse"><stop offset="0" stop-color="#a3dad5"/><stop offset="1" stop-color="#9ac6ea"/></linearGradient><linearGradient id="Безымянный_градиент_69" x1="296.08" y1="118.31" x2="399.35" y2="118.31" gradientUnits="userSpaceOnUse"><stop offset="0" stop-color="#f06495"/><stop offset="1" stop-color="#5492ce"/></linearGradient><linearGradient id="linear-gradient-2" x1="-8740.09" y1="298.63" x2="-8694.46" y2="298.63" gradientTransform="matrix(-1, 0, 0, 1, -8492.92, 0)" xlink:href="#linear-gradient"/><linearGradient id="Безымянный_градиент_14" x1="-8682.41" y1="264.27" x2="-8698.88" y2="369.1" gradientTransform="matrix(-1, 0, 0, 1, -8492.92, 0)" gradientUnits="userSpaceOnUse"><stop offset="0" stop-color="#bcdaf3"/><stop offset="1" stop-color="#5894cf"/></linearGradient><linearGradient id="linear-gradient-3" x1="-8675.94" y1="294.11" x2="-8626.94" y2="294.11" gradientTransform="matrix(-1, 0, 0, 1, -8492.92, 0)" xlink:href="#linear-gradient"/><linearGradient id="linear-gradient-4" x1="-8651.68" y1="251.4" x2="-8613.88" y2="251.4" gradientTransform="matrix(-1, 0, 0, 1, -8492.92, 0)" gradientUnits="userSpaceOnUse"><stop offset="0" stop-color="#ca4097"/><stop offset="0.16" stop-color="#c44097"/><stop offset="0.36" stop-color="#b44298"/><stop offset="0.58" stop-color="#9a449a"/><stop offset="0.82" stop-color="#76469c"/><stop offset="1" stop-color="#55499e"/></linearGradient><linearGradient id="Безымянный_градиент_300" x1="465.73" y1="284.17" x2="519.01" y2="284.17" gradientUnits="userSpaceOnUse"><stop offset="0" stop-color="#5894cf"/><stop offset="1" stop-color="#354ea1"/></linearGradient><linearGradient id="Безымянный_градиент_69-2" x1="422.82" y1="325.78" x2="545.54" y2="325.78" xlink:href="#Безымянный_градиент_69"/><linearGradient id="linear-gradient-5" x1="-187.71" y1="882.13" x2="-146.43" y2="882.13" gradientTransform="matrix(0.23, 0.87, -0.67, 0.31, 1033.55, 179.78)" xlink:href="#linear-gradient"/><linearGradient id="Безымянный_градиент_346-3" x1="255.83" y1="283.21" x2="404.43" y2="283.21" xlink:href="#Безымянный_градиент_346"/></defs><title>Semantic_search</title><path class="cls-1" d="M602.41,441H130.22a9.33,9.33,0,1,0,0,18.66H602.41a9.33,9.33,0,1,0,0-18.66Z"/><path class="cls-2" d="M174.43,142l-1-.23.12-.5,1,.22Z"/><path class="cls-2" d="M171.38,141.25c-.67-.2-1.34-.43-2-.68l.18-.49c.65.25,1.31.47,2,.68Zm-3.94-1.5q-1-.44-1.89-.93l.24-.46c.61.32,1.24.63,1.86.92Zm-3.72-2c-.59-.36-1.19-.76-1.76-1.16l.3-.42c.57.39,1.15.78,1.73,1.14Zm-3.44-2.44c-.54-.44-1.08-.91-1.59-1.38l.35-.38c.51.47,1,.92,1.57,1.36Zm-3.09-2.87c-.48-.51-.95-1-1.38-1.59l.4-.33c.43.54.89,1.06,1.36,1.57Zm-2.65-3.27c-.41-.58-.79-1.18-1.15-1.78l.45-.26c.35.58.72,1.17,1.12,1.74Zm-2.14-3.64c-.31-.64-.6-1.29-.85-1.94l.48-.19c.25.64.53,1.28.83,1.9Zm-1.53-3.94c-.2-.67-.38-1.36-.53-2l.51-.11c.14.67.32,1.34.52,2Zm-.91-4.12c-.1-.69-.18-1.4-.23-2.1l.52,0c.05.69.12,1.38.22,2.07Zm-.31-4.21v0c0-.69,0-1.39.07-2.08l.52,0c-.05.67-.07,1.36-.07,2Zm58.16-1.42q0-1-.18-2.07l.52-.06c.08.7.15,1.4.18,2.1Zm-57.35-2.71-.51-.08c.1-.69.23-1.39.38-2.07l.51.11C150.69,107.77,150.56,108.46,150.46,109.14Zm56.84-1.41c-.13-.67-.29-1.35-.47-2l.5-.14c.18.68.35,1.37.48,2Zm-55.94-2.64-.5-.15c.2-.67.43-1.34.68-2l.48.19C151.78,103.77,151.55,104.43,151.36,105.09Zm54.85-1.36c-.22-.65-.48-1.3-.75-1.93l.48-.2c.27.64.53,1.3.76,2Zm-53.39-2.51-.47-.22c.24-.52.51-1,.78-1.55l.18-.33.45.25-.18.32C153.32,100.19,153.06,100.7,152.82,101.22Zm51.75-1.29c-.31-.61-.65-1.22-1-1.81l.44-.27c.36.6.71,1.22,1,1.84Zm-49.75-2.35-.43-.28c.38-.59.79-1.17,1.21-1.73l.41.31C155.6,96.43,155.2,97,154.82,97.58Zm47.59-1.18c-.4-.56-.83-1.12-1.27-1.65l.4-.33c.45.54.88,1.1,1.29,1.67Zm-45.09-2.13-.39-.34c.46-.53.95-1.05,1.44-1.54l.37.37C158.25,93.24,157.77,93.75,157.32,94.27Zm42.44-1.06c-.48-.5-1-1-1.49-1.44l.35-.39c.52.47,1,1,1.51,1.47Zm-39.5-1.85-.33-.4c.53-.45,1.09-.9,1.65-1.31l.31.42C161.33,90.47,160.79,90.91,160.26,91.36Zm36.42-.92c-.55-.42-1.11-.83-1.69-1.21l.29-.43c.59.39,1.16.8,1.72,1.23ZM163.6,88.9l-.28-.44c.6-.37,1.21-.73,1.83-1.06l.24.46C164.79,88.18,164.18,88.53,163.6,88.9Zm29.63-.75c-.6-.34-1.22-.66-1.84-1l.22-.47c.63.3,1.26.62,1.87,1Zm-26-1.2-.21-.47c.64-.29,1.3-.55,2-.79l.18.49C168.53,86.41,167.88,86.67,167.25,87Zm22.23-.57c-.64-.25-1.3-.48-2-.68l.15-.49c.67.2,1.34.43,2,.68Zm-18.33-.84L171,85c.67-.19,1.36-.36,2.05-.5l.11.51C172.49,85.19,171.81,85.35,171.15,85.54Zm14.36-.37c-.66-.15-1.35-.28-2-.39l.08-.51c.69.11,1.39.24,2.07.39Zm-10.3-.47-.07-.52c.69-.09,1.4-.16,2.1-.2l0,.52C176.59,84.54,175.89,84.61,175.21,84.7Zm6.21-.16c-.69-.06-1.38-.09-2.07-.1v-.51c.7,0,1.41,0,2.11.09Z"/><path class="cls-2" d="M208.32,115l-.52,0c0-.34,0-.69,0-1h.52C208.35,114.33,208.34,114.68,208.32,115Z"/><path class="cls-2" d="M160.86,103.54a20.41,20.41,0,0,0-1.54,15.67,20.63,20.63,0,0,0,15.22,14.12l-.11.5a21.1,21.1,0,0,1-14-30.54,21.11,21.11,0,0,1,38.8,3.82,24.44,24.44,0,0,1,.88,7.92l-.52,0a23.65,23.65,0,0,0-.86-7.74,20.57,20.57,0,0,0-37.84-3.72Z"/><path class="cls-3" d="M174.46,163.45c-1.33-.12-3.27-.34-5-.66l-.17,0-3.4-13.67a38.41,38.41,0,0,1-11.43-6.6L141,146.38l-.11-.13a50.08,50.08,0,0,1-9.51-16.46l-.06-.15,10.14-9.78a38.06,38.06,0,0,1,0-13.21L131.3,96.87l.06-.15a50.08,50.08,0,0,1,9.51-16.46l.11-.12L154.5,84a38.09,38.09,0,0,1,11.44-6.6l3.4-13.66.17,0a51,51,0,0,1,19,0l.17,0,3.4,13.66A38.41,38.41,0,0,1,203.51,84L217,80.14l.11.12a50.08,50.08,0,0,1,9.51,16.46l.06.15-10.15,9.79a40,40,0,0,1,.56,8.36l-.52,0a39.56,39.56,0,0,0-.57-8.39l0-.14,10.1-9.74a49.88,49.88,0,0,0-9.26-16L203.39,84.6l-.11-.09a37.74,37.74,0,0,0-11.51-6.65l-.13,0L188.25,64.2a50.36,50.36,0,0,0-18.48,0l-3.39,13.62-.13,0a37.44,37.44,0,0,0-11.52,6.65l-.1.08-13.48-3.87a50,50,0,0,0-9.25,16l10.1,9.74,0,.14a37.1,37.1,0,0,0,0,13.29l0,.14-10.1,9.74a49.94,49.94,0,0,0,9.25,16l13.48-3.88.11.09a37.54,37.54,0,0,0,11.51,6.65l.13,0,3.39,13.61c1.62.3,3.46.51,4.74.63Z"/><path class="cls-2" d="M585.05,430.2c-8.53,0-17.14-6.27-17.23-6.34l-.25-.19.24-.21c10.15-9,34.16-9.16,43.55-.3l.3.28-.38.15c-.17.07-16.88,6.6-26.22,6.61Zm-16.65-6.57c1.5,1,9.13,6.05,16.65,6.05,8.46,0,23.08-5.44,25.65-6.42C601.34,414.9,578.41,415.09,568.4,423.63Z"/><path class="cls-2" d="M551,434.45l-.33-.39c9.93-8.26,15.73-12.27,39.05-13.13l0,.51C565.57,422.34,560.08,426.9,551,434.45Z"/><path class="cls-2" d="M540.13,433.58h-.52c0-28.64,9.65-39.22,20.82-51.47,2.45-2.68,5-5.46,7.5-8.53,4.83-5.88,6.37-15.66,8-26,2.12-13.4,4.31-27.25,13.51-36.18,2.45-2.37,4.9-3.19,6.55-2.18,2.65,1.62,2.7,7.44.12,16-3.26,10.79-.18,18.6,3.07,26.86,3,7.5,6,15.25,5.38,26.25-1.59,27.26-26,36.83-26.22,36.92l-.19-.48c.25-.09,24.32-9.55,25.89-36.47.63-10.89-2.4-18.58-5.34-26-3.29-8.35-6.4-16.24-3.09-27.2,2.47-8.17,2.51-13.92.11-15.38-1.44-.88-3.65-.09-5.92,2.11-9.08,8.81-11.25,22.58-13.36,35.89-1.65,10.43-3.2,20.28-8.12,26.27-2.52,3.08-5.06,5.86-7.52,8.55C549.71,394.63,540.13,405.14,540.13,433.58Z"/><path class="cls-2" d="M553.59,422.16l-.48-.2c.22-.52.43-1,.65-1.55l.48.21C554,421.12,553.8,421.63,553.59,422.16Zm1.51-3.41-.47-.23c.3-.62.61-1.25.94-1.85l.46.24C555.71,417.51,555.39,418.13,555.1,418.75Zm1.93-3.64-.45-.26c.35-.6.71-1.2,1.08-1.78l.44.28C557.73,413.93,557.37,414.52,557,415.11Zm2.22-3.47-.43-.3c.39-.56.81-1.13,1.23-1.68l.41.31C560,410.52,559.63,411.08,559.25,411.64Zm2.48-3.29-.4-.33,1.35-1.59.39.35C562.62,407.29,562.17,407.81,561.73,408.35Zm2.72-3.11-.38-.35c.47-.51.94-1,1.42-1.51l.38.36C565.39,404.23,564.92,404.73,564.45,405.24Zm2.86-3-.37-.37,1.47-1.46.36.36Zm2.93-2.93-.37-.36,1.46-1.48.37.37Zm2.9-3-.38-.36c.47-.5.93-1,1.39-1.52l.39.34C574.08,395.34,573.61,395.85,573.14,396.36Zm2.76-3.11-.4-.33c.44-.54.88-1.08,1.29-1.61l.41.31C576.78,392.16,576.35,392.71,575.9,393.25Zm2.53-3.31-.42-.29c.39-.56.78-1.14,1.14-1.71l.44.28C579.22,388.8,578.83,389.38,578.43,389.94Zm2.24-3.51-.45-.25c.34-.59.67-1.2,1-1.81l.46.23C581.35,385.22,581,385.84,580.67,386.43Zm1.91-3.7-.48-.21c.28-.62.55-1.26.79-1.9l.48.18C583.13,381.45,582.86,382.1,582.58,382.73Zm1.47-3.91-.49-.15c.2-.64.38-1.31.55-2l.5.12C584.44,377.49,584.25,378.17,584.05,378.82Zm1-4-.51-.1c.13-.66.25-1.35.35-2l.51.08C585.31,373.42,585.19,374.11,585.06,374.78Zm.6-4.13-.51,0c.07-.67.12-1.36.17-2.06l.52,0C585.79,369.28,585.73,370,585.66,370.65Zm.28-4.16h-.52q0-1,0-2.07H586C586,365.11,586,365.8,585.94,366.49Zm-.5-4.15-.06-2.06.51,0c0,.69.05,1.38.07,2.07Zm-.16-4.13-.12-2.07.51,0c.05.69.09,1.38.13,2.07Zm-.27-4.14-.15-2.06.52,0,.15,2.07Zm-.31-4.13-.15-2.07.51,0c.05.69.11,1.38.16,2.07Zm-.29-4.14-.12-2.07.52,0c0,.69.07,1.38.12,2.07Zm-.2-4.15c0-.69,0-1.39,0-2.07h.52c0,.69,0,1.37,0,2.07Zm.5-4.14-.52,0c0-.71,0-1.41.08-2.08l.52,0C584.75,336.1,584.72,336.8,584.71,337.51Zm.25-4.12-.52-.05c.08-.71.17-1.41.27-2.07l.51.08C585.12,332,585,332.69,585,333.39Zm.64-4.07-.51-.11c.16-.69.33-1.37.52-2l.5.14C585.92,328,585.75,328.64,585.6,329.32Zm1.16-3.93-.49-.18c.25-.66.53-1.31.83-1.93l.46.22C587.27,324.11,587,324.74,586.76,325.39Zm1.77-3.69-.44-.27c.35-.6.74-1.18,1.15-1.75l.42.31C589.26,320.54,588.88,321.11,588.53,321.7Zm2.41-3.31-.39-.34c.46-.52,1-1,1.46-1.51l.35.37C591.87,317.39,591.39,317.88,590.94,318.39Z"/><rect class="cls-2" x="472.45" y="110.99" width="0.52" height="4.09"/><path class="cls-4" d="M135.7,377.74a4.93,4.93,0,1,1,4.92-4.92A4.92,4.92,0,0,1,135.7,377.74Zm0-9.33a4.41,4.41,0,1,0,4.4,4.41A4.41,4.41,0,0,0,135.7,368.41Z"/><path class="cls-4" d="M533.39,100.23l-5-5,5-5,5,5Zm-4.28-5,4.28,4.28,4.28-4.28-4.28-4.28Z"/><path class="cls-4" d="M597,179.84s-14.75-.1-20.88,11.64c-3.85,7.39.15,16,.15,16C585.14,205.81,587.28,185,597,179.84Z"/><path class="cls-5" d="M577.74,215c-3.62-7.7-1.72-16.41,6.16-28.24l.43.28c-7.77,11.67-9.65,20.22-6.12,27.74Z"/><path class="cls-5" d="M140.26,174.69c-3.62-4.95-12.35-5-18.72-2.45l-.19-.48c6.56-2.58,15.56-2.54,19.33,2.62Z"/><path class="cls-5" d="M150.5,175.5c3.92,9.1,8.7,13.06,8.7,13.06-20.54-8.62-17.2-15.31-28.87-18.06C130.33,170.5,143.25,158.67,150.5,175.5Z"/><path class="cls-6" d="M141.48,173.8s4.22-3.54,0-4.8c-5.8-1.73-11.17,1.5-11.17,1.5,9.38,2.35,11,13.67,28.87,18.06C145.15,180.22,153.67,174.93,141.48,173.8Z"/><path class="cls-5" d="M374.38,73.08c-5.3-1.76-15.29-5.87-22.7-13.61l.38-.36c7.32,7.66,17.23,11.73,22.48,13.48Z"/><path class="cls-5" d="M353.35,68.36s-8.19.12-9-9.58c-1.49-17.22-10.39-23.94-10.39-23.94,1.33,19.89,23.13,30.57,32.8,34.82C366.73,69.66,355,76.21,353.35,68.36Z"/><path class="cls-7" d="M349,59.49c-1.63-.47-8.78-3.82-8.67-7.31.52-16.33-6.36-17.44-6.36-17.44,10.43,12.84,21.31,29.14,32.8,34.83,0,0-9.88.51-16-4.51A5,5,0,0,1,349,59.49Z"/><path class="cls-5" d="M333.93,34.74c1.76,2.94,3.51,4.51,5.28,6.69A15.56,15.56,0,0,0,333.93,34.74Z"/><path class="cls-6" d="M303.89,78.12a2.92,2.92,0,0,1-2.14-1,2.34,2.34,0,0,0-3.59,0,2.87,2.87,0,0,1-4.28,0,2.34,2.34,0,0,0-3.59,0,2.93,2.93,0,0,1-2.15,1,3.41,3.41,0,0,1-2.28-1,2.87,2.87,0,0,0-1.95-.85v-.51a3.41,3.41,0,0,1,2.28,1,2.91,2.91,0,0,0,1.95.84,2.37,2.37,0,0,0,1.8-.83,2.88,2.88,0,0,1,4.29,0,2.35,2.35,0,0,0,3.58,0,2.88,2.88,0,0,1,4.29,0,2.36,2.36,0,0,0,3.59,0,2.9,2.9,0,0,1,2.14-1v.51a2.37,2.37,0,0,0-1.79.84A2.93,2.93,0,0,1,303.89,78.12Z"/><path class="cls-8" d="M443.05,441.26H295.71v-3.65a5.92,5.92,0,0,1,5.91-5.91H437.14a5.92,5.92,0,0,1,5.91,5.91Z"/><path class="cls-9" d="M442.53,437.61v3.13H296.23v-3.13a5.4,5.4,0,0,1,5.39-5.39H437.14A5.39,5.39,0,0,1,442.53,437.61Z"/><rect class="cls-10" x="178.83" y="114.5" width="382.51" height="266.12" rx="19.02" ry="19.02"/><path class="cls-11" d="M549.87,379.65h-361a10.15,10.15,0,0,1-10.14-10.14V128.19a10.15,10.15,0,0,1,10.14-10.14l61.58,0v.52l-61.58,0a9.64,9.64,0,0,0-9.62,9.62V369.51a9.64,9.64,0,0,0,9.62,9.62h361a9.64,9.64,0,0,0,9.63-9.62V128.19a9.64,9.64,0,0,0-9.63-9.62H446.63v-.52H549.87A10.15,10.15,0,0,1,560,128.19V369.51A10.15,10.15,0,0,1,549.87,379.65Z"/><polygon class="cls-5" points="560.01 341.48 178.75 341.48 178.75 132.88 179.01 132.88 250.47 132.91 250.47 133.43 179.27 133.4 179.27 340.96 559.5 340.96 559.5 133.4 446.63 133.4 446.63 132.88 560.01 132.88 560.01 341.48"/><path class="cls-5" d="M423.66,432.22H315.1l16.09-53.09h76.38Z"/><polygon class="cls-5" points="407.19 379.65 422.96 431.71 315.81 431.71 331.57 379.65 407.19 379.65"/><path class="cls-5" d="M488.55,331.21H488V272.06A12.81,12.81,0,0,0,478,259.59l.11-.51a13.34,13.34,0,0,1,10.48,13Z"/><path class="cls-12" d="M303.71,341.22h-.52V272.06a12.78,12.78,0,0,0-12.76-12.76h-.9a12.78,12.78,0,0,0-12.76,12.76v38.77a13.28,13.28,0,0,1-26.56,0V92.06H446.89V254.71h-.52V92.58H250.73V310.83a12.76,12.76,0,1,0,25.52,0V272.06a13.29,13.29,0,0,1,13.28-13.27h.9a13.29,13.29,0,0,1,13.28,13.27Z"/><rect class="cls-5" x="289.82" y="258.79" width="185.46" height="0.52"/><rect class="cls-5" x="333.02" y="202.66" width="81.88" height="0.52"/><rect class="cls-5" x="280.53" y="202.66" width="41.3" height="0.52"/><rect class="cls-5" x="396.19" y="223.83" width="18.71" height="0.52"/><rect class="cls-5" x="280.53" y="223.83" width="105.63" height="0.52"/><rect class="cls-5" x="323.08" y="300.75" width="56.23" height="0.52"/><path class="cls-6" d="M327.89,311.5l-.28-.44c.14-.09,10.73-7,13-19.57-.76-.23-1.56-.4-2.37-.57-4.2-.89-9-1.9-9.87-11.94-.42-4.55,2.05-7.57,4.58-8.1,2.23-.47,5.2.79,6.87,5.76a29.81,29.81,0,0,1,1.38,14.5,6.67,6.67,0,0,1,4,3.21c1.39,2.55.8,5.52.33,7.9-.32,1.63-.6,3-.09,3.67a1.53,1.53,0,0,0,1.2.42c3.92,0,6.14-3.47,7.11-5.58a18.13,18.13,0,0,0,1.52-5.24,6,6,0,0,1-3.16-3.89,1.78,1.78,0,0,1,1.26-2.13A1.47,1.47,0,0,1,355,290c.82.94,1.06,3,.8,5.27a8.66,8.66,0,0,0,3.95.9,12.61,12.61,0,0,0,9.41-4l.4.33a12.88,12.88,0,0,1-9.81,4.19,9.34,9.34,0,0,1-4-.88,19,19,0,0,1-1.52,5.21c-1.76,3.79-4.43,5.88-7.52,5.88h-.08a1.94,1.94,0,0,1-1.59-.62c-.67-.82-.38-2.26,0-4.09.46-2.3,1-5.16-.28-7.55a6.18,6.18,0,0,0-3.64-2.94C338.77,304.43,328,311.4,327.89,311.5Zm26-21.57a1.23,1.23,0,0,0-.36.06,1.28,1.28,0,0,0-.89,1.56,5.33,5.33,0,0,0,2.7,3.42c.21-2.14-.05-3.92-.7-4.67A1,1,0,0,0,353.88,289.93Zm-20.07-18.62a3.84,3.84,0,0,0-.76.07c-2.32.49-4.57,3.3-4.18,7.55.89,9.66,5.25,10.59,9.46,11.48.81.17,1.6.34,2.36.57a29.36,29.36,0,0,0-1.37-14.18C338,272.73,335.7,271.31,333.81,271.31Z"/><polygon class="cls-2" points="415.16 144.67 414.64 144.67 414.64 139.17 409.34 139.17 409.34 138.65 415.16 138.65 415.16 144.67"/><polygon class="cls-2" points="365.38 187.16 365.21 187.02 322.94 155.02 280.68 187.02 280.37 186.61 322.94 154.37 365.34 186.47 414.72 138.72 415.08 139.1 365.38 187.16"/><rect class="cls-13" x="296.08" y="110.87" width="103.27" height="14.89"/><path class="cls-14" d="M219.61,336c-4.27-8.52-13.34-15.24-19.09-12.81-6.84,2.88-4,22.18-3,29.52,1.48,10.39,12,29.5,10.06,39.31a89,89,0,0,0,5.22,50.18l2.74.43s4.27-44.19,7.31-61.72C225.54,365.58,224.19,345.11,219.61,336Z"/><path class="cls-5" d="M203.78,365.78s13.05-6.14,18.76-4.13c0,0-8.07,7.62-13.09,8.44C206,370.66,203.78,365.78,203.78,365.78Z"/><path class="cls-15" d="M245.49,319.4s5.07-1.93,7.57-1.93a6.9,6.9,0,0,0,3.28-.64c.61-.29,1.28-1.47,1.75-1.19,1,.61-.59,3.34-1,3.86a9,9,0,0,1-5.77,3.13c-1.16.09-6.3.27-6.3.27Z"/><path class="cls-15" d="M247.45,318.88s2.62-1.85,3.59-2.35c1.71-.87,4.24-1.38,4.77-.62.29.42-1.87,1.11-2.25,1.45a6.45,6.45,0,0,1-3,1.91A10.28,10.28,0,0,1,247.45,318.88Z"/><path class="cls-16" d="M202.54,273c5,.75,18.8,22.56,22.37,28.07,6.55,10.11,22.26,16.32,22.26,16.32l0,6.62s-22.77,2.45-34-8.42c-4.71-4.55-7.73-10.92-8.85-24.51C203.75,285,199.7,272.59,202.54,273Z"/><path class="cls-4" d="M210.75,438.47a6,6,0,0,0,3.61.4,10.32,10.32,0,0,0,2.28-.9s1.49,4.62,3.87,5c1.82.29,2.61.32,2.83,1.31.26,1.19-2,1.61-3.84,1.34-3.45-.48-4.18-1.57-6.85-1.88,0,1.22.33,2-.45,2-.61,0-1.39-1.51-1.55-2.59A13.87,13.87,0,0,1,210.75,438.47Z"/><path class="cls-15" d="M203.25,336.84c-4.27-8.52-13.09-17-18.85-14.58-6.83,2.88-10,24.4-6.32,32.56,4.28,9.57,22.64,25.95,18,34.8-9.46,18-5,51.28-5,51.28l4.52.25s16-43.75,15.42-59.65C210.68,371.3,207.83,346,203.25,336.84Z"/><path class="cls-17" d="M206.73,275.53c10.38,14.18,1.53,25.77,11.53,45.21,3.08,6,20.22,22.76,20.22,22.76C228.08,366.19,202,374.66,170,362.8c-7.82-2.9,6.85-38.65,7.56-52.38.79-15.27-3.94-27.58.14-33.7,2.41-3.6,6.79-7.61,15.29-6.77C197.38,270.37,204.15,272,206.73,275.53Z"/><path class="cls-4" d="M189.67,443.17a34.5,34.5,0,0,1,1.09-4,5.73,5.73,0,0,0,5.32,1.34s-.11,5,1.27,6.1,2,.47,2,1.46-3.47,1.19-4.37.38c-1.79-1.6-2.95-2.51-3.7-3.12-.62,1.14-.07,1.9-.9,1.69S189.52,444.55,189.67,443.17Z"/><path class="cls-5" d="M183.24,334.52s6.19-1.63,8.7-4.79c0,0,1.55,8.61-2.57,9.77C186,340.46,183.24,334.52,183.24,334.52Z"/><path class="cls-5" d="M216.74,322.32s.44,1.92,3.4,4.84a1.12,1.12,0,0,1-1.49.9C216.85,327.51,216.74,322.32,216.74,322.32Z"/><path class="cls-5" d="M196.93,271.75c1.58,4.16-11.83,4.05-9.09,0,1.15-1.7,6.22-1.86,8.14-1.13A2.51,2.51,0,0,1,196.93,271.75Z"/><path class="cls-5" d="M176.43,300.17a48.89,48.89,0,0,1,4.29-7.41c.74-2.58,1.27,10.37-3.05,15.48C177.65,307.32,177.83,301.8,176.43,300.17Z"/><path class="cls-15" d="M138.74,296s-3.3-4.29-5.43-5.6a6.82,6.82,0,0,1-2.47-2.25c-.37-.57-.32-1.93-.87-1.93-1.16,0-1.25,3.15-1.13,3.83a8.91,8.91,0,0,0,3.29,5.68c.93.68,5.22,3.53,5.22,3.53Z"/><path class="cls-15" d="M137.35,294.56s-1.26-2.95-1.83-3.88c-1-1.64-2.9-3.39-3.74-3-.48.21,1,1.92,1.16,2.41a6.39,6.39,0,0,0,1.58,3.21A10.22,10.22,0,0,0,137.35,294.56Z"/><path class="cls-18" d="M179.58,275.7c-4.64-2-14.17,14.41-18,16.45-10.6,5.72-24.2,1-24.2,1L134,298.85s17.06,16.77,32.33,13.38c6.4-1.42,15.63-11.66,16.54-21.65C183.44,284.52,182.23,276.83,179.58,275.7Z"/><path class="cls-5" d="M138.52,294.26c4,1.87.07,4,.07,4-.18,3.33-2.89,1.22-2.89,1.22a16,16,0,0,0,1.87-2.67A9,9,0,0,0,138.52,294.26Z"/><path class="cls-19" d="M136.75,299.35c-.2-.15.07-.73.3-.62C137.76,299.07,137,299.52,136.75,299.35Z"/><path class="cls-5" d="M246.36,317.6C242,317,244.48,321,244.48,321c-1.67,2.88,1.75,2.61,1.75,2.61a16.25,16.25,0,0,1-.1-3.27C246.2,318.92,246.36,317.6,246.36,317.6Z"/><path class="cls-19" d="M245.42,322.87c.26,0,.34-.64.09-.67C244.73,322.09,245.12,322.88,245.42,322.87Z"/><path class="cls-5" d="M192.46,278.22c-.21-.15.07-.72.3-.61C193.47,277.94,192.71,278.4,192.46,278.22Z"/><path class="cls-5" d="M192.7,280.41c-.21-.15.07-.73.3-.62C193.71,280.13,193,280.58,192.7,280.41Z"/><path class="cls-5" d="M162.65,241.53c3.29-1.4,6.73-1.07,10.2-.92,1.21,0,2.37.1,2.73-.41,1-1.37,1.27-3.48,2-5,1.79-3.62,4.92-7.27,9.43-6.46a8.16,8.16,0,0,1,5.14,3.48,8,8,0,0,1,.79,1.87,8.07,8.07,0,0,1,4.76-3.94c4.12-1.18,7.48,2,7.34,6.13,0,1.6-.47,3,.28,4.55a10.28,10.28,0,0,0,3.75,3.6c2.94,2,6.05,3.86,7.86,7.06a10.35,10.35,0,0,1,.44,9.82c-1.74,3.3-5.89,5.16-9.5,5.35A9.66,9.66,0,0,1,203,265.5a8,8,0,0,0-2.64.66,12.84,12.84,0,0,1-4.26,1.65c-2.11.33-3.94-.5-6-.55-1.52,0-2.84,1-4.15,1.67a12.79,12.79,0,0,1-5.7,1.69c-3.51,0-6.25-2.05-7.93-5-.57-1-1-2.67-1.9-3.42-.68-.57-1.46-.38-2.38-.29-3.37.32-6.71.47-9.31-2.1C153.06,254.21,155.73,244.46,162.65,241.53Z"/><path class="cls-20" d="M155.65,256c-6.35.7-4.22-8.55-.38-9.27S160.53,255.5,155.65,256Z"/><path class="cls-5" d="M131.38,244.38c5.23,2.47,6.66,2.06,8.34.43,1.53-1.49,4.18-5.05,7.16-5.08,3.94,0,5.45,1.84,6.91,3.06,5.16,4.3,5.48,13.61-.89,16-3.94,1.47-7.32.78-9.48-2.14-2.66-3.58-3.88-.61-7-1.33-7.16-1.63-4.32-9.1-9.94-9.73C121.22,245,126.69,242.16,131.38,244.38Z"/><path class="cls-14" d="M198.67,255.71c-.23-.71-1.08-.73-1.84-.17s-.35,2.68.72,2.58S199.08,256.93,198.67,255.71Z"/><path class="cls-15" d="M195.72,271.75c.29-3.55.2-9.11-.69-10.41-1.27-1.84-7.05-1.73-6.74.86.23,1.89.55,8.6.72,10C189.26,274.2,195.52,274.31,195.72,271.75Z"/><path class="cls-14" d="M188.3,262.28l.18,2c1,2.21,2.39,4,4,3.63a4.24,4.24,0,0,0,3.27-3l-.23-2.57Z"/><path class="cls-5" d="M187.77,260.62l.17,2c1.06,2.2,2.61,4,4.42,3.59a4.63,4.63,0,0,0,3.65-3l-.24-2.58Z"/><path class="cls-15" d="M196.16,248.76c-1.4-1.6-6.1-3.48-8.71-.13-2.14,2.76-2,6.76-1.39,9.74.64,3.2,2.61,7.27,6.42,6.92,4-.37,4.93-3.79,5.15-6.83C197.89,255,198.44,251.36,196.16,248.76Z"/><path class="cls-21" d="M192.24,256.07c-.19-.64-1.37,2.52-.3,3.07.39.2,1.52,0,1.48-.45C193.36,258.09,192.89,258.3,192.24,256.07Z"/><path class="cls-14" d="M186.82,256.64c-.41-1.07-1.31-1.49-1.94-.8s.21,3,1.29,3C186.87,258.86,187.28,257.84,186.82,256.64Z"/><path class="cls-5" d="M198.18,245.78c-3.16-1.24-5.77,1.48-2.78,5.14,1.68,2.05,1.51,4,2.87,4.58C200.86,256.58,203.67,248,198.18,245.78Z"/><path class="cls-5" d="M181.32,253.61c2.8-1.83-.12-4.14,1.58-6.63,1.48-2.17,3.41-2.44,4.47-4.8s2.81-.3,6.72-1.12c3.72-.78,5.75,3.95,3,8.59-1.69,2.88-4.4,4.68-7.08,4.58-3-.12-3.13,2.13-5.32,2.52a9.07,9.07,0,0,1-6.41-1.6A11.61,11.61,0,0,0,181.32,253.61Z"/><path class="cls-5" d="M193.49,254.21c-.18-.16.67-.61,1.26-.47a1.11,1.11,0,0,1,.63.54,1.08,1.08,0,0,0-1.08-.16A1,1,0,0,1,193.49,254.21Z"/><path class="cls-5" d="M194.48,255.4a.37.37,0,0,0-.73.07c0,.21.17.26.37.24S194.5,255.6,194.48,255.4Z"/><path class="cls-5" d="M190.42,255.46a.37.37,0,0,0-.73-.05c0,.2.16.29.37.31S190.41,255.66,190.42,255.46Z"/><path class="cls-5" d="M178.72,302.86l-.43-.29a30.82,30.82,0,0,0,4.47-12.38l.52.06A31.42,31.42,0,0,1,178.72,302.86Z"/><path class="cls-5" d="M181.21,334.19l-.21-.47c.08,0,8.24-3.81,11.5-8.39l.42.3C189.58,330.33,181.55,334,181.21,334.19Z"/><path class="cls-5" d="M194.66,440.94a6.46,6.46,0,0,1-3.32-1l.3-.43a5.89,5.89,0,0,0,3,.93Z"/><path class="cls-5" d="M213.42,439.21a7.78,7.78,0,0,1-2.76-.5l.18-.48a7.53,7.53,0,0,0,4.48.22l.15.49A7.16,7.16,0,0,1,213.42,439.21Z"/><path class="cls-5" d="M212.87,303.42c0-.11,0-11.27-1.6-17.46l.5-.12c1.6,6.24,1.62,17.47,1.62,17.58Z"/><path class="cls-5" d="M207.16,405.77l-.5-.14c0-.15,4.17-14.66,4.15-24.13h.52C211.35,391,207.2,405.62,207.16,405.77Z"/><path class="cls-5" d="M196.46,278.18a4,4,0,0,1-3.75-2.87l.5-.13a3.47,3.47,0,0,0,3.45,2.48,2.34,2.34,0,0,0,2.08-2.44l.52,0c-.16,1.7-1.11,2.79-2.56,2.9Z"/><path class="cls-5" d="M190.06,278a4.09,4.09,0,0,1-3.17-1.66,3.31,3.31,0,0,1-.44-3.43l.47.21a2.82,2.82,0,0,0,.38,2.91,3.47,3.47,0,0,0,3.12,1.43,2.94,2.94,0,0,0,2.33-2.17l.49.18a3.53,3.53,0,0,1-2.74,2.5A3.25,3.25,0,0,1,190.06,278Z"/><path class="cls-22" d="M182.79,254.88a9.62,9.62,0,0,1-5.31-1.77l.31-.41a8.88,8.88,0,0,0,6.22,1.55,3.79,3.79,0,0,0,1.94-1.13,4.26,4.26,0,0,1,3.43-1.39c2.56.09,5.18-1.61,6.85-4.45l.44.26c-1.76,3-4.57,4.81-7.31,4.7a3.74,3.74,0,0,0-3.06,1.27,4.32,4.32,0,0,1-2.2,1.25A7.51,7.51,0,0,1,182.79,254.88Z"/><path class="cls-22" d="M180.9,252.56a9.81,9.81,0,0,1-4.47-1.14l.26-.45a8.88,8.88,0,0,0,6.36.75,3.78,3.78,0,0,0,1.78-1.38,4.33,4.33,0,0,1,3.23-1.82l0,.52a3.76,3.76,0,0,0-2.87,1.64,4.24,4.24,0,0,1-2,1.53A7.68,7.68,0,0,1,180.9,252.56Z"/><path class="cls-5" d="M192.26,261.18a1.54,1.54,0,0,1-.69-.17l.26-.45a.88.88,0,0,0,.82,0l.27.45A1.32,1.32,0,0,1,192.26,261.18Z"/><path class="cls-4" d="M471.77,303.74c8.33-19.57-6-41.8-6-41.8s-3.89,22.23-9,34.34c-2.4,5.68-19.4,18.92-19.9,21.16-.35,1.54,1.82,6.53,3.41,6.93C443,325.07,467.7,313.28,471.77,303.74Z"/><path class="cls-19" d="M474.84,434.57s-.66,3.76-1.37,4.67-1.62,1.41-4.44,2.83c-1,.5-2.32,1.48-.11,1.45,4.57,0,10.19-1.21,10.5-2.56a18.76,18.76,0,0,0-.22-5.1Z"/><path class="cls-19" d="M503.43,439.34a22.62,22.62,0,0,0,.05,3.71c.19,2.34,2.23,4.87,3.64,6.48,1.94,2.22,2.52,1.87,2.4,1s-1-6-1.17-7.19a17.6,17.6,0,0,1,0-4Z"/><path class="cls-5" d="M493,316l-20.56-4.45s-3.11,27.17-3.66,35.76c-.95,14.94.3,45.08,4.39,89.29.29,3.17,8,4.14,8.22.23.36-5.45,5.75-34.47,8.42-63.1C492.39,346.53,493,316,493,316Z"/><path class="cls-5" d="M483.3,313.47s2,31.09,6.55,60.25c4.64,29.68,11.84,62.66,12.35,67.26.22,1.9,7.61,1.71,7.61-.42-.22-52.24,3.36-67.5,1.74-93-.43-6.82-3.51-43.84-3.51-43.84Z"/><path class="cls-23" d="M508.84,313.49c.14,3.44-33.08,5.24-37.07-.33-3.26-4.54,1.25-7.41-6-49.39-1.25-7.3,12.69-12.15,23.19-12.15,10.95,0,26,7.34,28.86,14.38C523.25,279,507.93,289.87,508.84,313.49Z"/><path class="cls-4" d="M496.11,255.53c0,2.25-3.11,4.69-6.84,4.82-5,.18-7.09-2.6-7.09-4.85s3.35-3.3,7.09-3.3S496.11,253.28,496.11,255.53Z"/><path class="cls-14" d="M494.49,240.67c.12.83.17,2,1,2s1.71-.82,2-1.81a1.53,1.53,0,0,0-1.11-1.94C495.55,238.87,494.24,238.94,494.49,240.67Z"/><path class="cls-14" d="M482.42,240.26c.33.87.85,2.12,1.68,2.18s.95-1.37,1-2.21-1.27-2.13-2.1-2.19S481.81,238.63,482.42,240.26Z"/><path class="cls-15" d="M494.43,255c0-3.64.48-12.59.48-12.59l-11.09.43s-.08,10.31,1.08,13C486.29,259.05,494.43,257.54,494.43,255Z"/><path class="cls-15" d="M483.23,239.63c.42,4.46,2.19,8.27,5.57,8.5s6.59-3.23,6.89-7.7-.8-11.49-4.18-11.72S482.36,230.45,483.23,239.63Z"/><path class="cls-5" d="M496.61,239.48c-.08.27-.88.08-1.09-.08-1.63-1.27.27-6.5-1.72-7.16-1-.33-2.43,1.94-4.84,1.73s-2.34-1.86-4-1.29-1.7,6.53-1.82,6.1c-.79-2.83-1.76-4.54-1.57-6.68.07-.8.55-2.93,1.24-3.38s1.49-.57,2.17-1c.85-.54,1.1-1.53,2-1.89s2.59.63,3.64.43a2.79,2.79,0,0,1,1.28-.08c.6.1.87.83.87.83s3.9.06,5,2.09C499.52,232.39,497.48,236.63,496.61,239.48Z"/><path class="cls-5" d="M495.67,242.39c.09-.39-.06-.65-.45-.57s-1,.9-1.81,1.1c-1.15.28-2.8-2-4-2.12-1.86-.12-2.7,1.57-3.77,1.49a2.12,2.12,0,0,1-1.25-.69.52.52,0,0,0-.87.29c-.28,1.56-1.42,6.65,1,7.27,1.83.46,2.14,2.16,4.37,2.75,1.57.42,3.33-.82,4.28-1.19C496.94,249.24,494.54,247.35,495.67,242.39Z"/><path class="cls-21" d="M488.54,236.75c.27-.79,1.95,3.58.77,4.32-.44.27-2.07,0-2.24-.46s-.11-.68.57-1.63A8,8,0,0,0,488.54,236.75Z"/><path class="cls-19" d="M481.3,279.16l-6.57.78s1,7.62,4.39,7.27C481.3,287,481.3,279.16,481.3,279.16Z"/><path class="cls-15" d="M427,321.08c-1.42,1.2,2.81,4.66,6.42,4.49s8.16-3.21,8.16-3.21L439.7,318a12.29,12.29,0,0,1-4.86.62c-1-.13-3.54-.43-3.61.16-.11.86,2.23,1.45,1.55,2C430.8,322.27,427.48,320.66,427,321.08Z"/><path class="cls-5" d="M490.58,236.13c-.34-.31.23-.7,1.3-.46.28.06.79.47.64.65s-.43-.17-1-.1C491.2,236.27,490.78,236.31,490.58,236.13Z"/><path class="cls-5" d="M487.19,235.89c.4-.25-.14-.71-1.28-.63-.3,0-.88.35-.75.55s.47-.11,1,0A1.49,1.49,0,0,0,487.19,235.89Z"/><path class="cls-5" d="M491.81,237a.33.33,0,0,0-.34-.32.32.32,0,0,0-.32.34c0,.18.13.24.31.23S491.82,237.21,491.81,237Z"/><path class="cls-5" d="M486.62,236.73a.32.32,0,0,0-.28-.37.34.34,0,0,0-.38.28c0,.18.13.27.32.3S486.6,236.91,486.62,236.73Z"/><path class="cls-5" d="M488.18,260.79a7.25,7.25,0,0,1-4.44-1.31l.32-.41c2.09,1.61,5.61,1.39,8,.5,2-.77,3.42-2,3.69-3.34l.5.1c-.3,1.53-1.76,2.88-4,3.72A11.67,11.67,0,0,1,488.18,260.79Z"/><path class="cls-5" d="M482.57,258.14a5.24,5.24,0,0,1-.65-2.64h.52a4.66,4.66,0,0,0,.58,2.38Z"/><path class="cls-5" d="M478.73,287.52a2.24,2.24,0,0,1-1.15-.34c-1-.61-2.39-2.35-3.11-7.2l.52-.08c.68,4.62,1.92,6.26,2.84,6.82a1.45,1.45,0,0,0,1.2.24l.18.49A1.41,1.41,0,0,1,478.73,287.52Z"/><path class="cls-5" d="M488.56,313.4a41.74,41.74,0,0,1-15.63-2.83l.19-.48c16,6.46,34-.3,34.16-.37l.19.49A59.45,59.45,0,0,1,488.56,313.4Z"/><path class="cls-22" d="M489.82,366.3c-.05-.3-4.79-30.54-4-47.19l.52,0c-.8,16.6,3.93,46.79,4,47.09Z"/><path class="cls-22" d="M502,435.55c-.09-.55-9.1-55.44-12.21-69.23l.51-.12c3.11,13.81,12.12,68.71,12.21,69.27Z"/><rect class="cls-22" x="469.38" y="321.64" width="8.59" height="0.52" transform="translate(-24.86 603.77) rotate(-63.68)"/><rect class="cls-22" x="505.42" y="317.32" width="0.52" height="8.69" transform="translate(-91.45 270.58) rotate(-27.57)"/><path class="cls-22" d="M486.43,332.36v-.52a1.76,1.76,0,0,0,1.34-.5,3.81,3.81,0,0,0,.72-2.77l.58-7.74.52,0-.59,7.71a4.26,4.26,0,0,1-.86,3.13A2.3,2.3,0,0,1,486.43,332.36Z"/><path class="cls-22" d="M505,439.63a15.12,15.12,0,0,1-2.73-.22l.09-.51a16.16,16.16,0,0,0,7.12-.45l.16.49A15.09,15.09,0,0,1,505,439.63Z"/><path class="cls-22" d="M478.28,437a6.89,6.89,0,0,1-3.84-.93l.3-.42s2,1.39,6,.56l.1.51A12.52,12.52,0,0,1,478.28,437Z"/><path class="cls-5" d="M522.6,337.61a18.36,18.36,0,0,1-7.53-1.71l.24-.46a18.29,18.29,0,0,0,7.29,1.66Z"/><path class="cls-5" d="M468.35,259.7l-.27-.44c4.48-2.71,11.88-4.55,11.95-4.56l.13.5C480.08,255.22,472.76,257,468.35,259.7Z"/><path class="cls-22" d="M481.54,429.16l-.51-.08c0-.26,3.91-26.87,6.14-44.7l.52.07C485.46,402.28,481.58,428.89,481.54,429.16Z"/><path class="cls-22" d="M488,382l-.52-.06c.23-1.85.34-2.64.41-3.13.09-.66.1-.73.21-2.15l.52,0c-.12,1.44-.13,1.51-.22,2.18C488.32,379.4,488.21,380.19,488,382Z"/><path class="cls-24" d="M489.14,243a3.1,3.1,0,0,1-1.24-.29l.22-.47a2,2,0,0,0,1.66.08l.27.44A1.75,1.75,0,0,1,489.14,243Z"/><path class="cls-25" d="M545.16,343.72a10.1,10.1,0,0,1-12.46,7L422.82,319.92l5.5-19.42,109.87,30.76A10.09,10.09,0,0,1,545.16,343.72Z"/><rect class="cls-26" x="400.65" y="287.07" width="11.19" height="35.34" transform="translate(2.43 612.7) rotate(-74.21)"/><path class="cls-4" d="M416.61,321.72l7.36-26a3.81,3.81,0,0,1,7.33,2.07l-7.36,26a3.81,3.81,0,1,1-7.33-2.07Z"/><path class="cls-22" d="M529.81,334.77h-.07l-91.21-25.49a.26.26,0,0,1-.18-.32.26.26,0,0,1,.31-.18l91.22,25.49a.26.26,0,0,1,.18.32A.28.28,0,0,1,529.81,334.77Z"/><path class="cls-27" d="M350.35,211.74a74.28,74.28,0,1,0,51.26,91.69A74.27,74.27,0,0,0,350.35,211.74Zm38.1,67.82a58.43,58.43,0,1,1-62-54.67A58.42,58.42,0,0,1,388.45,279.56Z"/><circle class="cls-28" cx="330.13" cy="283.21" r="58.44" transform="translate(-103.57 316.39) rotate(-45)"/><path class="cls-5" d="M330.08,332.77a49.55,49.55,0,0,1-3.06-99A49,49,0,0,1,350.26,238l-.22.48a48.22,48.22,0,0,0-23-4.2,49,49,0,0,0,3,98c1,0,2.06,0,3.1-.09a49,49,0,0,0,45.88-52l.51,0a49.55,49.55,0,0,1-46.36,52.55C332.16,332.74,331.12,332.77,330.08,332.77Z"/><path class="cls-15" d="M475.13,334.2c-1.07.77,3,3,6.53,2.41s7.75-4.12,7.75-4.12l-2.36-4.17a12.15,12.15,0,0,1-4.76,1.16c-1,0-3.56,0-3.57.58,0,.86,2.39,1.18,1.78,1.79C478.7,333.62,475.67,333.81,475.13,334.2Z"/><path class="cls-4" d="M518.9,307.34a72.24,72.24,0,0,0,2.83-29.69c-.42-4-2.72-14.32-6.54-13.27-4.92,2.22-9.51,22.88-9.74,35.87-.23,13.5-20.87,25.89-20.16,28.07.49,1.5,3.66,6.43,5.23,6C493.29,333.45,515.18,319,518.9,307.34Z"/><path class="cls-5" d="M505.65,293.23c0-.14-.16-14.26,6.1-25.64l.45.25c-6.19,11.26-6,25.24-6,25.38Z"/><path class="cls-5" d="M469.9,299.34c-2-15-2.76-24.85-2.77-24.94l.52,0c0,.1.79,10,2.76,24.93Z"/></svg>