<svg id="Layer_1" data-name="Layer 1" xmlns="http://www.w3.org/2000/svg" xmlns:xlink="http://www.w3.org/1999/xlink" viewBox="0 0 714 486"><defs><style>.cls-1{mask:url(#mask);filter:url(#luminosity-noclip-12);}.cls-10,.cls-12,.cls-14,.cls-16,.cls-18,.cls-2,.cls-20,.cls-22,.cls-4,.cls-6,.cls-8{mix-blend-mode:multiply;}.cls-2{fill:url(#Безымянный_градиент_2);}.cls-3{mask:url(#mask-2);filter:url(#luminosity-noclip-17);}.cls-4{fill:url(#Безымянный_градиент_2-2);}.cls-5{mask:url(#mask-3);filter:url(#luminosity-noclip-18);}.cls-6{fill:url(#Безымянный_градиент_2-3);}.cls-7{mask:url(#mask-4);filter:url(#luminosity-noclip-19);}.cls-8{fill:url(#Безымянный_градиент_2-4);}.cls-9{mask:url(#mask-5);filter:url(#luminosity-noclip-20);}.cls-10{fill:url(#Безымянный_градиент_2-5);}.cls-11{mask:url(#mask-6);filter:url(#luminosity-noclip-21);}.cls-12{fill:url(#Безымянный_градиент_2-6);}.cls-13{mask:url(#mask-7);filter:url(#luminosity-noclip-13);}.cls-14{fill:url(#Безымянный_градиент_2-7);}.cls-15{mask:url(#mask-8);filter:url(#luminosity-noclip-22);}.cls-16{fill:url(#Безымянный_градиент_2-8);}.cls-17{mask:url(#mask-9);filter:url(#luminosity-noclip-14);}.cls-18{fill:url(#Безымянный_градиент_2-9);}.cls-19{mask:url(#mask-10);filter:url(#luminosity-noclip-15);}.cls-20{fill:url(#Безымянный_градиент_2-10);}.cls-21{mask:url(#mask-11);filter:url(#luminosity-noclip-16);}.cls-22{fill:url(#Безымянный_градиент_2-11);}.cls-23,.cls-71{opacity:0.5;}.cls-24{mask:url(#mask-12);}.cls-25{fill:url(#Безымянный_градиент_69);}.cls-26{mask:url(#mask-13);}.cls-27{fill:url(#Безымянный_градиент_69-2);}.cls-28{mask:url(#mask-14);}.cls-29{fill:url(#Безымянный_градиент_69-3);}.cls-30{mask:url(#mask-15);}.cls-31{fill:url(#Безымянный_градиент_69-4);}.cls-32{mask:url(#mask-16);}.cls-33{fill:url(#Безымянный_градиент_69-5);}.cls-34{mask:url(#mask-17);}.cls-35{fill:url(#Безымянный_градиент_69-6);}.cls-36{mask:url(#mask-18);}.cls-37{fill:url(#Безымянный_градиент_69-7);}.cls-38{mask:url(#mask-19);}.cls-39{fill:url(#Безымянный_градиент_69-8);}.cls-40{mask:url(#mask-20);}.cls-41{fill:url(#Безымянный_градиент_69-9);}.cls-42{mask:url(#mask-21);}.cls-43{fill:url(#Безымянный_градиент_69-10);}.cls-44{mask:url(#mask-22);}.cls-45{fill:url(#Безымянный_градиент_69-11);}.cls-46{fill:#1f2959;}.cls-47{fill:#2f3c7a;}.cls-48,.cls-71{fill:#fff;}.cls-49{fill:url(#Безымянный_градиент_318);}.cls-50{fill:#c7c6c5;}.cls-51{fill:url(#Безымянный_градиент_38);}.cls-52{fill:url(#Безымянный_градиент_38-2);}.cls-53{fill:url(#Безымянный_градиент_38-3);}.cls-54{fill:url(#Безымянный_градиент_38-4);}.cls-55{fill:url(#Безымянный_градиент_38-5);}.cls-56{fill:#82b5e0;}.cls-57{fill:url(#Безымянный_градиент_346);}.cls-58{fill:#5894cf;}.cls-59{fill:#354ea1;}.cls-60{fill:url(#Безымянный_градиент_161);}.cls-61{fill:url(#Безымянный_градиент_300);}.cls-62{fill:url(#Безымянный_градиент_296);}.cls-63{fill:url(#Безымянный_градиент_300-2);}.cls-64{fill:url(#Безымянный_градиент_6);}.cls-65{fill:url(#Безымянный_градиент_159);}.cls-66{fill:#be8286;}.cls-67{fill:#f9b9be;}.cls-68{fill:#d6969b;}.cls-69{fill:url(#Безымянный_градиент_11);}.cls-70{fill:url(#Безымянный_градиент_64);}.cls-72{fill:#dbdada;}.cls-73{fill:#f06495;}.cls-74{fill:#6dc7b8;}.cls-75{fill:#3863ae;}.cls-76{fill:#c0e6e8;}.cls-77{fill:url(#Безымянный_градиент_259);}.cls-78{fill:url(#Безымянный_градиент_118);}.cls-79{fill:url(#Безымянный_градиент_259-2);}.cls-80{fill:url(#Безымянный_градиент_159-2);}.cls-81{fill:url(#Безымянный_градиент_19);}.cls-82{fill:url(#Безымянный_градиент_89);}.cls-83{fill:url(#Безымянный_градиент_170);}.cls-84{filter:url(#luminosity-noclip-11);}.cls-85{filter:url(#luminosity-noclip-10);}.cls-86{filter:url(#luminosity-noclip-9);}.cls-87{filter:url(#luminosity-noclip-8);}.cls-88{filter:url(#luminosity-noclip-7);}.cls-89{filter:url(#luminosity-noclip-6);}.cls-90{filter:url(#luminosity-noclip-5);}.cls-91{filter:url(#luminosity-noclip-4);}.cls-92{filter:url(#luminosity-noclip-3);}.cls-93{filter:url(#luminosity-noclip-2);}.cls-94{filter:url(#luminosity-noclip);}</style><filter id="luminosity-noclip" x="484.1" y="-8435" width="20.67" height="32766" filterUnits="userSpaceOnUse" color-interpolation-filters="sRGB"><feFlood flood-color="#fff" result="bg"/><feBlend in="SourceGraphic" in2="bg"/></filter><mask id="mask" x="484.1" y="-8435" width="20.67" height="32766" maskUnits="userSpaceOnUse"><g class="cls-94"/></mask><linearGradient id="Безымянный_градиент_2" x1="216.99" y1="410.33" x2="492.98" y2="410.33" gradientTransform="translate(988.87 820.65) rotate(-180)" gradientUnits="userSpaceOnUse"><stop offset="0" stop-color="#fff"/><stop offset="1" stop-color="#4d4d4d"/></linearGradient><filter id="luminosity-noclip-2" x="344.68" y="-8435" width="20.67" height="32766" filterUnits="userSpaceOnUse" color-interpolation-filters="sRGB"><feFlood flood-color="#fff" result="bg"/><feBlend in="SourceGraphic" in2="bg"/></filter><mask id="mask-2" x="344.68" y="-8435" width="20.67" height="32766" maskUnits="userSpaceOnUse"><g class="cls-93"/></mask><linearGradient id="Безымянный_градиент_2-2" x1="216.99" y1="433.65" x2="492.98" y2="433.65" gradientTransform="translate(710.03 867.31) rotate(-180)" xlink:href="#Безымянный_градиент_2"/><filter id="luminosity-noclip-3" x="316.8" y="-8435" width="20.67" height="32766" filterUnits="userSpaceOnUse" color-interpolation-filters="sRGB"><feFlood flood-color="#fff" result="bg"/><feBlend in="SourceGraphic" in2="bg"/></filter><mask id="mask-3" x="316.8" y="-8435" width="20.67" height="32766" maskUnits="userSpaceOnUse"><g class="cls-92"/></mask><linearGradient id="Безымянный_градиент_2-3" x1="216.99" y1="430.04" x2="492.98" y2="430.04" gradientTransform="translate(654.26 860.07) rotate(-180)" xlink:href="#Безымянный_градиент_2"/><filter id="luminosity-noclip-4" x="288.91" y="-8435" width="20.67" height="32766" filterUnits="userSpaceOnUse" color-interpolation-filters="sRGB"><feFlood flood-color="#fff" result="bg"/><feBlend in="SourceGraphic" in2="bg"/></filter><mask id="mask-4" x="288.91" y="-8435" width="20.67" height="32766" maskUnits="userSpaceOnUse"><g class="cls-91"/></mask><linearGradient id="Безымянный_градиент_2-4" x1="216.99" y1="423.89" x2="492.98" y2="423.89" gradientTransform="translate(598.49 847.77) rotate(-180)" xlink:href="#Безымянный_градиент_2"/><filter id="luminosity-noclip-5" x="261.03" y="-8435" width="20.67" height="32766" filterUnits="userSpaceOnUse" color-interpolation-filters="sRGB"><feFlood flood-color="#fff" result="bg"/><feBlend in="SourceGraphic" in2="bg"/></filter><mask id="mask-5" x="261.03" y="-8435" width="20.67" height="32766" maskUnits="userSpaceOnUse"><g class="cls-90"/></mask><linearGradient id="Безымянный_градиент_2-5" x1="216.99" y1="428.54" x2="492.98" y2="428.54" gradientTransform="translate(542.73 857.08) rotate(-180)" xlink:href="#Безымянный_градиент_2"/><filter id="luminosity-noclip-6" x="233.15" y="-8435" width="20.67" height="32766" filterUnits="userSpaceOnUse" color-interpolation-filters="sRGB"><feFlood flood-color="#fff" result="bg"/><feBlend in="SourceGraphic" in2="bg"/></filter><mask id="mask-6" x="233.15" y="-8435" width="20.67" height="32766" maskUnits="userSpaceOnUse"><g class="cls-89"/></mask><linearGradient id="Безымянный_градиент_2-6" x1="216.99" y1="433.71" x2="492.98" y2="433.71" gradientTransform="translate(486.96 867.42) rotate(-180)" xlink:href="#Безымянный_градиент_2"/><filter id="luminosity-noclip-7" x="456.22" y="-8435" width="20.67" height="32766" filterUnits="userSpaceOnUse" color-interpolation-filters="sRGB"><feFlood flood-color="#fff" result="bg"/><feBlend in="SourceGraphic" in2="bg"/></filter><mask id="mask-7" x="456.22" y="-8435" width="20.67" height="32766" maskUnits="userSpaceOnUse"><g class="cls-88"/></mask><linearGradient id="Безымянный_градиент_2-7" x1="216.99" y1="419.43" x2="492.98" y2="419.43" gradientTransform="translate(933.1 838.86) rotate(-180)" xlink:href="#Безымянный_градиент_2"/><filter id="luminosity-noclip-8" x="205.26" y="-8435" width="20.67" height="32766" filterUnits="userSpaceOnUse" color-interpolation-filters="sRGB"><feFlood flood-color="#fff" result="bg"/><feBlend in="SourceGraphic" in2="bg"/></filter><mask id="mask-8" x="205.26" y="-8435" width="20.67" height="32766" maskUnits="userSpaceOnUse"><g class="cls-87"/></mask><linearGradient id="Безымянный_градиент_2-8" x1="216.99" y1="436.03" x2="492.98" y2="436.03" gradientTransform="translate(431.19 872.07) rotate(-180)" xlink:href="#Безымянный_градиент_2"/><filter id="luminosity-noclip-9" x="428.33" y="-8435" width="20.67" height="32766" filterUnits="userSpaceOnUse" color-interpolation-filters="sRGB"><feFlood flood-color="#fff" result="bg"/><feBlend in="SourceGraphic" in2="bg"/></filter><mask id="mask-9" x="428.33" y="-8435" width="20.67" height="32766" maskUnits="userSpaceOnUse"><g class="cls-86"/></mask><linearGradient id="Безымянный_градиент_2-9" x1="216.99" y1="416.56" x2="492.98" y2="416.56" gradientTransform="translate(877.33 833.13) rotate(-180)" xlink:href="#Безымянный_градиент_2"/><filter id="luminosity-noclip-10" x="400.45" y="-8435" width="20.67" height="32766" filterUnits="userSpaceOnUse" color-interpolation-filters="sRGB"><feFlood flood-color="#fff" result="bg"/><feBlend in="SourceGraphic" in2="bg"/></filter><mask id="mask-10" x="400.45" y="-8435" width="20.67" height="32766" maskUnits="userSpaceOnUse"><g class="cls-85"/></mask><linearGradient id="Безымянный_градиент_2-10" x1="216.99" y1="423.05" x2="492.98" y2="423.05" gradientTransform="translate(821.57 846.1) rotate(-180)" xlink:href="#Безымянный_градиент_2"/><filter id="luminosity-noclip-11" x="372.57" y="-8435" width="20.67" height="32766" filterUnits="userSpaceOnUse" color-interpolation-filters="sRGB"><feFlood flood-color="#fff" result="bg"/><feBlend in="SourceGraphic" in2="bg"/></filter><mask id="mask-11" x="372.57" y="-8435" width="20.67" height="32766" maskUnits="userSpaceOnUse"><g class="cls-84"/></mask><linearGradient id="Безымянный_градиент_2-11" x1="216.99" y1="427.54" x2="492.98" y2="427.54" gradientTransform="translate(765.8 855.08) rotate(-180)" xlink:href="#Безымянный_градиент_2"/><filter id="luminosity-noclip-12" x="484.1" y="374.9" width="20.67" height="70.86" filterUnits="userSpaceOnUse" color-interpolation-filters="sRGB"><feFlood flood-color="#fff" result="bg"/><feBlend in="SourceGraphic" in2="bg"/></filter><mask id="mask-12" x="484.1" y="374.9" width="20.67" height="70.86" maskUnits="userSpaceOnUse"><g class="cls-1"><rect class="cls-2" x="484.1" y="374.9" width="20.67" height="70.86" rx="4.12" ry="4.12" transform="translate(988.87 820.65) rotate(180)"/></g></mask><linearGradient id="Безымянный_градиент_69" x1="216.99" y1="410.33" x2="492.98" y2="410.33" gradientTransform="translate(988.87 820.65) rotate(-180)" gradientUnits="userSpaceOnUse"><stop offset="0" stop-color="#f06495"/><stop offset="1" stop-color="#5492ce"/></linearGradient><filter id="luminosity-noclip-13" x="456.22" y="393.11" width="20.67" height="52.64" filterUnits="userSpaceOnUse" color-interpolation-filters="sRGB"><feFlood flood-color="#fff" result="bg"/><feBlend in="SourceGraphic" in2="bg"/></filter><mask id="mask-13" x="456.22" y="393.11" width="20.67" height="52.64" maskUnits="userSpaceOnUse"><g class="cls-13"><rect class="cls-14" x="456.22" y="393.11" width="20.67" height="52.64" rx="4.12" ry="4.12" transform="translate(933.1 838.86) rotate(180)"/></g></mask><linearGradient id="Безымянный_градиент_69-2" x1="216.99" y1="419.43" x2="492.98" y2="419.43" gradientTransform="translate(933.1 838.86) rotate(-180)" xlink:href="#Безымянный_градиент_69"/><filter id="luminosity-noclip-14" x="428.33" y="387.37" width="20.67" height="58.38" filterUnits="userSpaceOnUse" color-interpolation-filters="sRGB"><feFlood flood-color="#fff" result="bg"/><feBlend in="SourceGraphic" in2="bg"/></filter><mask id="mask-14" x="428.33" y="387.37" width="20.67" height="58.38" maskUnits="userSpaceOnUse"><g class="cls-17"><rect class="cls-18" x="428.33" y="387.37" width="20.67" height="58.38" rx="4.12" ry="4.12" transform="translate(877.33 833.13) rotate(180)"/></g></mask><linearGradient id="Безымянный_градиент_69-3" x1="216.99" y1="416.56" x2="492.98" y2="416.56" gradientTransform="translate(877.33 833.13) rotate(-180)" xlink:href="#Безымянный_градиент_69"/><filter id="luminosity-noclip-15" x="400.45" y="400.35" width="20.67" height="45.41" filterUnits="userSpaceOnUse" color-interpolation-filters="sRGB"><feFlood flood-color="#fff" result="bg"/><feBlend in="SourceGraphic" in2="bg"/></filter><mask id="mask-15" x="400.45" y="400.35" width="20.67" height="45.41" maskUnits="userSpaceOnUse"><g class="cls-19"><rect class="cls-20" x="400.45" y="400.35" width="20.67" height="45.41" rx="4.12" ry="4.12" transform="translate(821.57 846.1) rotate(180)"/></g></mask><linearGradient id="Безымянный_градиент_69-4" x1="216.99" y1="423.05" x2="492.98" y2="423.05" gradientTransform="translate(821.57 846.1) rotate(-180)" xlink:href="#Безымянный_градиент_69"/><filter id="luminosity-noclip-16" x="372.57" y="409.33" width="20.67" height="36.43" filterUnits="userSpaceOnUse" color-interpolation-filters="sRGB"><feFlood flood-color="#fff" result="bg"/><feBlend in="SourceGraphic" in2="bg"/></filter><mask id="mask-16" x="372.57" y="409.33" width="20.67" height="36.43" maskUnits="userSpaceOnUse"><g class="cls-21"><rect class="cls-22" x="372.57" y="409.33" width="20.67" height="36.43" rx="4.12" ry="4.12" transform="translate(765.8 855.08) rotate(180)"/></g></mask><linearGradient id="Безымянный_градиент_69-5" x1="216.99" y1="427.54" x2="492.98" y2="427.54" gradientTransform="translate(765.8 855.08) rotate(-180)" xlink:href="#Безымянный_градиент_69"/><filter id="luminosity-noclip-17" x="344.68" y="421.55" width="20.67" height="24.2" filterUnits="userSpaceOnUse" color-interpolation-filters="sRGB"><feFlood flood-color="#fff" result="bg"/><feBlend in="SourceGraphic" in2="bg"/></filter><mask id="mask-17" x="344.68" y="421.55" width="20.67" height="24.2" maskUnits="userSpaceOnUse"><g class="cls-3"><rect class="cls-4" x="344.68" y="421.55" width="20.67" height="24.2" rx="4.12" ry="4.12" transform="translate(710.03 867.31) rotate(180)"/></g></mask><linearGradient id="Безымянный_градиент_69-6" x1="216.99" y1="433.65" x2="492.98" y2="433.65" gradientTransform="translate(710.03 867.31) rotate(-180)" xlink:href="#Безымянный_градиент_69"/><filter id="luminosity-noclip-18" x="316.8" y="414.32" width="20.67" height="31.44" filterUnits="userSpaceOnUse" color-interpolation-filters="sRGB"><feFlood flood-color="#fff" result="bg"/><feBlend in="SourceGraphic" in2="bg"/></filter><mask id="mask-18" x="316.8" y="414.32" width="20.67" height="31.44" maskUnits="userSpaceOnUse"><g class="cls-5"><rect class="cls-6" x="316.8" y="414.32" width="20.67" height="31.44" rx="4.12" ry="4.12" transform="translate(654.26 860.07) rotate(180)"/></g></mask><linearGradient id="Безымянный_градиент_69-7" x1="216.99" y1="430.04" x2="492.98" y2="430.04" gradientTransform="translate(654.26 860.07) rotate(-180)" xlink:href="#Безымянный_градиент_69"/><filter id="luminosity-noclip-19" x="288.91" y="402.02" width="20.67" height="43.74" filterUnits="userSpaceOnUse" color-interpolation-filters="sRGB"><feFlood flood-color="#fff" result="bg"/><feBlend in="SourceGraphic" in2="bg"/></filter><mask id="mask-19" x="288.91" y="402.02" width="20.67" height="43.74" maskUnits="userSpaceOnUse"><g class="cls-7"><rect class="cls-8" x="288.91" y="402.02" width="20.67" height="43.74" rx="4.12" ry="4.12" transform="translate(598.49 847.77) rotate(180)"/></g></mask><linearGradient id="Безымянный_градиент_69-8" x1="216.99" y1="423.89" x2="492.98" y2="423.89" gradientTransform="translate(598.49 847.77) rotate(-180)" xlink:href="#Безымянный_градиент_69"/><filter id="luminosity-noclip-20" x="261.03" y="411.32" width="20.67" height="34.43" filterUnits="userSpaceOnUse" color-interpolation-filters="sRGB"><feFlood flood-color="#fff" result="bg"/><feBlend in="SourceGraphic" in2="bg"/></filter><mask id="mask-20" x="261.03" y="411.32" width="20.67" height="34.43" maskUnits="userSpaceOnUse"><g class="cls-9"><rect class="cls-10" x="261.03" y="411.32" width="20.67" height="34.43" rx="4.12" ry="4.12" transform="translate(542.73 857.08) rotate(180)"/></g></mask><linearGradient id="Безымянный_градиент_69-9" x1="216.99" y1="428.54" x2="492.98" y2="428.54" gradientTransform="translate(542.73 857.08) rotate(-180)" xlink:href="#Безымянный_градиент_69"/><filter id="luminosity-noclip-21" x="233.15" y="421.66" width="20.67" height="24.09" filterUnits="userSpaceOnUse" color-interpolation-filters="sRGB"><feFlood flood-color="#fff" result="bg"/><feBlend in="SourceGraphic" in2="bg"/></filter><mask id="mask-21" x="233.15" y="421.66" width="20.67" height="24.09" maskUnits="userSpaceOnUse"><g class="cls-11"><rect class="cls-12" x="233.15" y="421.66" width="20.67" height="24.09" rx="4.12" ry="4.12" transform="translate(486.96 867.42) rotate(180)"/></g></mask><linearGradient id="Безымянный_градиент_69-10" x1="216.99" y1="433.71" x2="492.98" y2="433.71" gradientTransform="translate(486.96 867.42) rotate(-180)" xlink:href="#Безымянный_градиент_69"/><filter id="luminosity-noclip-22" x="205.26" y="426.32" width="20.67" height="19.44" filterUnits="userSpaceOnUse" color-interpolation-filters="sRGB"><feFlood flood-color="#fff" result="bg"/><feBlend in="SourceGraphic" in2="bg"/></filter><mask id="mask-22" x="205.26" y="426.32" width="20.67" height="19.44" maskUnits="userSpaceOnUse"><g class="cls-15"><rect class="cls-16" x="205.26" y="426.32" width="20.67" height="19.44" rx="4.12" ry="4.12" transform="translate(431.19 872.07) rotate(180)"/></g></mask><linearGradient id="Безымянный_градиент_69-11" x1="216.99" y1="436.03" x2="492.98" y2="436.03" gradientTransform="translate(431.19 872.07) rotate(-180)" xlink:href="#Безымянный_градиент_69"/><linearGradient id="Безымянный_градиент_318" x1="307.3" y1="201.12" x2="368.27" y2="326.44" gradientUnits="userSpaceOnUse"><stop offset="0" stop-color="#a3dad5"/><stop offset="1" stop-color="#9ac6ea"/></linearGradient><linearGradient id="Безымянный_градиент_38" x1="500.41" y1="226.22" x2="520.55" y2="339.6" gradientUnits="userSpaceOnUse"><stop offset="0" stop-color="#b7d8f2"/><stop offset="1" stop-color="#9ac6ea"/></linearGradient><linearGradient id="Безымянный_градиент_38-2" x1="494.22" y1="227.32" x2="514.36" y2="340.7" xlink:href="#Безымянный_градиент_38"/><linearGradient id="Безымянный_градиент_38-3" x1="488.02" y1="228.42" x2="508.16" y2="341.8" xlink:href="#Безымянный_градиент_38"/><linearGradient id="Безымянный_градиент_38-4" x1="481.83" y1="229.52" x2="501.97" y2="342.9" xlink:href="#Безымянный_градиент_38"/><linearGradient id="Безымянный_градиент_38-5" x1="475.81" y1="230.59" x2="495.95" y2="343.96" xlink:href="#Безымянный_градиент_38"/><linearGradient id="Безымянный_градиент_346" x1="395.48" y1="441.99" x2="383.17" y2="392.02" gradientUnits="userSpaceOnUse"><stop offset="0.01" stop-color="#2f3c7a"/><stop offset="1" stop-color="#4e5ca2"/></linearGradient><linearGradient id="Безымянный_градиент_161" x1="182.99" y1="270.44" x2="279.66" y2="270.44" gradientUnits="userSpaceOnUse"><stop offset="0" stop-color="#d6969b"/><stop offset="0.99" stop-color="#f9b9be"/></linearGradient><linearGradient id="Безымянный_градиент_300" x1="325.73" y1="228.57" x2="395.95" y2="320.67" gradientUnits="userSpaceOnUse"><stop offset="0" stop-color="#5894cf"/><stop offset="1" stop-color="#354ea1"/></linearGradient><linearGradient id="Безымянный_градиент_296" x1="377.93" y1="239.56" x2="395.45" y2="336.9" gradientUnits="userSpaceOnUse"><stop offset="0" stop-color="#354ea1"/><stop offset="0.99" stop-color="#263c8a"/></linearGradient><linearGradient id="Безымянный_градиент_300-2" x1="366.35" y1="181" x2="464.19" y2="311.45" xlink:href="#Безымянный_градиент_300"/><linearGradient id="Безымянный_градиент_6" x1="355.84" y1="272.33" x2="437.3" y2="295.87" gradientUnits="userSpaceOnUse"><stop offset="0" stop-color="#f9b9be"/><stop offset="0.99" stop-color="#f9b9be"/></linearGradient><linearGradient id="Безымянный_градиент_159" x1="349.08" y1="186.66" x2="384.81" y2="186.66" gradientUnits="userSpaceOnUse"><stop offset="0.01" stop-color="#f9b9be"/><stop offset="0.34" stop-color="#f5b5ba"/><stop offset="0.68" stop-color="#e8a8ad"/><stop offset="1" stop-color="#d6969b"/></linearGradient><linearGradient id="Безымянный_градиент_11" x1="328.45" y1="263.11" x2="429.76" y2="300.27" gradientUnits="userSpaceOnUse"><stop offset="0" stop-color="#f9b9be"/><stop offset="0.99" stop-color="#d6969b"/></linearGradient><linearGradient id="Безымянный_градиент_64" x1="6333.4" y1="104.85" x2="6595.57" y2="104.85" gradientTransform="matrix(-1, 0, 0.02, 1, 7019.67, 0)" gradientUnits="userSpaceOnUse"><stop offset="0" stop-color="#8cbce5"/><stop offset="0.25" stop-color="#96c8d9"/><stop offset="0.63" stop-color="#a1d4cc"/><stop offset="1" stop-color="#a4d8c8"/></linearGradient><linearGradient id="Безымянный_градиент_259" x1="7285.5" y1="343.46" x2="7368.96" y2="421.98" gradientTransform="matrix(-1, 0, 0, 1, 7456.87, 0)" gradientUnits="userSpaceOnUse"><stop offset="0" stop-color="#c0e6e8"/><stop offset="1" stop-color="#8eb8e2"/></linearGradient><linearGradient id="Безымянный_градиент_118" x1="7339.37" y1="342.31" x2="7356.9" y2="439.65" gradientTransform="matrix(-1, 0, 0, 1, 7456.87, 0)" gradientUnits="userSpaceOnUse"><stop offset="0" stop-color="#82b5e0"/><stop offset="0.39" stop-color="#7fb3df"/><stop offset="0.63" stop-color="#77addc"/><stop offset="0.82" stop-color="#69a2d6"/><stop offset="0.99" stop-color="#5593ce"/><stop offset="1" stop-color="#5492ce"/></linearGradient><linearGradient id="Безымянный_градиент_259-2" x1="120.81" y1="289.76" x2="52.93" y2="386.73" gradientTransform="matrix(1, 0, 0, 1, 0, 0)" xlink:href="#Безымянный_градиент_259"/><linearGradient id="Безымянный_градиент_159-2" x1="7310.52" y1="289.41" x2="7346.25" y2="289.41" gradientTransform="matrix(-1, 0, 0, 1, 7456.87, 0)" xlink:href="#Безымянный_градиент_159"/><linearGradient id="Безымянный_градиент_19" x1="-1107.66" y1="2838.63" x2="-1010.99" y2="2838.63" gradientTransform="matrix(0.54, 0.8, 0.79, -0.59, -1487.09, 2894.53)" gradientUnits="userSpaceOnUse"><stop offset="0" stop-color="#bf8a93"/><stop offset="1" stop-color="#fac6cf"/></linearGradient><linearGradient id="Безымянный_градиент_89" x1="59.56" y1="380.41" x2="129.54" y2="400.64" gradientUnits="userSpaceOnUse"><stop offset="0.01" stop-color="#f9b9be"/><stop offset="1" stop-color="#be8286"/></linearGradient><linearGradient id="Безымянный_градиент_170" x1="7294.43" y1="332.59" x2="7365.6" y2="332.59" gradientTransform="matrix(-1, 0.01, 0.01, 1, 7414.29, -36.76)" gradientUnits="userSpaceOnUse"><stop offset="0" stop-color="#be8286"/><stop offset="0.99" stop-color="#d6969b"/></linearGradient></defs><title>video_insights</title><g class="cls-23"><g class="cls-24"><rect class="cls-25" x="484.1" y="374.9" width="20.67" height="70.86" rx="4.12" ry="4.12" transform="translate(988.87 820.65) rotate(180)"/></g><g class="cls-26"><rect class="cls-27" x="456.22" y="393.11" width="20.67" height="52.64" rx="4.12" ry="4.12" transform="translate(933.1 838.86) rotate(180)"/></g><g class="cls-28"><rect class="cls-29" x="428.33" y="387.37" width="20.67" height="58.38" rx="4.12" ry="4.12" transform="translate(877.33 833.13) rotate(180)"/></g><g class="cls-30"><rect class="cls-31" x="400.45" y="400.35" width="20.67" height="45.41" rx="4.12" ry="4.12" transform="translate(821.57 846.1) rotate(180)"/></g><g class="cls-32"><rect class="cls-33" x="372.57" y="409.33" width="20.67" height="36.43" rx="4.12" ry="4.12" transform="translate(765.8 855.08) rotate(180)"/></g><g class="cls-34"><rect class="cls-35" x="344.68" y="421.55" width="20.67" height="24.2" rx="4.12" ry="4.12" transform="translate(710.03 867.31) rotate(180)"/></g><g class="cls-36"><rect class="cls-37" x="316.8" y="414.32" width="20.67" height="31.44" rx="4.12" ry="4.12" transform="translate(654.26 860.07) rotate(180)"/></g><g class="cls-38"><rect class="cls-39" x="288.91" y="402.02" width="20.67" height="43.74" rx="4.12" ry="4.12" transform="translate(598.49 847.77) rotate(180)"/></g><g class="cls-40"><rect class="cls-41" x="261.03" y="411.32" width="20.67" height="34.43" rx="4.12" ry="4.12" transform="translate(542.73 857.08) rotate(180)"/></g><g class="cls-42"><rect class="cls-43" x="233.15" y="421.66" width="20.67" height="24.09" rx="4.12" ry="4.12" transform="translate(486.96 867.42) rotate(180)"/></g><g class="cls-44"><rect class="cls-45" x="205.26" y="426.32" width="20.67" height="19.44" rx="4.12" ry="4.12" transform="translate(431.19 872.07) rotate(180)"/></g></g><rect class="cls-46" x="210.9" y="178.77" width="334.9" height="212.39" rx="6.7" ry="6.7"/><rect class="cls-47" x="206.24" y="178.77" width="334.9" height="212.39" rx="6.7" ry="6.7"/><rect class="cls-48" x="210.9" y="183.43" width="325.58" height="203.07" rx="2.85" ry="2.85"/><rect class="cls-49" x="224.7" y="209.34" width="238.22" height="133.66"/><rect class="cls-50" x="224.7" y="351.4" width="195.22" height="4.8"/><rect class="cls-50" x="224.7" y="359.63" width="44.13" height="4.8"/><rect class="cls-50" x="429.19" y="359.63" width="33.74" height="4.8"/><rect class="cls-51" x="476.73" y="209.34" width="45.93" height="25.77"/><path class="cls-48" d="M498.93,223.4v-2.35l2,1.18Zm4-3.27h-6.5a.46.46,0,0,0-.47.46v3.27a.47.47,0,0,0,.47.47H503a.47.47,0,0,0,.47-.47v-3.27A.46.46,0,0,0,503,220.13Z"/><rect class="cls-52" x="476.73" y="245.3" width="45.93" height="25.77"/><path class="cls-48" d="M498.93,259.37V257l2,1.18Zm4-3.28h-6.5a.47.47,0,0,0-.47.46v3.28a.47.47,0,0,0,.47.46H503a.47.47,0,0,0,.47-.46v-3.28A.47.47,0,0,0,503,256.09Z"/><rect class="cls-53" x="476.73" y="281.27" width="45.93" height="25.77"/><path class="cls-48" d="M498.93,295.33V293l2,1.17Zm4-3.28h-6.5a.47.47,0,0,0-.47.47v3.27a.47.47,0,0,0,.47.47H503a.47.47,0,0,0,.47-.47v-3.27A.47.47,0,0,0,503,292.05Z"/><rect class="cls-54" x="476.73" y="317.23" width="45.93" height="25.77"/><path class="cls-48" d="M498.93,331.29v-2.35l2,1.18Zm4-3.27h-6.5a.46.46,0,0,0-.47.46v3.27a.47.47,0,0,0,.47.47H503a.47.47,0,0,0,.47-.47v-3.27A.46.46,0,0,0,503,328Z"/><rect class="cls-55" x="476.73" y="353.2" width="45.93" height="23.75"/><path class="cls-48" d="M498.93,367.26V364.9l2,1.18Zm4-3.28h-6.5a.47.47,0,0,0-.47.46v3.28a.47.47,0,0,0,.47.46H503a.47.47,0,0,0,.47-.46v-3.28A.47.47,0,0,0,503,364Z"/><path class="cls-46" d="M210.9,376.94H536.47a0,0,0,0,1,0,0v6.77a2.79,2.79,0,0,1-2.79,2.79h-320a2.81,2.81,0,0,1-2.81-2.81v-6.75a0,0,0,0,1,0,0Z"/><rect class="cls-50" x="224.7" y="196.15" width="44.13" height="4.8"/><path class="cls-56" d="M213.71,183.43h320a2.79,2.79,0,0,1,2.79,2.79v4.31a0,0,0,0,1,0,0H210.9a0,0,0,0,1,0,0v-4.29A2.81,2.81,0,0,1,213.71,183.43Z"/><rect class="cls-50" x="390.79" y="359.63" width="33.74" height="4.8"/><rect class="cls-50" x="343.82" y="359.63" width="19.03" height="4.8"/><rect class="cls-50" x="365.54" y="359.63" width="19.03" height="4.8"/><polygon class="cls-46" points="421.77 391.17 362.17 391.17 363.74 445.75 438.96 445.75 421.77 391.17"/><rect class="cls-47" x="286.73" y="441.09" width="123.9" height="4.66"/><polygon class="cls-57" points="432.2 441.09 416.48 391.17 356.88 391.17 358.31 441.09 432.2 441.09"/><path class="cls-58" d="M277.84,296.35c-7.32,3.51-19.51,1-14.52-10.88,5.37-12.76,13.84-25.22,23.14-36.22,11.21-13.26,27.22-31,38.51-39.11,21.92-15.72,20.51,9.87,17.23,20.51-4.75,15.4-21.26,29.09-33.55,41.21C299,281.39,285.84,292.53,277.84,296.35Z"/><path class="cls-59" d="M337.35,205.22a52.28,52.28,0,0,1-1.33,12.6c-4.08,16.84-20.08,33-31.9,47-9.3,11.06-22,24.16-29.9,29a15.08,15.08,0,0,1-9.37,2.15c3.29,2.39,8.9,2.31,13,.35,8-3.82,21.15-15,30.81-24.49,12.29-12.12,28.8-25.81,33.55-41.21C344.66,222.67,346.07,206.27,337.35,205.22Z"/><path class="cls-60" d="M267.33,297.23c-6.91-2-34.13-23.49-44.19-30.27-1.82-1.22-9.29-6.86-13.26-7.82-5.77-1.4-12.6-.83-15.48-2.52-3.2-1.88-12-11.81-11.38-13.29s6.79,4.26,10.32,6.65a7.65,7.65,0,0,0,5,1c2.14-.07,4.43-.25,6-.38,1.14-.09,1.9-.35,1.82-.8-.14-.73-.15-1.08-1.45-1.69-1.54-.72-5.52-1.44-6.59-2.28s-.94-1.26.3-1.1a57.76,57.76,0,0,1,9.75,1.7,14.26,14.26,0,0,1,4.4,2.54c3.31,2.53,4,4.92,7.87,7,16.07,8.44,38.65,16.07,49,20.9,5.15,2.4,11.09,8.3,10.16,15.48C279.17,295.36,274.2,299.23,267.33,297.23Z"/><path class="cls-61" d="M414.77,343H314.91s1.31-27.76,0-51.47c-1.34-24.31-4-45.74,1.32-64.87,1.77-6.35,5-15.65,16-20.86,7.82-3.7,23.76-8.68,37.21-8.53a77.9,77.9,0,0,1,29.44,6.43c15.75,6.86,15.47,13.8,16.51,22.8,2.43,21.13-2,51.34-2,78.1C413.45,326.5,414.77,343,414.77,343Z"/><path class="cls-62" d="M415.42,226.51c-.18-1.54-.31-3-.5-4.45-1.92-1.36-4.38-2.86-6.41-4-12-6.75-21.49-1.91-18,13.38,1,4.22,4.23,9.53,5.16,13.78,2,9.29,0,17.09-3.34,24.09-3.48,7.28-4.1,14.71-3,23.24,1.06,8.38,5.51,16.8,4.82,25.26-1.47,17.65-22.62,21.6-37.73,25.19h58.36s-1.32-16.5-1.32-38.4C413.45,277.84,417.85,247.63,415.42,226.51Z"/><path class="cls-63" d="M451.17,298c.75,14.25-15.4,11.16-23-.31-6.25-9.42-8.57-17.89-15.36-33.54-6.9-15.88-13.39-20.66-18.17-34.39-4.3-12.34-8.55-32.53,13.35-20.65C433.1,222.77,449.76,271.24,451.17,298Z"/><path class="cls-64" d="M443,307.47c-6.65,0-37.88-14.59-50.76-19.6-2.2-.86-9.92-4.26-14.31-4.3-6.39-.07-14.31,1.42-17.76.39-4.53-1.37-14.22-8.27-14.57-10.18-.68-3.72,22.06-3.08,22.06-3.08s-7.3-5.93-3.3-5.29,7.8,1.17,10.66,3.16,8.28,7,12.83,8.24c18.49,5.2,39,5.81,48.24,8.34,5.6,1.53,11.56,6,13.39,10.74C450.6,298.71,453.89,307.47,443,307.47Z"/><path class="cls-65" d="M384.64,199.07l-2-.42a6,6,0,0,1-4.81-5.49c-.71-12.26-1.68-30.68-1.68-30.68H355.62v32.23a4.76,4.76,0,0,1-3.76,4.64l-2.59.61a4.94,4.94,0,0,0-.19,1.38c0,5.25,7.67,9.5,17.14,9.5S386.28,206.38,384.64,199.07Z"/><path class="cls-66" d="M377.14,181.77c-2.28,6.48-9.1,13.09-16.75,12.71a11.2,11.2,0,0,1-4.77-1.3V162.47h20.49S376.61,171.91,377.14,181.77Z"/><path class="cls-67" d="M376.89,160.57c-3.16,15.26-9.9,19.55-16.58,19.55-7,0-11.2-3-13.31-17.64-2.28-15.72-1.06-21.62,8-25,3.84-1.43,13.64-1.57,18.15,2.94C377.12,144.39,378.09,154.81,376.89,160.57Z"/><path class="cls-46" d="M382.63,139.79c-.75-5.85-4.49-10.35-9.38-8.77-2.71-4.12-8.29-6.16-11.42-7.17-4.1-1.32-11.58-2.6-15.95-1.62-4.65,1-5.78,4.19-.53,5.7a18.73,18.73,0,0,0-6.69,4.92c-1.37,1.63-3.56,7.12,1.45,7-2.06,5.68,3.54,10,6.07,11.37-.54-5.51,1.82-9.34,4.36-10.15,3.77-1.21,12.83-.74,16.83,2.09,5.4,3.81,5.51,13.86,5.07,17.13-.15,1.11-3.81,6.08-8.71,6.08-2.24,0-4.51-1.72-7.45-1.72-2.71,0-3.66,1.36-5.76,1.36-3.14,0-3.14-5.21-3.79-5.42-2-.67-4.58,6.14-4.58,15.64,0,8.08,5,15.64,12.21,15.64,8.37,0,13.58-3.24,17.39-8.06,4.61-5.82,4.46-13.93,3.59-21.31a16.35,16.35,0,0,0,4.41-5.61C381.8,151.58,383.33,145.33,382.63,139.79Z"/><path class="cls-48" d="M362,170.4c0,.42-2,1.49-4.52,1.49s-4.51-1.21-4.51-1.8c0-.39,2-.11,4.51-.11S362,169.9,362,170.4Z"/><path class="cls-68" d="M381.23,158.31c-.45,3.16-3.09,6.27-4.7,5.78-1.31-.39-1.37-2.59-1.3-5.78.07-3,.49-5.78,2.45-5.78S381.77,154.51,381.23,158.31Z"/><path class="cls-69" d="M449.07,302.52c-11.14,2.8-26.5-3.56-42.24-11.57-10.25-5.21-15.06-6.6-22.05-8.31-4.84-1.19-13-.75-14.38,1-.6.76,6-.27,8.74.17,4.09.64,9.74,2.88,13.54,4.44,8.7,3.57,17.3,7.49,25.89,11.34,6.27,2.81,12.61,6.14,19.34,7.73,2.82.67,6.22,1.25,9.38-.22S452.39,301.68,449.07,302.52Z"/><polygon class="cls-46" points="358.8 255.92 339.63 258.09 348.5 272.87 367.68 270.7 358.8 255.92"/><path class="cls-48" d="M452.33,289.25c-1.74-11-8.6-12.33-18.39-13.08-6.95-.53-24.17,4.2-12.75,6.74,4.92,1.1,10.68,1.5,14.8,3.08,4.41,1.68,9.14,3.6,12.17,8.81s1.61,11,3,10.24C453.29,303.9,452.74,291.83,452.33,289.25Z"/><path class="cls-48" d="M286.59,292.22c.91-2.42.19-8.9-.9-12.29-1.21-3.76-4.94-10.91-10-13.73-3.94-2.21-5.72,2-7.26,4.94-1.06,2.07-1.8,4.92.46,7,3.59,3.29,7.57,9.57,6.5,14.13-.87,3.74-6,4.85-5.52,6.08C270.87,301,284.67,297.36,286.59,292.22Z"/><path class="cls-46" d="M349.78,157.75a.44.44,0,0,0,0-.1l-.05-.09,0,0a1.55,1.55,0,0,1-.37-1.91,0,0,0,0,0,0,0,.29.29,0,0,0,0-.1.16.16,0,0,0,0-.1v0s0,0-.05-.06,0-.06,0-.07h0a.29.29,0,0,0-.1,0,.16.16,0,0,0-.1,0s0,0,0,0a1.36,1.36,0,0,0-.92,1.44,1.51,1.51,0,0,0,1.37,1.4h0a.23.23,0,0,0,.19-.09h0s0,0,0-.06a.35.35,0,0,0,.05-.08S349.78,157.77,349.78,157.75Z"/><path class="cls-46" d="M364.2,157.93a.3.3,0,0,0,0-.1.36.36,0,0,0-.05-.09l0,0a1.56,1.56,0,0,1-.37-1.92s0,0,0,0a.29.29,0,0,0,0-.1.21.21,0,0,0,0-.11v0s0,0-.05-.06,0-.06,0-.08h0a.15.15,0,0,0-.09,0,.21.21,0,0,0-.11,0h0a1.37,1.37,0,0,0-.92,1.45,1.5,1.5,0,0,0,1.37,1.39h0a.26.26,0,0,0,.19-.09s0,0,0,0,0,0,0-.06a.16.16,0,0,0,0-.08S364.2,157.94,364.2,157.93Z"/><path class="cls-48" d="M352.89,216l7.95-6.85a27.56,27.56,0,0,1-5.22-2.69c-2-1.68-3.64-3.26-3-7.18.26-1.57,3.35-3,.69-3a5.57,5.57,0,0,0-4.7,2.74,12.45,12.45,0,0,0-1.06,6.68C348,209.55,350.27,213.13,352.89,216Z"/><path class="cls-48" d="M385.32,198.67c-.91-2.45-2.34-.6-2.46-.15-.94,3.63-2.63,5.84-6.63,8a25.09,25.09,0,0,1-11.5,2.89,11.25,11.25,0,0,0-1.35,0l6.54,8.29C377.38,214.92,387.51,206.82,385.32,198.67Z"/><path class="cls-46" d="M370.4,153.63c-3.77-2.31-8.51-2.46-11.8-.37-.13.08-.17.71-.09.84a.29.29,0,0,0,.39.09,10.79,10.79,0,0,1,11.2-.08.42.42,0,0,0,.15,0h.08a.28.28,0,0,0,.07-.5Z"/><path class="cls-46" d="M356.1,164.64c-1.17-.11-2.59-.45-3-.92a.3.3,0,0,1-.07-.24c.13-.8.29-1.59.45-2.41.29-1.46.62-3.1.87-5.13a2.34,2.34,0,0,0-1.45-2.77c0-.15.06-.33-.09-.36-3.85-.71-6,.16-7.08,1,0,0,0,0,0,.05a.41.41,0,0,0-.05.09.21.21,0,0,0,0,.11s0,0,0,.06,0,0,0,0,0,0,0,0l0,0a.2.2,0,0,0,.12.06s0,0,.05,0l.05,0h0a13.78,13.78,0,0,1,6.59-.61c1.35.23,1.27,1.75,1.21,2.21-.25,2-.57,3.64-.86,5.09-.16.83-.32,1.63-.45,2.43a.84.84,0,0,0,.18.67c.63.82,2.72,1.08,3.34,1.14h0a.29.29,0,0,0,.28-.25A.3.3,0,0,0,356.1,164.64Z"/><path class="cls-70" d="M668.92,66.63c-14.86,0-16.5,11.22-28.25,11.22s-18.73-20.94-33.18-20.94c-23.43,0-34.88,55.8-55.79,55.8-12.17,0-13.41-7.07-25.86-7.07-15.49,0-21.17,22-34.63,22-12.27,0-22.33-29.89-33.36-29.89-12.39,0-25.94,29.46-32.76,55.09H668.92Z"/><path class="cls-47" d="M425.78,153l-1-.41c.42-1.06.84-2.14,1.26-3.23,5.3-13.62,11.31-29,20.91-31.09,3.76-.8,8.08,2.47,12.66,5.93,4.05,3.06,8.23,6.22,11.78,6.22,7,0,13-6.25,19.32-12.86s13.19-13.74,21.22-13.74c7.36,0,14,6.63,21.08,13.64,7.42,7.38,15.09,15,23.88,15,7,0,12.83-3.55,18.5-7s11.71-7.09,18.83-7.09c5.9,0,10.84,2.49,16.06,5.12,5.64,2.85,11.48,5.79,19.06,5.79,6.58,0,10.42-7,14.86-15.09,5.46-10,11.64-21.22,24.76-21.22V94.1c-12.45,0-18.47,11-23.78,20.64-4.42,8.06-8.6,15.67-15.84,15.67-7.85,0-13.8-3-19.57-5.91-5.1-2.57-9.91-5-15.55-5-6.81,0-12.37,3.37-18.25,6.93s-11.81,7.15-19.08,7.15c-9.25,0-17.09-7.79-24.67-15.33-6.89-6.85-13.4-13.32-20.29-13.32-7.55,0-14.09,6.81-20.41,13.39s-12.68,13.21-20.13,13.21c-3.93,0-8.26-3.28-12.45-6.44s-8.5-6.43-11.76-5.74c-9,1.92-14.9,17.05-20.1,30.41C426.62,150.85,426.2,151.93,425.78,153Z"/><path class="cls-58" d="M58.75,202.15V185.36l14.54,8.4Zm28.67-23.38H41.06a3.32,3.32,0,0,0-3.32,3.32v23.33a3.32,3.32,0,0,0,3.32,3.32H87.42a3.32,3.32,0,0,0,3.32-3.32V182.09A3.32,3.32,0,0,0,87.42,178.77Z"/><rect class="cls-71" x="231.33" y="329.09" width="224.98" height="2.9"/><rect class="cls-72" x="231.33" y="329.09" width="123.12" height="2.9"/><rect class="cls-73" x="231.33" y="329.09" width="93.89" height="2.9"/><path class="cls-48" d="M246.56,338.09,243.24,340a.71.71,0,0,1-1.06-.61v-3.84a.71.71,0,0,1,1.06-.61l3.32,1.92A.7.7,0,0,1,246.56,338.09Z"/><rect class="cls-48" x="231.33" y="334.41" width="1.69" height="6.14" rx="0.71" ry="0.71"/><rect class="cls-48" x="234.16" y="334.41" width="1.69" height="6.14" rx="0.71" ry="0.71"/><rect class="cls-48" x="253.04" y="334.41" width="6.14" height="6.14" rx="0.71" ry="0.71"/><path class="cls-47" d="M648.09,183.38l-.39-.1a18.26,18.26,0,0,1-4.72-2l-.34-.21.88-4.2a14.1,14.1,0,0,1-2.38-2.38l-4.21.88-.2-.34a17.45,17.45,0,0,1-1.14-2.29,17.19,17.19,0,0,1-.81-2.42l-.1-.39,3.6-2.36a13.49,13.49,0,0,1,0-3.36l-3.6-2.34.1-.39a17.83,17.83,0,0,1,2-4.72l.2-.35,4.21.88a14.42,14.42,0,0,1,2.38-2.37l-.88-4.21.34-.2a18.84,18.84,0,0,1,2.29-1.15,19.36,19.36,0,0,1,2.44-.81l.38-.09,2.35,3.59a14,14,0,0,1,3.36,0l2.35-3.6.39.1a18.06,18.06,0,0,1,4.72,2l.34.2-.88,4.21a13.75,13.75,0,0,1,2.38,2.38l4.2-.89.2.34a17,17,0,0,1,1.15,2.3,17.19,17.19,0,0,1,.81,2.42l.1.39-3.6,2.35a13.49,13.49,0,0,1,0,3.36l3.6,2.35-.1.39a17.86,17.86,0,0,1-2,4.72l-.2.34-4.2-.88a14.1,14.1,0,0,1-2.38,2.38l.88,4.21-.34.2a17.5,17.5,0,0,1-2.29,1.15,19.36,19.36,0,0,1-2.44.81l-.38.09-2.35-3.59a14.52,14.52,0,0,1-3.36,0Zm-4.19-2.82a16.8,16.8,0,0,0,3.69,1.53l2.3-3.52.36.05a12.41,12.41,0,0,0,3.75,0l.35-.05,2.3,3.52a17.7,17.7,0,0,0,1.89-.66,15.73,15.73,0,0,0,1.8-.87l-.86-4.11.28-.22a12.85,12.85,0,0,0,2.66-2.65l.21-.29,4.11.87a17,17,0,0,0,1.53-3.7l-3.52-2.3.06-.35a12.74,12.74,0,0,0,0-3.75l0-.36,3.52-2.3a15,15,0,0,0-.65-1.88,16.85,16.85,0,0,0-.88-1.81l-4.11.87-.22-.29a12.51,12.51,0,0,0-2.64-2.65l-.29-.22.86-4.11a17.22,17.22,0,0,0-3.69-1.53l-2.3,3.52-.36-.05a12.34,12.34,0,0,0-3.74,0l-.36.05-2.3-3.52a17.7,17.7,0,0,0-1.89.66,16.64,16.64,0,0,0-1.8.87l.86,4.12-.28.21a12.38,12.38,0,0,0-2.66,2.65l-.21.29-4.11-.87a17,17,0,0,0-1.54,3.7l3.53,2.29-.06.36a12.74,12.74,0,0,0,0,3.75l0,.35-3.53,2.3a17.12,17.12,0,0,0,.66,1.9,18.67,18.67,0,0,0,.87,1.8l4.12-.87.22.29a12.8,12.8,0,0,0,2.65,2.65l.28.21Z"/><path class="cls-47" d="M652.12,175.7a9.76,9.76,0,1,1,9-13.5l-1,.43a8.64,8.64,0,1,0-11.29,11.28,8.52,8.52,0,0,0,6.61,0l.43,1A9.71,9.71,0,0,1,652.12,175.7Z"/><path class="cls-58" d="M639.88,178.66a1,1,0,0,0-.79-.87l-5.8-1.09a.93.93,0,0,1-.74-.69,16.9,16.9,0,0,0-1.39-3.36,1,1,0,0,1,0-1l3.33-4.86a1,1,0,0,0,0-1.18c-.42-.49-.86-1-1.33-1.44s-.95-.91-1.44-1.33a1,1,0,0,0-1.18,0l-4.86,3.33a1,1,0,0,1-1,0,16.4,16.4,0,0,0-3.37-1.39,1,1,0,0,1-.69-.75l-1.09-5.79a1,1,0,0,0-.86-.8,23.32,23.32,0,0,0-3.92,0,1,1,0,0,0-.87.8L612.77,164a1,1,0,0,1-.69.75,16.4,16.4,0,0,0-3.37,1.39,1,1,0,0,1-1,0l-4.87-3.33a1,1,0,0,0-1.17,0c-.5.42-1,.86-1.44,1.33s-.91.95-1.33,1.44a1,1,0,0,0,0,1.18l3.32,4.86a1,1,0,0,1,0,1,16.65,16.65,0,0,0-1.39,3.36,1,1,0,0,1-.75.69l-5.79,1.09a1,1,0,0,0-.8.86,24.43,24.43,0,0,0,0,3.92,1,1,0,0,0,.79.87l5.8,1.09a.93.93,0,0,1,.74.69,16.9,16.9,0,0,0,1.39,3.36,1,1,0,0,1,0,1l-3.32,4.86a1,1,0,0,0,0,1.18c.41.49.86,1,1.32,1.44s.95.91,1.45,1.33a1,1,0,0,0,1.17.05l4.87-3.33a1,1,0,0,1,1,0,16.4,16.4,0,0,0,3.37,1.39,1,1,0,0,1,.69.75l1.08,5.79a1,1,0,0,0,.87.8,23.32,23.32,0,0,0,3.92,0,1,1,0,0,0,.86-.8l1.09-5.79a1,1,0,0,1,.69-.75,16.1,16.1,0,0,0,3.36-1.39,1,1,0,0,1,1,0l4.87,3.33a1,1,0,0,0,1.17-.05c.5-.42,1-.86,1.44-1.33s.91-1,1.33-1.44a1,1,0,0,0,0-1.18l-3.33-4.86a1,1,0,0,1,0-1,16.36,16.36,0,0,0,1.4-3.36.93.93,0,0,1,.74-.69l5.8-1.09a1,1,0,0,0,.79-.87A23.21,23.21,0,0,0,639.88,178.66Zm-16.63,8.52a9.29,9.29,0,1,1,0-13.13A9.29,9.29,0,0,1,623.25,187.18Z"/><path class="cls-47" d="M652.12,171.09a5.16,5.16,0,0,1-2-.39,5.16,5.16,0,1,1,6.73-6.74h0a5.16,5.16,0,0,1-2.79,6.74A5.16,5.16,0,0,1,652.12,171.09Zm0-9.2a4.2,4.2,0,0,0-1.55.31,4,4,0,1,0,5.28,2.19h0a4,4,0,0,0-2.18-2.19A4.2,4.2,0,0,0,652.12,161.89Z"/><circle class="cls-74" cx="293.28" cy="56.01" r="20.59"/><path class="cls-48" d="M291,66.64,279.72,55.4a.9.9,0,0,1,0-1.27l2.88-2.88a.9.9,0,0,1,1.27,0l7.1,7.1a.89.89,0,0,0,1.26,0L302.7,47.88a.9.9,0,0,1,1.27,0l2.88,2.88a.9.9,0,0,1,0,1.27L292.23,66.64A.89.89,0,0,1,291,66.64Z"/><path class="cls-46" d="M294.15,154.14l-26-18.42H156.9c-4.61,0-8.36-2.66-8.36-5.93V83c0-3.27,3.75-5.93,8.36-5.93H310.71c4.61,0,8.36,2.66,8.36,5.93v46.79c0,3.27-3.75,5.93-8.36,5.93H294.15ZM156.9,78.32c-3.64,0-6.6,2.1-6.6,4.68v46.79c0,2.58,3,4.68,6.6,4.68h112l23.49,16.66V134.47h18.32c3.64,0,6.6-2.1,6.6-4.68V83c0-2.58-3-4.68-6.6-4.68Z"/><path class="cls-46" d="M298.14,95.4H168.6V90.56c0-.34.39-.62.88-.62s.88.28.88.62v3.59H298.14c.49,0,.88.28.88.62S298.63,95.4,298.14,95.4Z"/><path class="cls-46" d="M233.81,106.5H168.6v-4.84c0-.34.39-.62.88-.62s.88.28.88.62v3.59h63.45c.48,0,.88.28.88.62S234.29,106.5,233.81,106.5Z"/><path class="cls-46" d="M282.71,117.6H168.6v-4.84c0-.34.39-.62.88-.62s.88.28.88.62v3.59H282.71c.49,0,.88.28.88.63S283.2,117.6,282.71,117.6Z"/><path class="cls-58" d="M567.42,421.85A49.58,49.58,0,1,1,617,372.27,49.63,49.63,0,0,1,567.42,421.85Zm0-96.92a47.35,47.35,0,1,0,47.34,47.34A47.4,47.4,0,0,0,567.42,324.93Z"/><path class="cls-75" d="M619.24,372.27h-6.72a45.15,45.15,0,0,0-45.1-45.1v-6.71A51.87,51.87,0,0,1,619.24,372.27Z"/><polygon class="cls-58" points="654.6 419.09 626.09 419.09 605.17 402.65 605.86 401.77 626.48 417.98 654.6 417.98 654.6 419.09"/><polygon class="cls-58" points="605.86 342.78 605.17 341.9 626.09 325.45 654.6 325.45 654.6 326.57 626.48 326.57 605.86 342.78"/><path class="cls-58" d="M634.48,313.09a5.71,5.71,0,0,1-1,2.91,38.25,38.25,0,0,1-3.21,4.22h4.29v1.18h-5.66v-1.32a35.73,35.73,0,0,0,3.25-4.27,5.43,5.43,0,0,0,.91-2.7,1.53,1.53,0,0,0-.36-1.06,1.25,1.25,0,0,0-1-.4,1.37,1.37,0,0,0-1.06.34,1.88,1.88,0,0,0-.27,1.21v.32H629v-.32a2.54,2.54,0,0,1,.6-2,2.91,2.91,0,0,1,2.13-.67,2.86,2.86,0,0,1,2,.66A2.54,2.54,0,0,1,634.48,313.09Z"/><path class="cls-58" d="M641.7,318.24a4.1,4.1,0,0,1-.62,2.57,2.61,2.61,0,0,1-2.12.75,3,3,0,0,1-2.08-.55,2.81,2.81,0,0,1-.65-2v-.32h1.38V319a1.62,1.62,0,0,0,.33,1,1.15,1.15,0,0,0,.87.32,1.35,1.35,0,0,0,1.2-.47,3.78,3.78,0,0,0,.3-1.83v-.72a2.59,2.59,0,0,0-.28-1.42,1.1,1.1,0,0,0-1-.4,1.31,1.31,0,0,0-1,.36,1.53,1.53,0,0,0-.32,1.09h-1.43l.1-6.36h5v1.22h-3.77l0,3.43c.24-.23.44-.41.59-.53a2.18,2.18,0,0,1,1.31-.39,1.9,1.9,0,0,1,1.7.7,4.56,4.56,0,0,1,.49,2.49Z"/><path class="cls-58" d="M645.38,315a1.77,1.77,0,0,1-.27-1.15V312a1.53,1.53,0,0,1,.29-1,1.37,1.37,0,0,1,1-.31,1.35,1.35,0,0,1,1,.3,1.55,1.55,0,0,1,.28,1.06v1.86a1.85,1.85,0,0,1-.25,1.16,1.4,1.4,0,0,1-1,.29A1.32,1.32,0,0,1,645.38,315Zm.82,7,4.27-11.71h.91L647.1,322Zm4.1-.73a1.84,1.84,0,0,1-.26-1.15v-1.86a1.53,1.53,0,0,1,.29-1.05,1.81,1.81,0,0,1,2,0,1.55,1.55,0,0,1,.28,1.06v1.86a1.84,1.84,0,0,1-.26,1.16,1.38,1.38,0,0,1-1,.29A1.36,1.36,0,0,1,650.3,321.26Z"/><path class="cls-58" d="M629.63,413.92l3.61-9.61h-4.15v-1.18h5.39v1.18l-3.19,9.61Z"/><path class="cls-58" d="M641.7,410.76a4.08,4.08,0,0,1-.62,2.57,2.61,2.61,0,0,1-2.12.75,3.07,3.07,0,0,1-2.08-.54,2.83,2.83,0,0,1-.65-2v-.33h1.38v.33a1.61,1.61,0,0,0,.33,1,1.11,1.11,0,0,0,.87.32,1.33,1.33,0,0,0,1.2-.47,3.75,3.75,0,0,0,.3-1.83v-.72a2.59,2.59,0,0,0-.28-1.42,1.1,1.1,0,0,0-1-.4,1.31,1.31,0,0,0-1,.36,1.55,1.55,0,0,0-.32,1.09h-1.43l.1-6.35h5v1.21h-3.77l0,3.44a7.54,7.54,0,0,1,.59-.54,2.18,2.18,0,0,1,1.31-.39,1.92,1.92,0,0,1,1.7.7,4.56,4.56,0,0,1,.49,2.49Z"/><path class="cls-58" d="M645.38,407.49a1.74,1.74,0,0,1-.27-1.14v-1.86a1.56,1.56,0,0,1,.29-1.06,1.37,1.37,0,0,1,1-.3,1.35,1.35,0,0,1,1,.3,1.53,1.53,0,0,1,.28,1.06v1.86a1.82,1.82,0,0,1-.25,1.15,1.4,1.4,0,0,1-1,.29A1.32,1.32,0,0,1,645.38,407.49Zm.82,7,4.27-11.7h.91l-4.28,11.7Zm4.1-.73a1.81,1.81,0,0,1-.26-1.14v-1.86a1.56,1.56,0,0,1,.29-1.06,1.83,1.83,0,0,1,2,0,1.53,1.53,0,0,1,.28,1.06v1.86a1.8,1.8,0,0,1-.26,1.15,1.38,1.38,0,0,1-1,.29A1.36,1.36,0,0,1,650.3,413.78Z"/><g class="cls-23"><path class="cls-73" d="M530.35,410.84a53.49,53.49,0,0,1,37.07-92.06v10.07a43.42,43.42,0,0,0-30.09,74.73Z"/></g><path class="cls-76" d="M217.58,399.1c7.33,3.51,19.52,1,14.53-10.88C226.74,375.46,218.27,363,209,352c-11.22-13.26-27.22-31-38.51-39.11-21.92-15.72-20.51,9.87-17.23,20.51,4.75,15.4,21.26,29.09,33.55,41.21C196.44,384.14,209.59,395.28,217.58,399.1Z"/><path class="cls-56" d="M158.07,308a52.75,52.75,0,0,0,1.34,12.6c4.08,16.84,20.08,33,31.9,47,9.3,11.06,22,24.16,29.9,29a15,15,0,0,0,9.36,2.15c-3.28,2.39-8.89,2.31-13,.35-8-3.82-21.14-15-30.8-24.49C174.49,362.49,158,348.8,153.23,333.4,150.76,325.42,149.36,309,158.07,308Z"/><path class="cls-77" d="M80.65,445.75h99.86s-1.31-27.76,0-51.47c1.34-24.31,4-45.74-1.31-64.87-1.77-6.35-5.06-15.65-16-20.86-7.82-3.7-23.76-8.68-37.2-8.53a77.9,77.9,0,0,0-29.44,6.43C80.76,313.31,81,320.25,80,329.25c-2.44,21.13,2,51.34,2,78.1C82,429.25,80.65,445.75,80.65,445.75Z"/><path class="cls-78" d="M82,407.35c0,21.9-1.33,38.4-1.33,38.4H139c-15.1-3.59-36.26-7.54-37.72-25.19-.7-8.46,3.76-16.88,4.82-25.26,1.08-8.53.47-16-3-23.24-3.35-7-5.35-14.8-3.35-24.09.93-4.25,4.2-9.56,5.16-13.78,3.49-15.29-6-20.13-18-13.38a74.54,74.54,0,0,0-6.41,4c-.19,1.42-.33,2.91-.5,4.45C77.58,350.38,82,380.59,82,407.35Z"/><path class="cls-79" d="M44.26,400.79c-.75,14.25,15.39,11.16,23-.31,6.24-9.42,8.56-17.89,15.36-33.54,6.9-15.88,13.38-20.66,18.17-34.39,4.3-12.34,8.55-32.53-13.36-20.65C62.32,325.52,45.67,374,44.26,400.79Z"/><path class="cls-80" d="M110.79,301.82l2-.42a6,6,0,0,0,4.81-5.49c.71-12.26,1.68-30.68,1.68-30.68h20.5v32.23a4.75,4.75,0,0,0,3.75,4.64l2.6.61a4.94,4.94,0,0,1,.19,1.38c0,5.25-7.68,9.5-17.14,9.5S109.14,309.13,110.79,301.82Z"/><path class="cls-66" d="M139.81,265.22v26.24a11,11,0,0,1-4.77,1.1c-8.34-.28-14.27-8.91-16.31-16.13.33-6.36.59-11.21.59-11.21Z"/><path class="cls-67" d="M118.07,263.32c3.25,15.26,10.46,19.45,17.25,20.38,7,1,11-3.92,13.46-18.47,2.68-15.67,1-21.31-8.22-25-3.89-1.56-14-1.57-18.65,2.94C117.84,247.14,116.84,257.56,118.07,263.32Z"/><path class="cls-46" d="M157.34,235.6a19.16,19.16,0,0,0-6.87-4.92c5.4-1.51,4.24-4.65-.55-5.7-4.48-1-12.16.3-16.38,1.62-3.21,1-8.95,3.05-11.73,7.17-5-1.58-8.86,2.91-9.63,8.77-.72,5.54.85,11.79,3,17.08a13.64,13.64,0,0,0,4.53,5.61,9.69,9.69,0,0,0,.72,1.66,6.58,6.58,0,0,0,2.52-.64c-.09-.75-.24-3.16-.3-5.59-.11-4.66-.48-12.27,5.24-14.77,4.59-2,13.1-3.14,16.78-1.61,2.52,1.05,5.54,4.16,5,9.67,2.59-1.32,8.35-5.69,6.23-11.37C161,242.72,158.75,237.23,157.34,235.6Z"/><path class="cls-48" d="M134.1,272.38c-.08.39,1.67,1.74,4.07,2.17s4.54-.35,4.64-.9c.07-.37-1.92-.45-4.31-.88S134.19,271.92,134.1,272.38Z"/><path class="cls-68" d="M113.62,261.06c.46,3.16,3.17,6.27,4.83,5.78,1.34-.39,1.41-2.59,1.33-5.78-.07-3-.5-5.78-2.51-5.78S113.07,257.26,113.62,261.06Z"/><path class="cls-81" d="M229.87,388.11c-5.32-4.31-37-13.3-47.8-17.3-1.95-.73-10.44-3.35-13.34-5.94-4.22-3.77-7.46-9.54-10.35-10.84-3.21-1.44-15.8-2.56-16.65-1.21s7,2.88,10.82,4.29c1.7.62,2.57,1.88,3.49,3.34,1.1,1.75,2.2,3.68,2.94,5,.53,1,.74,1.73.34,1.93-.65.32-.93.51-2.12-.16-1.4-.8-4.12-3.55-5.36-3.9s-1.5,0-.71.88a52.82,52.82,0,0,0,6.61,6.77,13,13,0,0,0,4.38,2c3.79,1.14,6,.27,9.76,2.15,15.34,7.81,33.57,21.28,43,26.67,4.68,2.69,12.55,3.94,17.74-1C234.78,398.64,235.16,392.41,229.87,388.11Z"/><polygon class="cls-46" points="174.31 391.02 122.77 391.02 133.39 358.11 184.94 358.11 174.31 391.02"/><path class="cls-82" d="M127.75,373.45s.4-.32,1-.81l1.39-4.33c-3.71.58-7.08,1.17-9.72,3-3,2.1-8.27,7-12.82,8.24-18.49,5.2-39,5.81-48.24,8.34-5.6,1.53-11.57,6-13.4,10.74-1.09,2.82-4.39,11.58,6.49,11.58,6.65,0,37.88-14.6,50.76-19.6,2.2-.86,9.91-4.26,14.31-4.3,6.39-.07,14.31,1.42,17.76.38,4.53-1.36,14.21-8.26,14.56-10.17C150.49,372.81,127.75,373.45,127.75,373.45Z"/><path class="cls-83" d="M48.14,409.87c3.16,1.47,6.56.89,9.38.22,6.73-1.59,13.06-4.92,19.34-7.73,8.59-3.85,17.18-7.77,25.89-11.35,3.8-1.55,9.45-3.79,13.53-4.43,2.79-.44,9.35.59,8.74-.17-1.42-1.77-9.53-2.21-14.38-1-7,1.71-11.79,3.1-22,8.31-15.74,8-31.1,14.37-42.25,11.57C43,404.43,45.12,408.46,48.14,409.87Z"/><path class="cls-46" d="M134.78,259.36h0a.48.48,0,0,0-.12,0,.23.23,0,0,0-.12,0h0s0,.05-.05.07,0,0-.07.06,0,0,0,0a.49.49,0,0,0,0,.12.42.42,0,0,0,0,.12v0a1.22,1.22,0,0,1-.15,1.57,0,0,0,0,0,0,0s0,.06-.07.1a.54.54,0,0,0,0,.11v0s0,.06,0,.09,0,.07,0,.1l0,0,0,0a.33.33,0,0,0,.21.09h0a1.31,1.31,0,0,0,1.24-1.06A1.41,1.41,0,0,0,134.78,259.36Z"/><path class="cls-46" d="M147.79,261h0a.23.23,0,0,0-.12,0,.21.21,0,0,0-.11,0h-.05s0,0-.06.07l-.07.05s0,0,0,0a.25.25,0,0,0,0,.12.24.24,0,0,0,0,.12s0,0,0,0A1.23,1.23,0,0,1,147,263s0,0,0,0a.48.48,0,0,0-.09.11.31.31,0,0,0,0,.1s0,0,0,0a.32.32,0,0,0,0,.09s0,.07,0,.1l0,0,0,.05a.27.27,0,0,0,.16.08s0,0,0,0h.12a1.34,1.34,0,0,0,1.23-.92A1.37,1.37,0,0,0,147.79,261Z"/><path class="cls-46" d="M139.17,257c-2.58-1.69-7.27-1.94-10.27-.55h-.05s0,.05-.06.07-.06.05-.07.08a.17.17,0,0,0,0,.1s0,.07,0,.1,0,0,0,0v0s.05,0,.07.06a.16.16,0,0,0,.07.07.21.21,0,0,0,.11,0s.06,0,.1,0c3.41-1.17,8.55-.25,10,.94a.26.26,0,0,0,.18.07.28.28,0,0,0,.22-.1C139.54,257.75,139.3,257.05,139.17,257Z"/><path class="cls-46" d="M150.19,258.54a.21.21,0,0,0,0-.11.22.22,0,0,0,0-.1s0,0,0,0a5.81,5.81,0,0,0-4.48-1,.28.28,0,0,0-.22.33s0,.1-.06.11a2.78,2.78,0,0,0-2.13,2.35c-.13,2.24-.18,3.93-.23,5.72l-.06,2c0,1.19-1.22,1.32-2.54,1.35l-.55,0a.29.29,0,0,0,0,.57h0l.51,0c1.06,0,3-.08,3.09-1.9l.06-2c0-1.78.1-3.46.22-5.69a2.27,2.27,0,0,1,1.72-1.85,8.11,8.11,0,0,1,4.26.47s.05,0,.08,0l.05,0h0l.08,0s0,0,.05,0,0,0,0-.05,0,0,.05,0S150.19,258.55,150.19,258.54Z"/></svg>