<svg id="Layer_1" data-name="Layer 1" xmlns="http://www.w3.org/2000/svg" viewBox="0 0 245.53 60"><defs><style>.cls-1{fill:#fff;}</style></defs><title>logo</title><path class="cls-1" d="M67,20.33h7.08a9.42,9.42,0,0,1,3.39.59,6.91,6.91,0,0,1,2.62,1.77,8.12,8.12,0,0,1,1.67,2.93,13.1,13.1,0,0,1,.59,4.11,13.1,13.1,0,0,1-.59,4.11,8.12,8.12,0,0,1-1.67,2.93,6.91,6.91,0,0,1-2.62,1.77,9.42,9.42,0,0,1-3.39.59H67Zm7.08,15.16a4,4,0,0,0,2.88-1,4.43,4.43,0,0,0,1-3.29v-2.9A4.43,4.43,0,0,0,77,25a4,4,0,0,0-2.88-1h-3V35.49Z"/><path class="cls-1" d="M91.49,39.45a7.43,7.43,0,0,1-2.88-.52,6,6,0,0,1-2.14-1.48,6.41,6.41,0,0,1-1.32-2.33,10.91,10.91,0,0,1,0-6.1,6.2,6.2,0,0,1,1.28-2.33,5.62,5.62,0,0,1,2.08-1.5,7.21,7.21,0,0,1,2.83-.52,7,7,0,0,1,3,.59,5.53,5.53,0,0,1,2,1.59,6.32,6.32,0,0,1,1.16,2.3,10.24,10.24,0,0,1,.36,2.74v1.18H88.83v.21a3.15,3.15,0,0,0,.75,2.21A3.09,3.09,0,0,0,92,36.3a3.71,3.71,0,0,0,2-.49,8.12,8.12,0,0,0,1.45-1.19l2,2.48A6.22,6.22,0,0,1,95,38.83,9,9,0,0,1,91.49,39.45ZM91.41,27.6a2.38,2.38,0,0,0-1.9.8,3.1,3.1,0,0,0-.68,2.11v.22h5v-.25a3.42,3.42,0,0,0-.58-2.08A2.06,2.06,0,0,0,91.41,27.6Z"/><path class="cls-1" d="M106.63,39.45a7.43,7.43,0,0,1-2.88-.52,6.08,6.08,0,0,1-2.15-1.48,6.25,6.25,0,0,1-1.31-2.33,10.79,10.79,0,0,1,0-6.1,6.49,6.49,0,0,1,1.28-2.33,5.65,5.65,0,0,1,2.09-1.5,7.18,7.18,0,0,1,2.83-.52,7.07,7.07,0,0,1,3,.59,5.61,5.61,0,0,1,2,1.59,6.3,6.3,0,0,1,1.15,2.3,9.85,9.85,0,0,1,.37,2.74v1.18H104v.21a2.75,2.75,0,0,0,3.13,3,3.76,3.76,0,0,0,2-.49,8.12,8.12,0,0,0,1.45-1.19l2,2.48a6.26,6.26,0,0,1-2.46,1.73A9,9,0,0,1,106.63,39.45Zm-.08-11.85a2.38,2.38,0,0,0-1.9.8,3.1,3.1,0,0,0-.69,2.11v.22h5v-.25a3.49,3.49,0,0,0-.58-2.08A2.08,2.08,0,0,0,106.55,27.6Z"/><path class="cls-1" d="M115.86,25h4v2.37H120a3.27,3.27,0,0,1,1.36-1.94,4.09,4.09,0,0,1,2.43-.75,4.73,4.73,0,0,1,4.07,1.88,9.32,9.32,0,0,1,1.37,5.5,9.34,9.34,0,0,1-1.37,5.5,4.69,4.69,0,0,1-4.07,1.9,4.1,4.1,0,0,1-1.32-.2,3.86,3.86,0,0,1-1.11-.56,3.51,3.51,0,0,1-.85-.87,3.15,3.15,0,0,1-.51-1.06h-.14v7.76h-4Zm6.6,11.23a2.43,2.43,0,0,0,1.87-.79,3,3,0,0,0,.74-2.14V30.83a3,3,0,0,0-.74-2.14,2.43,2.43,0,0,0-1.87-.79,3,3,0,0,0-1.87.55,1.81,1.81,0,0,0-.74,1.52v4.18a1.81,1.81,0,0,0,.74,1.52A3,3,0,0,0,122.46,36.22Z"/><path class="cls-1" d="M131.59,39.13V35.87H134V23.59h-2.43V20.33h8.94v3.26h-2.42V35.87h2.42v3.26Z"/><path class="cls-1" d="M143.74,39.13V25h4v2.4h.17a4.24,4.24,0,0,1,1.32-1.91,3.85,3.85,0,0,1,2.61-.81,3.91,3.91,0,0,1,3.3,1.45,6.72,6.72,0,0,1,1.11,4.15v8.86h-4V30.59a3.86,3.86,0,0,0-.43-2,1.7,1.7,0,0,0-1.54-.66,3.73,3.73,0,0,0-.94.12,2.31,2.31,0,0,0-.82.39,2,2,0,0,0-.58.66,1.87,1.87,0,0,0-.22.9v9.16Z"/><path class="cls-1" d="M168.46,36.76h-.13a3.38,3.38,0,0,1-.52,1.06,3.65,3.65,0,0,1-.84.87,3.91,3.91,0,0,1-1.14.56,4.06,4.06,0,0,1-1.3.2,4.69,4.69,0,0,1-4.07-1.9,9.34,9.34,0,0,1-1.37-5.5,9.32,9.32,0,0,1,1.37-5.5,4.73,4.73,0,0,1,4.07-1.88,4.15,4.15,0,0,1,2.44.75,3.36,3.36,0,0,1,1.36,1.94h.13V19.2h4V39.13h-4Zm-2.61-.54a3,3,0,0,0,1.87-.55,1.81,1.81,0,0,0,.74-1.52V30a1.81,1.81,0,0,0-.74-1.52,3,3,0,0,0-1.87-.55,2.43,2.43,0,0,0-1.87.79,3,3,0,0,0-.74,2.14v2.46a3,3,0,0,0,.74,2.14A2.43,2.43,0,0,0,165.85,36.22Z"/><path class="cls-1" d="M182.06,39.45a7.43,7.43,0,0,1-2.88-.52A6,6,0,0,1,177,37.45a6.27,6.27,0,0,1-1.32-2.33,10.68,10.68,0,0,1,0-6.1A6.32,6.32,0,0,1,177,26.69a5.74,5.74,0,0,1,2.09-1.5,7.21,7.21,0,0,1,2.83-.52,7,7,0,0,1,3,.59,5.53,5.53,0,0,1,2,1.59,6.48,6.48,0,0,1,1.16,2.3,10.24,10.24,0,0,1,.36,2.74v1.18H179.4v.21a3.15,3.15,0,0,0,.75,2.21,3.09,3.09,0,0,0,2.37.81,3.73,3.73,0,0,0,2-.49A8.12,8.12,0,0,0,186,34.62l2,2.48a6.22,6.22,0,0,1-2.47,1.73A9,9,0,0,1,182.06,39.45ZM182,27.6a2.38,2.38,0,0,0-1.9.8,3.1,3.1,0,0,0-.68,2.11v.22h4.95v-.25a3.42,3.42,0,0,0-.58-2.08A2.06,2.06,0,0,0,182,27.6Z"/><path class="cls-1" d="M189.49,39.13l4.66-7.19-4.6-7h4.52l2.64,4.44h.11L199.38,25h4.2l-4.69,7.08,4.72,7.06h-4.53l-2.72-4.61h-.11l-2.61,4.61Z"/><path class="cls-1" d="M208.27,39.43a2.42,2.42,0,0,1-1.8-.61,2.16,2.16,0,0,1-.57-1.55v-.54a2.18,2.18,0,0,1,.57-1.55,3,3,0,0,1,3.59,0,2.19,2.19,0,0,1,.58,1.55v.54a2.17,2.17,0,0,1-.58,1.55A2.41,2.41,0,0,1,208.27,39.43Z"/><path class="cls-1" d="M224.88,39.13a2.5,2.5,0,0,1-1.79-.67,3,3,0,0,1-.9-1.81H222a3.32,3.32,0,0,1-1.43,2.09,5,5,0,0,1-2.72.71,4.42,4.42,0,0,1-3.26-1.12,4.06,4.06,0,0,1-1.13-3A3.7,3.7,0,0,1,215.12,32a7.91,7.91,0,0,1,4.43-1.09h2.23v-.89a2.42,2.42,0,0,0-.53-1.63,2.35,2.35,0,0,0-1.81-.6,3.11,3.11,0,0,0-1.88.51,4.91,4.91,0,0,0-1.16,1.16L214,27.38a6,6,0,0,1,2.17-2,7.36,7.36,0,0,1,3.54-.72A6.68,6.68,0,0,1,224.26,26a4.82,4.82,0,0,1,1.51,3.85V36h1.32v3.1Zm-5.52-2.45a3.24,3.24,0,0,0,1.71-.43,1.48,1.48,0,0,0,.71-1.39V33.2h-1.93c-1.57,0-2.35.53-2.35,1.58v.4a1.31,1.31,0,0,0,.49,1.14A2.26,2.26,0,0,0,219.36,36.68Z"/><path class="cls-1" d="M231.75,23.48a2.42,2.42,0,0,1-1.77-.55,2,2,0,0,1-.55-1.41v-.6a2,2,0,0,1,.55-1.41,2.42,2.42,0,0,1,1.77-.55,2.4,2.4,0,0,1,1.76.55,1.91,1.91,0,0,1,.55,1.41v.6a1.91,1.91,0,0,1-.55,1.41A2.4,2.4,0,0,1,231.75,23.48Zm-2,1.51h4V39.13h-4Z"/><path class="cls-1" d="M32.94,7.25a22.79,22.79,0,0,0-1.89,45.5v-11h5.47V52.56A22.8,22.8,0,0,0,32.94,7.25ZM37,37A2.66,2.66,0,0,1,36.21,39a3.37,3.37,0,0,1-2.43.75A3.36,3.36,0,0,1,31.36,39,2.66,2.66,0,0,1,30.61,37v-.82a2.65,2.65,0,0,1,.75-1.94,3.36,3.36,0,0,1,2.42-.76,3.37,3.37,0,0,1,2.43.76A2.65,2.65,0,0,1,37,36.22Zm-8.52-6.42V14.82l13.69,7.9Z"/></svg>