<?xml version="1.0" encoding="UTF-8"?>
<svg width="100px" height="100px" viewBox="0 0 100 100" version="1.1" xmlns="http://www.w3.org/2000/svg" xmlns:xlink="http://www.w3.org/1999/xlink">
    <!-- Generator: Sketch 56.2 (81672) - https://sketch.com -->
    <title>advanced_recomm_icon</title>
    <desc>Created with Sketch.</desc>
    <g id="Page-1" stroke="none" stroke-width="1" fill="none" fill-rule="evenodd">
        <g id="Desktop-HD" transform="translate(-506.000000, -214.000000)">
            <g id="advanced_recomm_icon" transform="translate(506.000000, 214.000000)">
                <circle id="Oval" fill="#F6E6BC" cx="50" cy="50" r="50"></circle>
                <g id="noun_customer_2274608" transform="translate(20.000000, 20.000000)" fill="#683C28" fill-rule="nonzero">
                    <path d="M22.278481,50.048014 C18.3696203,50.048014 15.1898734,53.1729376 15.1898734,57.0144042 L15.1898734,59.0048014 C15.1898734,59.554151 15.6435443,60 16.2025316,60 L44.556962,60 C45.1159494,60 45.5696203,59.554151 45.5696203,59.0048014 L45.5696203,57.0144042 C45.5696203,53.1729376 42.3898734,50.048014 38.4810127,50.048014 L35.443038,50.048014 L35.443038,47.5381231 C37.8835443,45.9288869 39.4936709,43.1940812 39.4936709,40.0960279 C39.4936709,35.1578525 35.404557,31.1392405 30.3797468,31.1392405 C25.3549367,31.1392405 21.2658228,35.1578525 21.2658228,40.0960279 C21.2658228,43.1940812 22.8759494,45.9288869 25.3164557,47.5381231 L25.3164557,50.048014 L22.278481,50.048014 Z M43.5443038,57.0144042 L43.5443038,58.0096028 L17.2151899,58.0096028 L17.2151899,57.0144042 C17.2151899,54.2706416 19.4865823,52.0384112 22.278481,52.0384112 L25.9098734,52.0384112 L29.6637975,55.7276124 C30.0597468,56.1167351 30.6997468,56.1167351 31.0956962,55.7276124 L34.8496203,52.0384112 L38.4810127,52.0384112 C41.2729114,52.0384112 43.5443038,54.2706416 43.5443038,57.0144042 Z M30.3797468,33.1296377 C33.4977215,33.1296377 36.1468354,35.1210301 37.0926582,37.8767351 C35.0288608,38.4290703 32.6268354,37.8508599 31.1068354,36.3092973 C30.7250633,35.922165 30.0334177,35.922165 29.6516456,36.3092973 C28.5255696,37.45079 26.9458228,38.1056307 25.3164557,38.1056307 C24.7473418,38.1056307 24.1964557,38.0240244 23.6658228,37.8767351 C24.6116456,35.1220253 27.2607595,33.1296377 30.3797468,33.1296377 Z M23.2911392,40.0960279 C23.2911392,40.0064601 23.3012658,39.9188826 23.3053165,39.8293147 C25.715443,40.4154867 28.4243038,39.8890266 30.3797468,38.3434832 C31.801519,39.4660672 33.6,40.0950327 35.443038,40.0950327 C36.1336709,40.0950327 36.8040506,40.0024793 37.4551899,39.8382715 C37.4582278,39.925849 37.4683544,40.0094457 37.4683544,40.0960279 C37.4683544,43.9374945 34.2886076,47.0624182 30.3797468,47.0624182 C26.4708861,47.0624182 23.2911392,43.9374945 23.2911392,40.0960279 Z M30.3797468,49.0528154 C31.4460759,49.0528154 32.4658228,48.8627324 33.4177215,48.5303361 L33.4177215,50.6312003 L30.3797468,53.6167962 L27.3417722,50.6312003 L27.3417722,48.5303361 C28.2936709,48.8627324 29.3134177,49.0528154 30.3797468,49.0528154 Z" id="Shape"></path>
                    <path d="M36.9625618,5.73072497 L27.8483538,5.73072497 L27.8483538,7.66398159 L35.6197352,7.66398159 L34.1726015,12.4971231 L27.5648006,12.4971231 L24.7576245,4.45864212 C24.6198987,4.06329114 24.2340639,3.79746835 23.7975946,3.79746835 L19.7468354,3.79746835 L19.7468354,5.73072497 L23.0674453,5.73072497 L25.8746214,13.769206 C26.0133599,14.164557 26.3991947,14.4303797 26.835664,14.4303797 L34.9371823,14.4303797 C35.3888419,14.4303797 35.786829,14.1442578 35.9103772,13.7295742 L37.9357567,6.96317606 C38.0228481,6.67125432 37.9620867,6.35806674 37.7706883,6.11544304 C37.5792899,5.87281933 37.2805464,5.73072497 36.9625618,5.73072497 Z" id="Path"></path>
                    <path d="M27.3417722,15.9493671 C26.5043038,15.9493671 25.8227848,16.6308861 25.8227848,17.4683544 C25.8227848,18.3058228 26.5043038,18.9873418 27.3417722,18.9873418 C28.1792405,18.9873418 28.8607595,18.3058228 28.8607595,17.4683544 C28.8607595,16.6308861 28.1792405,15.9493671 27.3417722,15.9493671 Z" id="Path"></path>
                    <path d="M33.4177215,15.9493671 C32.5802532,15.9493671 31.8987342,16.6308861 31.8987342,17.4683544 C31.8987342,18.3058228 32.5802532,18.9873418 33.4177215,18.9873418 C34.2551899,18.9873418 34.9367089,18.3058228 34.9367089,17.4683544 C34.9367089,16.6308861 34.2551899,15.9493671 33.4177215,15.9493671 Z" id="Path"></path>
                    <path d="M59,4.99095841 L43,4.99095841 L43,0.998191682 C43,0.447189873 42.552,0 42,0 L17,0 C16.448,0 16,0.447189873 16,0.998191682 L16,3.99276673 L1,3.99276673 C0.448,3.99276673 0,4.4399566 0,4.99095841 L0,25.9529837 C0,26.5039855 0.448,26.9511754 1,26.9511754 L9.62,26.9511754 L18.336,34.6851646 C18.524,34.8518626 18.762,34.9367089 19,34.9367089 C19.197,34.9367089 19.395,34.8788137 19.566,34.7620253 C19.945,34.5024955 20.098,34.0173743 19.937,33.5881519 L17.443,26.9511754 L23,26.9511754 C23.552,26.9511754 24,26.5039855 24,25.9529837 L24,22.9584087 L26.382,22.9584087 L29.106,28.3955588 C29.275,28.7339458 29.621,28.9475588 30,28.9475588 C30.379,28.9475588 30.725,28.7339458 30.895,28.3955588 L33.618,22.9584087 L36,22.9584087 L36,25.9529837 C36,26.5039855 36.448,26.9511754 37,26.9511754 L42.557,26.9511754 L40.063,33.5881519 C39.902,34.0173743 40.055,34.5024955 40.434,34.7620253 C40.605,34.8788137 40.803,34.9367089 41,34.9367089 C41.238,34.9367089 41.476,34.8518626 41.665,34.6851646 L50.38,26.9511754 L59,26.9511754 C59.552,26.9511754 60,26.5039855 60,25.9529837 L60,5.98915009 C60,5.43814828 59.552,4.99095841 59,4.99095841 Z M22,24.954792 L16,24.954792 C15.672,24.954792 15.365,25.1155009 15.178,25.3840145 C14.991,25.6535262 14.949,25.9969042 15.063,26.303349 L16.645,30.5137215 L10.664,25.2073345 C10.481,25.0446293 10.245,24.954792 10,24.954792 L2,24.954792 L2,5.98915009 L16,5.98915009 L16,21.960217 C16,22.5112188 16.448,22.9584087 17,22.9584087 L22,22.9584087 L22,24.954792 Z M33,20.9620253 C32.621,20.9620253 32.275,21.1756383 32.105,21.5140253 L30,25.7174105 L27.895,21.5140253 C27.725,21.1756383 27.379,20.9620253 27,20.9620253 L18,20.9620253 L18,1.99638336 L41,1.99638336 L41,20.9620253 L33,20.9620253 Z M58,24.954792 L50,24.954792 C49.755,24.954792 49.519,25.0446293 49.335,25.2063363 L43.354,30.5127233 L44.936,26.3023508 C45.051,25.995906 45.008,25.652528 44.821,25.3830163 C44.635,25.1155009 44.328,24.954792 44,24.954792 L38,24.954792 L38,22.9584087 L42,22.9584087 C42.552,22.9584087 43,22.5112188 43,21.960217 L43,15.9860398 L44.932,17.9624593 L44.306,21.7995081 C44.244,22.1768246 44.404,22.5561374 44.717,22.7767378 C45.03,22.9973382 45.441,23.0192984 45.777,22.8346329 L49,21.0548571 L52.224,22.8336347 C52.375,22.9164846 52.542,22.9584087 52.708,22.9584087 C52.91,22.9584087 53.112,22.8965208 53.284,22.7757396 C53.597,22.5561374 53.757,22.1758264 53.695,21.7985099 L53.069,17.9614611 L55.716,15.2533671 C55.978,14.9858517 56.068,14.5945606 55.948,14.2392043 C55.828,13.8838481 55.521,13.6253165 55.151,13.5694177 L51.533,13.0184159 L49.906,9.55768535 C49.741,9.20732007 49.388,8.98372514 49,8.98372514 C48.612,8.98372514 48.259,9.20732007 48.095,9.55768535 L46.468,13.0184159 L43,13.5474575 L43,6.98734177 L58,6.98734177 L58,24.954792 Z M51.013,17.7867776 L51.389,20.0916022 L49.483,19.0405063 C49.333,18.9576564 49.166,18.9157324 48.999,18.9157324 C48.832,18.9157324 48.666,18.9576564 48.515,19.0405063 L46.609,20.0916022 L46.985,17.7867776 C47.036,17.4743436 46.936,17.1559204 46.714,16.9293309 L45.073,15.2503725 L47.295,14.9119855 C47.625,14.8610778 47.908,14.6504593 48.049,14.3490054 L49,12.33166 L49.949,14.3490054 C50.091,14.6504593 50.374,14.8610778 50.703,14.9119855 L52.925,15.2503725 L51.284,16.9293309 C51.062,17.1559204 50.962,17.4743436 51.013,17.7867776 Z" id="Shape"></path>
                    <rect id="Rectangle" x="3.79746835" y="11.3924051" width="6.07594937" height="2.27848101"></rect>
                    <rect id="Rectangle" x="11.3924051" y="11.3924051" width="2.27848101" height="2.27848101"></rect>
                    <rect id="Rectangle" x="3.79746835" y="16.7088608" width="9.87341772" height="2.27848101"></rect>
                </g>
            </g>
        </g>
    </g>
</svg>