<?xml version="1.0" encoding="UTF-8"?>
<svg width="48px" height="38px" viewBox="0 0 48 38" version="1.1" xmlns="http://www.w3.org/2000/svg" xmlns:xlink="http://www.w3.org/1999/xlink">
    <!-- Generator: Sketch 56.2 (81672) - https://sketch.com -->
    <title>API_first</title>
    <desc>Created with Sketch.</desc>
    <g id="Page-1" stroke="none" stroke-width="1" fill="none" fill-rule="evenodd">
        <g id="Desktop-HD" transform="translate(-696.000000, -189.000000)" fill="#7686B1" fill-rule="nonzero">
            <g id="API_first" transform="translate(696.000000, 189.000000)">
                <g id="Group">
                    <path d="M0.313043478,11.8229167 L0.313043478,37.34375 L47.6869565,37.34375 L47.6869565,11.8229167 L47.6869565,0.104166667 L0.313043478,0.104166667 L0.313043478,11.8229167 Z M2.4,2.1875 L45.6,2.1875 L45.6,9.73958333 L2.4,9.73958333 L2.4,2.1875 Z M2.4,11.8229167 L45.6,11.8229167 L45.6,35.2604167 L2.4,35.2604167 L2.4,11.8229167 Z" id="Shape"></path>
                    <ellipse id="Oval" cx="6.10434783" cy="6.09375" rx="2.66086957" ry="2.65625"></ellipse>
                    <ellipse id="Oval" cx="13.3565217" cy="6.09375" rx="2.66086957" ry="2.65625"></ellipse>
                    <ellipse id="Oval" cx="20.6086957" cy="6.09375" rx="2.66086957" ry="2.65625"></ellipse>
                    <path d="M20.2434783,16.875 L17.9478261,16.875 C14.6608696,16.875 11.8956522,19.2708333 11.426087,22.4479167 L7.04347826,22.4479167 C6.46956522,22.4479167 6,22.9166667 6,23.4895833 C6,24.0625 6.46956522,24.53125 7.04347826,24.53125 L11.426087,24.53125 C11.9478261,27.7083333 14.6608696,30.1041667 17.9478261,30.1041667 L20.2434783,30.1041667 C20.8173913,30.1041667 21.2869565,29.6354167 21.2869565,29.0625 L21.2869565,17.9166667 C21.2869565,17.34375 20.8173913,16.875 20.2434783,16.875 Z M19.2,28.0208333 L17.9478261,28.0208333 C15.4434783,28.0208333 13.4086957,25.9895833 13.4086957,23.4895833 C13.4086957,20.9895833 15.4434783,18.9583333 17.9478261,18.9583333 L19.2,18.9583333 L19.2,28.0208333 Z" id="Shape"></path>
                    <path d="M41.0086957,22.4479167 L36.626087,22.4479167 C36.1043478,19.2708333 33.3913043,16.875 30.1043478,16.875 L27.8086957,16.875 C27.2347826,16.875 26.7652174,17.34375 26.7652174,17.9166667 L26.7652174,19.6354167 L24.3130435,19.6354167 C23.7391304,19.6354167 23.2695652,20.1041667 23.2695652,20.6770833 C23.2695652,21.25 23.7391304,21.71875 24.3130435,21.71875 L26.7652174,21.71875 L26.7652174,25.3125 L24.3130435,25.3125 C23.7391304,25.3125 23.2695652,25.78125 23.2695652,26.3541667 C23.2695652,26.9270833 23.7391304,27.3958333 24.3130435,27.3958333 L26.7652174,27.3958333 L26.7652174,29.1145833 C26.7652174,29.6875 27.2347826,30.15625 27.8086957,30.15625 L30.1043478,30.15625 C33.3913043,30.15625 36.1565217,27.7604167 36.626087,24.5833333 L41.0086957,24.5833333 C41.5826087,24.5833333 42.0521739,24.1145833 42.0521739,23.5416667 C42.0521739,22.96875 41.5826087,22.4479167 41.0086957,22.4479167 Z M30.0521739,28.0208333 L28.8,28.0208333 L28.8,18.9583333 L30.0521739,18.9583333 C32.5565217,18.9583333 34.5913043,20.9895833 34.5913043,23.4895833 C34.6434783,25.9895833 32.5565217,28.0208333 30.0521739,28.0208333 Z" id="Shape"></path>
                </g>
            </g>
        </g>
    </g>
</svg>