<?xml version="1.0" encoding="UTF-8"?>
<svg width="48px" height="50px" viewBox="0 0 48 50" version="1.1" xmlns="http://www.w3.org/2000/svg" xmlns:xlink="http://www.w3.org/1999/xlink">
    <!-- Generator: Sketch 56.2 (81672) - https://sketch.com -->
    <title>Cognitive application</title>
    <desc>Created with Sketch.</desc>
    <g id="Page-1" stroke="none" stroke-width="1" fill="none" fill-rule="evenodd">
        <g id="Desktop-HD" transform="translate(-986.000000, -401.000000)">
            <g id="Cognitive-application" transform="translate(979.000000, 396.000000)">
                <rect id="Rectangle-Copy" x="0" y="0" width="60" height="60"></rect>
                <g id="noun_Machine-Learning_1870451" transform="translate(7.000000, 5.000000)" fill="#FFFFFF" fill-rule="nonzero">
                    <g id="Group">
                        <path d="M27.483871,34.375 L26.9419355,34.296875 C26.5548387,34.21875 26.0903226,34.53125 26.0903226,35 C26.0129032,35.390625 26.3225806,35.859375 26.7870968,35.859375 L27.3290323,35.9375 C27.3290323,35.9375 27.4064516,35.9375 27.4064516,35.9375 C27.7935484,35.9375 28.1032258,35.625 28.1806452,35.234375 C28.1806452,34.84375 27.8709677,34.453125 27.483871,34.375 Z" id="Path"></path>
                        <path d="M31.2774194,27.734375 C30.9677419,27.421875 30.5032258,27.421875 30.1935484,27.65625 C29.883871,27.96875 29.883871,28.4375 30.116129,28.75 L30.4258065,29.140625 C30.5806452,29.296875 30.8129032,29.375 30.9677419,29.375 C31.1225806,29.375 31.3548387,29.296875 31.5096774,29.140625 C31.8193548,28.828125 31.8193548,28.359375 31.5870968,28.046875 L31.2774194,27.734375 Z" id="Path"></path>
                        <path d="M30.5032258,23.046875 L31.3548387,22.421875 C31.6645161,22.1875 31.7419355,21.640625 31.5096774,21.328125 C31.2774194,21.015625 30.7354839,20.9375 30.4258065,21.171875 L29.5741935,21.796875 C29.2645161,22.03125 29.1870968,22.578125 29.4193548,22.890625 C29.6516129,23.203125 30.1935484,23.28125 30.5032258,23.046875 Z" id="Path"></path>
                        <path d="M27.716129,13.4375 L26.8645161,13.4375 C26.4,13.4375 26.0903226,13.75 26.0903226,14.21875 C26.0903226,14.6875 26.4,15 26.8645161,15 L27.716129,15 C28.1806452,15 28.4903226,14.6875 28.4903226,14.21875 C28.4903226,13.75 28.1806452,13.4375 27.716129,13.4375 Z" id="Path"></path>
                        <path d="M44.9806452,31.875 C44.283871,31.875 43.7419355,32.1875 43.3548387,32.65625 L42.0387097,32.1875 C46.916129,29.296875 47.3032258,22.03125 42.5032258,18.671875 L44.0516129,17.96875 C44.4387097,18.359375 44.9806452,18.671875 45.6,18.671875 C46.7612903,18.671875 47.6903226,17.734375 47.6903226,16.5625 C47.6903226,15.390625 46.7612903,14.453125 45.6,14.453125 C44.516129,14.453125 43.5870968,15.390625 43.5096774,16.484375 L42.116129,17.109375 C42.4258065,15.46875 42.2709677,13.75 41.4967742,12.265625 C40.7225806,10.78125 39.483871,9.609375 38.0129032,8.984375 L42.1935484,6.640625 C42.4258065,6.484375 42.5806452,6.171875 42.5806452,5.9375 L42.5806452,4.0625 C43.3548387,3.75 43.8967742,2.96875 43.8967742,2.109375 C43.8967742,0.9375 42.9677419,0 41.8064516,0 C40.6451613,0 39.716129,0.9375 39.716129,2.109375 C39.716129,2.96875 40.2580645,3.75 41.0322581,4.0625 L41.0322581,5.46875 L36.9290323,7.734375 C37.0064516,1.953125 30.3483871,-1.796875 25.4709677,1.875 L19.8967742,1.875 C19.5096774,1.875 19.2,2.109375 19.1225806,2.5 L18.4258065,6.5625 C16.8,7.03125 15.2516129,7.65625 13.8580645,8.4375 L10.5290323,6.09375 C10.2193548,5.859375 9.83225806,5.9375 9.52258065,6.171875 L4.64516129,11.171875 C4.41290323,11.40625 4.33548387,11.875 4.56774194,12.1875 L6.89032258,15.546875 C6.03870968,17.03125 5.41935484,18.59375 5.03225806,20.15625 L1.00645161,20.859375 C0.619354839,20.9375 0.387096774,21.25 0.387096774,21.640625 L0.387096774,28.59375 C0.387096774,28.984375 0.619354839,29.296875 1.00645161,29.375 L4.95483871,30.078125 C5.34193548,31.640625 6.03870968,33.203125 6.81290323,34.6875 L4.49032258,38.046875 C4.33548387,38.28125 4.41290323,38.75 4.64516129,38.984375 L9.6,43.90625 C9.83225806,44.140625 10.2967742,44.21875 10.6064516,43.984375 L13.9354839,41.640625 C15.3290323,42.421875 16.8774194,43.125 18.5032258,43.515625 L19.2,47.578125 C19.2774194,47.96875 19.5870968,48.203125 19.9741935,48.203125 L26.2451613,48.203125 C30.1935484,50.546875 35.2258065,48.515625 36.6193548,44.21875 L38.5548387,45.3125 L38.5548387,45.9375 C37.7806452,46.25 37.2387097,47.03125 37.2387097,47.890625 C37.2387097,49.0625 38.1677419,50 39.3290323,50 C40.4903226,50 41.4193548,49.0625 41.4193548,47.890625 C41.4193548,47.03125 40.8774194,46.25 40.1032258,45.9375 L40.1032258,44.921875 C40.1032258,44.609375 39.9483871,44.375 39.716129,44.21875 L37.9354839,43.203125 C41.6516129,41.640625 43.2774194,37.34375 41.8064516,33.75 L43.0451613,34.140625 C43.1225806,35.15625 44.0516129,36.015625 45.1354839,36.015625 C46.2967742,36.015625 47.2258065,35.078125 47.2258065,33.90625 C47.0709677,32.8125 46.1419355,31.875 44.9806452,31.875 Z M41.8064516,1.5625 C42.116129,1.5625 42.3483871,1.796875 42.3483871,2.109375 C42.3483871,2.421875 42.116129,2.65625 41.8064516,2.65625 C41.4967742,2.65625 41.2645161,2.421875 41.2645161,2.109375 C41.2645161,1.796875 41.4967742,1.5625 41.8064516,1.5625 Z M39.2516129,48.4375 C38.9419355,48.4375 38.7096774,48.203125 38.7096774,47.890625 C38.7096774,47.578125 38.9419355,47.34375 39.2516129,47.34375 C39.5612903,47.34375 39.7935484,47.578125 39.7935484,47.890625 C39.7935484,48.203125 39.5612903,48.4375 39.2516129,48.4375 Z M45.5225806,16.015625 C45.8322581,16.015625 46.0645161,16.25 46.0645161,16.5625 C46.0645161,16.875 45.8322581,17.109375 45.5225806,17.109375 C45.2129032,17.109375 44.9806452,16.875 44.9806452,16.5625 C45.0580645,16.25 45.2903226,16.015625 45.5225806,16.015625 Z M22.6064516,32.8125 C18.7354839,32.421875 15.716129,29.140625 15.716129,25.078125 C15.716129,21.09375 18.7354839,17.734375 22.6064516,17.34375 L22.6064516,32.8125 L22.6064516,32.8125 Z M20.516129,46.71875 L19.8193548,42.8125 C19.7419355,42.5 19.5096774,42.265625 19.2,42.1875 C17.3419355,41.71875 15.6387097,41.015625 14.1677419,40.078125 C13.9354839,39.921875 13.5483871,39.921875 13.316129,40.078125 L10.1419355,42.34375 L6.19354839,38.359375 L8.43870968,35.15625 C8.59354839,34.921875 8.59354839,34.53125 8.43870968,34.296875 C7.43225806,32.734375 6.73548387,31.015625 6.3483871,29.21875 C6.27096774,28.90625 6.03870968,28.671875 5.72903226,28.59375 L1.93548387,27.890625 L1.93548387,22.265625 L5.80645161,21.5625 C6.11612903,21.484375 6.3483871,21.25 6.42580645,20.9375 C6.81290323,19.21875 7.50967742,17.5 8.51612903,15.859375 C8.67096774,15.625 8.67096774,15.234375 8.51612903,15 L6.19354839,11.796875 L10.2193548,7.734375 L13.3935484,10 C13.6258065,10.15625 14.0129032,10.15625 14.2451613,10 C15.716129,9.0625 17.4193548,8.359375 19.2774194,7.890625 C19.5870968,7.8125 19.8193548,7.578125 19.8967742,7.265625 L20.5935484,3.359375 L24,3.359375 C21.9870968,6.171875 22.8387097,8.359375 22.6064516,15.703125 C17.883871,16.09375 14.1677419,20.078125 14.1677419,25 C14.1677419,29.921875 17.8064516,33.984375 22.6064516,34.375 C22.916129,40.234375 21.6774194,43.671875 24.3096774,46.71875 L20.516129,46.71875 Z M36.9290323,41.875 C36.8516129,37.96875 33.6774194,34.765625 29.7290323,34.765625 C29.2645161,34.765625 28.9548387,35.078125 28.9548387,35.546875 C28.9548387,36.015625 29.2645161,36.328125 29.7290323,36.328125 C33.6,36.328125 36.3870968,40.234375 34.9935484,43.984375 C34.9935484,43.984375 34.9935484,43.984375 34.9935484,43.984375 C33.7548387,47.34375 29.7290323,48.75 26.7096774,46.796875 C23.4580645,44.6875 24.1548387,45.9375 24.1548387,7.734375 C24.1548387,2.421875 30.8903226,-1.33226763e-15 34.2193548,4.21875 C37.083871,7.890625 34.4516129,13.359375 29.8064516,13.359375 C29.3419355,13.359375 29.0322581,13.671875 29.0322581,14.140625 C29.0322581,14.609375 29.3419355,14.921875 29.8064516,14.921875 C32.9032258,14.921875 35.6129032,12.890625 36.5419355,10.078125 C38.0903226,10.46875 39.4064516,11.484375 40.1032258,12.96875 C40.8774194,14.453125 40.9548387,16.09375 40.3354839,17.578125 C37.6258065,16.71875 34.5290323,17.34375 32.3612903,19.53125 C32.0516129,19.84375 32.0516129,20.3125 32.3612903,20.625 C32.6709677,20.9375 33.1354839,20.9375 33.4451613,20.625 C37.5483871,16.484375 44.7483871,19.609375 44.3612903,25.625 C44.0516129,31.25 37.2387097,33.671875 33.4451613,29.765625 C33.1354839,29.453125 32.6709677,29.453125 32.3612903,29.765625 C32.0516129,30.078125 32.0516129,30.546875 32.3612903,30.859375 C33.9096774,32.421875 35.9225806,33.203125 38.0129032,33.203125 C38.5548387,33.203125 39.0967742,33.125 39.6387097,33.046875 C41.883871,36.25 40.4903226,40.703125 36.9290323,41.875 Z M44.9806452,34.453125 C44.6709677,34.453125 44.4387097,34.21875 44.4387097,33.90625 C44.4387097,33.59375 44.6709677,33.359375 44.9806452,33.359375 C45.2903226,33.359375 45.5225806,33.59375 45.5225806,33.90625 C45.5225806,34.21875 45.2903226,34.453125 44.9806452,34.453125 Z" id="Shape"></path>
                    </g>
                </g>
            </g>
        </g>
    </g>
</svg>