<?xml version="1.0" encoding="UTF-8"?>
<svg width="50px" height="34px" viewBox="0 0 50 34" version="1.1" xmlns="http://www.w3.org/2000/svg" xmlns:xlink="http://www.w3.org/1999/xlink">
    <!-- Generator: Sketch 56.2 (81672) - https://sketch.com -->
    <title>content_moderation</title>
    <desc>Created with Sketch.</desc>
    <g id="Page-1" stroke="none" stroke-width="1" fill="none" fill-rule="evenodd">
        <g id="Desktop-HD" transform="translate(-911.000000, -410.000000)">
            <g id="content_moderation" transform="translate(906.000000, 396.000000)">
                <rect id="Rectangle-Copy-3" x="0" y="0" width="60" height="60"></rect>
                <g id="noun_moderation_411194" transform="translate(5.000000, 14.000000)" fill="#FFFFFF" fill-rule="nonzero">
                    <path d="M40.10199,27.9329137 C39.9104851,27.9329137 39.7230532,27.8775398 39.5621891,27.7736318 L31.5323383,22.5746269 L15.539801,22.5746269 C14.9902639,22.5746269 14.5447761,22.1291391 14.5447761,21.579602 L14.5447761,0.995024876 C14.5447761,0.445487811 14.9902639,0 15.539801,0 L49.0049751,0 C49.5545122,0 50,0.445487811 50,0.995024876 L50,21.579602 C50,22.1291391 49.5545122,22.5746269 49.0049751,22.5746269 L41.1094527,22.5746269 L41.1094527,26.9402985 C41.1088094,27.2059332 41.0019786,27.4602828 40.8127495,27.6467085 C40.6235204,27.8331342 40.3676048,27.936157 40.10199,27.9329137 L40.10199,27.9329137 Z M16.5348259,20.5845771 L31.8258706,20.5845771 C32.0173756,20.5845937 32.2048075,20.6398731 32.3656716,20.7437811 L39.1119403,25.1119403 L39.1119403,21.5771144 C39.1119403,21.0275774 39.5574281,20.5820896 40.1069652,20.5820896 L48.0099502,20.5820896 L48.0099502,1.99004975 L16.5348259,1.99004975 L16.5348259,20.5845771 Z" id="Shape"></path>
                    <path d="M32.6641791,14.2437811 L31.880597,14.2437811 C31.4971958,14.2434563 31.179127,13.9470987 31.1517413,13.5646766 L30.5273632,4.99751244 C30.512868,4.79509913 30.5831272,4.59576311 30.7213388,4.44717377 C30.8595505,4.29858443 31.0532873,4.21410224 31.2562189,4.21393035 L33.2885572,4.21393035 C33.4914888,4.21410224 33.6852256,4.29858443 33.8234373,4.44717377 C33.961649,4.59576311 34.0319081,4.79509913 34.0174129,4.99751244 L33.3930348,13.5646766 C33.3656492,13.9470987 33.0475803,14.2434563 32.6641791,14.2437811 L32.6641791,14.2437811 Z" id="Path"></path>
                    <circle id="Oval" cx="32.2736318" cy="16.8358209" r="1.33830846"></circle>
                    <path d="M8.68656716,33.5970149 C8.1370301,33.5970149 7.69154229,33.1515271 7.69154229,32.60199 L7.69154229,29.0746269 L1.17910448,29.0746269 C0.629567413,29.0746269 0.184079602,28.6291391 0.184079602,28.079602 L0.184079602,10.721393 C0.184079602,10.171856 0.629567413,9.72636816 1.17910448,9.72636816 L11.0945274,9.72636816 C11.6440644,9.72636816 12.0895522,10.171856 12.0895522,10.721393 C12.0895522,11.2709301 11.6440644,11.7164179 11.0945274,11.7164179 L2.17412935,11.7164179 L2.17412935,27.0870647 L8.67412935,27.0870647 C9.22366642,27.0870647 9.66915423,27.5325525 9.66915423,28.0820896 L9.66915423,30.778607 L15.119403,27.2487562 C15.2802672,27.1448482 15.467699,27.0895688 15.659204,27.0895522 L28.39801,27.0895522 L28.39801,25.9875622 C28.39801,25.4380251 28.8434978,24.9925373 29.3930348,24.9925373 C29.9425719,24.9925373 30.3880597,25.4380251 30.3880597,25.9875622 L30.3880597,28.0845771 C30.3880597,28.6341142 29.9425719,29.079602 29.3930348,29.079602 L15.960199,29.079602 L9.22636816,33.4353234 C9.06577366,33.5401085 8.87832209,33.5962576 8.68656716,33.5970149 L8.68656716,33.5970149 Z" id="Path"></path>
                </g>
            </g>
        </g>
    </g>
</svg>