<?xml version="1.0" encoding="UTF-8"?>
<svg width="50px" height="50px" viewBox="0 0 50 50" version="1.1" xmlns="http://www.w3.org/2000/svg" xmlns:xlink="http://www.w3.org/1999/xlink">
    <!-- Generator: Sketch 56.2 (81672) - https://sketch.com -->
    <title>Deep_index search</title>
    <desc>Created with Sketch.</desc>
    <g id="Page-1" stroke="none" stroke-width="1" fill="none" fill-rule="evenodd">
        <g id="Desktop-HD" transform="translate(-839.000000, -401.000000)">
            <g id="Deep_index-search" transform="translate(834.000000, 396.000000)">
                <rect id="Rectangle-Copy" x="0" y="0" width="60" height="60"></rect>
                <g id="noun_review_192335" transform="translate(5.000000, 5.000000)" fill="#FFFFFF" fill-rule="nonzero">
                    <path d="M47.8571429,0.549450549 L41.2087912,1.75824176 C41.1538462,1.42857143 40.989011,1.0989011 40.7142857,0.824175824 C40.3846154,0.549450549 40,0.43956044 39.6153846,0.549450549 L27.5274725,2.74725275 L25.7142857,0.934065934 C25.3846154,0.604395604 24.8901099,0.43956044 24.4505495,0.549450549 L1.0989011,6.04395604 C0.43956044,6.20879121 0,6.75824176 0,7.41758242 L0,43.1318681 C0,43.7912088 0.494505495,44.3406593 1.15384615,44.5054945 L31.3736264,50 C31.4285714,50 31.5384615,50 31.5934066,50 C31.9230769,50 32.1978022,49.8901099 32.4725275,49.6703297 C32.7472527,49.4505495 32.9120879,49.1208791 32.967033,48.7362637 L39.6153846,50 C39.6703297,50 39.7802198,50 39.8351648,50 C40.1648352,50 40.4395604,49.8901099 40.7142857,49.6703297 C40.989011,49.4505495 41.1538462,49.1208791 41.2087912,48.7362637 L47.8571429,50 C47.9120879,50 48.021978,50 48.0769231,50 C48.4065934,50 48.6813187,49.8901099 48.956044,49.6703297 C49.2857143,49.3956044 49.4505495,49.010989 49.4505495,48.6263736 L49.4505495,1.92307692 C49.4505495,1.53846154 49.2857143,1.15384615 48.956044,0.879120879 C48.6263736,0.604395604 48.2417582,0.494505495 47.8571429,0.549450549 Z M24.7252747,3.84615385 L29.6703297,8.79120879 L24.7252747,8.79120879 L24.7252747,3.84615385 Z M30.2197802,46.978022 L2.74725275,41.978022 L2.74725275,8.51648352 L21.978022,4.01098901 L21.978022,10.2197802 C21.978022,10.989011 22.5824176,11.5934066 23.3516484,11.5934066 L30.2197802,11.5934066 L30.2197802,46.978022 Z M38.4615385,46.978022 L32.967033,45.989011 L32.967033,8.79120879 C32.967033,8.40659341 32.8021978,8.07692308 32.5824176,7.8021978 L29.8901099,5.10989011 L38.4615385,3.57142857 L38.4615385,46.978022 Z M46.7032967,46.978022 L41.2087912,45.989011 L41.2087912,4.56043956 L46.7032967,3.57142857 L46.7032967,46.978022 Z" id="Shape"></path>
                    <path d="M21.978022,25.2747253 C21.978022,20.7142857 18.2967033,17.032967 13.7362637,17.032967 C9.17582418,17.032967 5.49450549,20.7142857 5.49450549,25.2747253 C5.49450549,29.8351648 9.17582418,33.5164835 13.7362637,33.5164835 C15.4945055,33.5164835 17.1428571,32.967033 18.5164835,31.978022 L25.1648352,38.6263736 C25.4395604,38.9010989 25.7692308,39.010989 26.1538462,39.010989 C26.5384615,39.010989 26.8681319,38.9010989 27.1428571,38.6263736 C27.6923077,38.0769231 27.6923077,37.1978022 27.1428571,36.7032967 L20.4395604,30.0549451 C21.4285714,28.6813187 21.978022,27.032967 21.978022,25.2747253 Z M13.7362637,30.7692308 C10.7142857,30.7692308 8.24175824,28.2967033 8.24175824,25.2747253 C8.24175824,22.2527473 10.7142857,19.7802198 13.7362637,19.7802198 C16.7582418,19.7802198 19.2307692,22.2527473 19.2307692,25.2747253 C19.2307692,28.2967033 16.7582418,30.7692308 13.7362637,30.7692308 Z" id="Shape"></path>
                </g>
            </g>
        </g>
    </g>
</svg>