<?xml version="1.0" encoding="UTF-8"?>
<svg width="48px" height="48px" viewBox="0 0 48 48" version="1.1" xmlns="http://www.w3.org/2000/svg" xmlns:xlink="http://www.w3.org/1999/xlink">
    <!-- Generator: Sketch 56.2 (81672) - https://sketch.com -->
    <title>documentation</title>
    <desc>Created with Sketch.</desc>
    <g id="Page-1" stroke="none" stroke-width="1" fill="none" fill-rule="evenodd">
        <g id="Desktop-HD" transform="translate(-1063.000000, -187.000000)" fill="#7686B1" fill-rule="nonzero">
            <g id="documentation" transform="translate(1063.000000, 187.000000)">
                <path d="M46.4533333,0.0408402529 L40,1.21317527 C39.9466667,0.893447537 39.7866667,0.573719806 39.52,0.307280029 C39.2,0.0408402529 38.8266667,-0.0657356577 38.4533333,0.0408402529 L26.72,2.17235846 L24.96,0.41385594 C24.64,0.0941282081 24.16,-0.0657356577 23.7333333,0.0408402529 L1.06666667,5.36963578 C0.426666667,5.52949965 0,6.0623792 0,6.70183466 L0,41.3390056 C0,41.9784611 0.48,42.5113406 1.12,42.6712045 L30.4533333,48 C30.5066667,48 30.6133333,48 30.6666667,48 C30.9866667,48 31.2533333,47.8934241 31.52,47.6802723 C31.7866667,47.4671204 31.9466667,47.1473927 32,46.774377 L38.4533333,48 C38.5066667,48 38.6133333,48 38.6666667,48 C38.9866667,48 39.2533333,47.8934241 39.52,47.6802723 C39.7866667,47.4671204 39.9466667,47.1473927 40,46.774377 L46.4533333,48 C46.5066667,48 46.6133333,48 46.6666667,48 C46.9866667,48 47.2533333,47.8934241 47.52,47.6802723 C47.84,47.4138325 48,47.0408168 48,46.6678011 L48,1.37303913 C48,1.00002345 47.84,0.627007761 47.52,0.360567985 C47.2,0.0941282081 46.8266667,-0.0124477024 46.4533333,0.0408402529 Z M24,3.23811757 L28.8,8.03403354 L24,8.03403354 L24,3.23811757 Z M29.3333333,45.0691625 L2.66666667,40.2199585 L2.66666667,7.76759377 L21.3333333,3.39798144 L21.3333333,9.41952038 C21.3333333,10.1655518 21.92,10.7517193 22.6666667,10.7517193 L29.3333333,10.7517193 L29.3333333,45.0691625 Z M37.3333333,45.0691625 L32,44.1099793 L32,8.03403354 C32,7.66101786 31.84,7.34129013 31.6266667,7.07485035 L29.0133333,4.46374054 L37.3333333,2.97167779 L37.3333333,45.0691625 Z M45.3333333,45.0691625 L40,44.1099793 L40,3.93086099 L45.3333333,2.97167779 L45.3333333,45.0691625 Z" id="Shape"></path>
                <path d="M25.85,18.4 L6.95,18.4 C6.194,18.4 5.6,18.928 5.6,19.6 C5.6,20.272 6.194,20.8 6.95,20.8 L25.85,20.8 C26.606,20.8 27.2,20.272 27.2,19.6 C27.2,18.928 26.606,18.4 25.85,18.4 Z" id="Path"></path>
                <path d="M5.6,14.7821734 C5.6,15.4418295 6.24789769,16 6.94978685,16 C6.94978685,16 7.00377832,16 7.00377832,16 L25.9007942,15.3403439 C26.6566748,15.3403439 27.250581,14.7314307 27.1965895,14.0210318 C27.1425981,13.310633 26.5486918,12.7524625 25.7928112,12.8032053 L6.89579537,13.4628613 C6.13991474,13.5136041 5.6,14.0717746 5.6,14.7821734 Z" id="Path"></path>
                <path d="M25.1042046,24.6628613 L6.20718879,24.0032053 C5.45130815,23.9524625 4.85740194,24.510633 4.80341047,25.2210318 C4.74941899,25.9314307 5.34332521,26.4896012 6.09920584,26.5403439 L24.9962217,27.2 C24.9962217,27.2 25.0502132,27.2 25.0502132,27.2 C25.7521023,27.2 26.3460085,26.6418295 26.4,25.9821734 C26.4,25.2717746 25.8600853,24.6628613 25.1042046,24.6628613 Z" id="Path"></path>
                <path d="M25.9547106,30.9357792 L7.06121506,29.6036688 C6.30547524,29.5503844 5.65769825,30.0832286 5.60371683,30.8292104 C5.54973542,31.5751922 6.08954957,32.2146052 6.8452894,32.2678896 L25.7387849,33.6 C25.7927664,33.6 25.7927664,33.6 25.8467478,33.6 C26.5485062,33.6 27.1423018,33.0671558 27.1962832,32.3744584 C27.2502646,31.6284766 26.7104504,30.9890636 25.9547106,30.9357792 Z" id="Path"></path>
                <path d="M25.2092404,36.4750694 L6.32452698,34.4041221 C5.56913844,34.3496235 4.92166255,34.840111 4.81374991,35.6030916 C4.70583726,36.3660722 5.2454005,37.0200555 6.00078904,37.1290527 L24.8855025,39.2 C24.9394588,39.2 24.9934152,39.2 25.0473715,39.2 C25.7488037,39.2 26.2883669,38.6550139 26.3962796,38.0010305 C26.4502359,37.1835513 25.9106727,36.529568 25.2092404,36.4750694 Z" id="Path"></path>
            </g>
        </g>
    </g>
</svg>