<?xml version="1.0" encoding="UTF-8"?>
<svg width="50px" height="50px" viewBox="0 0 50 50" version="1.1" xmlns="http://www.w3.org/2000/svg" xmlns:xlink="http://www.w3.org/1999/xlink">
    <!-- Generator: Sketch 56.2 (81672) - https://sketch.com -->
    <title>Human Analytics</title>
    <desc>Created with Sketch.</desc>
    <g id="Page-1" stroke="none" stroke-width="1" fill="none" fill-rule="evenodd">
        <g id="Desktop-HD" transform="translate(-766.000000, -401.000000)">
            <g id="Human-Analytics" transform="translate(761.000000, 396.000000)">
                <rect id="Rectangle" x="0" y="0" width="60" height="60"></rect>
                <g id="noun_Facial-Recognition_3021983" transform="translate(5.000000, 5.000000)" fill="#FFFFFF" fill-rule="nonzero">
                    <path d="M1.63636364,1.63636364 L9,1.63636364 L9,0 L0.818181818,0 C0.366312477,0 0,0.366312477 0,0.818181818 L0,9 L1.63636364,9 L1.63636364,1.63636364 Z" id="Path"></path>
                    <path d="M48.3636364,9 L50,9 L50,0.818181818 C50,0.366312477 49.6336875,0 49.1818182,0 L41,0 L41,1.63636364 L48.3636364,1.63636364 L48.3636364,9 Z" id="Path"></path>
                    <path d="M48.3636364,48.3636364 L41,48.3636364 L41,50 L49.1818182,50 C49.6336875,50 50,49.6336875 50,49.1818182 L50,41 L48.3636364,41 L48.3636364,48.3636364 Z" id="Path"></path>
                    <path d="M0.818181818,50 L9,50 L9,48.3636364 L1.63636364,48.3636364 L1.63636364,41 L0,41 L0,49.1818182 C0,49.6336875 0.366312477,50 0.818181818,50 Z" id="Path"></path>
                    <path d="M40.8155208,22.6372638 C41.3806074,20.6974194 41.667187,18.6871208 41.6666667,16.6666461 C41.6666667,7.47665745 34.19,0 25,0 C15.81,0 8.33333333,7.47665745 8.33333333,16.6666461 C8.33281298,18.6871208 8.6193926,20.6974194 9.18447917,22.6372638 C8.17736745,22.9860723 7.50142888,23.9341658 7.5,24.9999692 L7.5,29.1666307 C7.50526309,31.4403614 9.03952032,33.4260694 11.2383333,34.0049581 L11.444375,37.301829 C11.6058521,39.8167061 12.7915688,42.1553423 14.7247917,43.7719252 L20.0459375,48.2063989 C22.9157334,50.597867 27.0842666,50.597867 29.9540625,48.2063989 L35.2752083,43.7720294 L35.2752083,43.7720294 C37.2083668,42.1554399 38.3940718,39.8168643 38.555625,37.3020373 L38.7616667,34.0051664 C40.9605544,33.4262579 42.4948312,31.4404389 42.5,29.1666307 L42.5,24.9999692 C42.4985711,23.9341658 41.8226326,22.9860723 40.8155208,22.6372638 L40.8155208,22.6372638 Z M24.9999993,1.66666461 C33.2708333,1.66666461 39.9999993,8.39582298 39.9999993,16.6666461 C40.0005815,18.7848958 39.659103,20.8893412 38.98875,22.8987218 L38.7748958,23.5402835 L38.09625,16.7537293 C37.7232977,12.9144379 34.4907902,9.98906343 30.6334375,9.99998767 L19.3665625,9.99998767 C15.5092098,9.98906343 12.2767023,12.9144379 11.90375,16.7537293 L11.2251042,23.5402835 L11.01125,22.8987218 C10.340897,20.8893412 9.99941846,18.7848958 9.99999926,16.6666461 C9.99999926,8.39582298 16.7291667,1.66666461 24.9999993,1.66666461 Z M22.3239583,41.9513024 L22.8333333,42.3332811 C22.9775801,42.4414661 23.1530248,42.4999476 23.3333333,42.4999476 L26.6666667,42.4999476 C26.8469752,42.4999476 27.0224199,42.4414661 27.1666667,42.3332811 L27.6760417,41.9513024 L25,47.3031708 L22.3239583,41.9513024 Z M29.0180208,24.8749693 C29.5967708,24.4248657 30.4103125,24.1666369 31.25,24.1666369 C32.0896875,24.1666369 32.9032292,24.4248657 33.4819792,24.8749693 L33.6426042,24.9999692 L33.4819792,25.124969 C32.9032292,25.5750726 32.0896875,25.8333015 31.25,25.8333015 C30.4103125,25.8333015 29.5967708,25.5750726 29.0180208,25.124969 L28.8573958,24.9999692 L29.0180208,24.8749693 Z M21.1430208,24.9999692 L20.9823958,25.124969 C20.4036458,25.5750726 19.5901042,25.8333015 18.7504167,25.8333015 C17.9107292,25.8333015 17.0971875,25.5750726 16.5184375,25.124969 L16.3578125,24.9999692 L16.5184375,24.8749693 C17.0971875,24.4248657 17.9107292,24.1666369 18.7504167,24.1666369 C19.5901042,24.1666369 20.4036458,24.4248657 20.9823958,24.8749693 L21.1430208,24.9999692 Z M23.2614583,25.8333015 L26.739375,25.8333015 L27.42125,33.3333015 L22.5791667,33.3333015 L23.2614583,25.8333015 Z M27.1553125,24.1666399 L22.8451042,24.1666399 L20.3451042,21.6666399 L29.6548958,21.6666399 L27.1553125,24.1666399 Z M17.896875,21.5752859 L18.8229167,22.5013264 C18.7985417,22.5013264 18.774375,22.4999723 18.75,22.4999723 C17.5292708,22.4999723 16.3732292,22.8762218 15.4947917,23.5593459 L15.340625,23.6793458 L13.9563542,20.4494539 L17.896875,21.5752859 Z M15.4177083,26.380905 L15.494375,26.4405924 C16.3732292,27.1237166 17.5292708,27.4999661 18.75,27.4999661 C19.7145378,27.5078768 20.6639226,27.2598645 21.5013542,26.781217 L20.9192708,33.1839174 L13.594375,31.8521482 L15.4177083,26.380905 Z M23.3333333,38.4316193 L24.6272917,39.0785976 C24.8619145,39.1959208 25.1380855,39.1959208 25.3727083,39.0785976 L26.6666667,38.4316193 L28.4213542,39.309014 L26.3888542,40.833283 L23.6111458,40.833283 L21.5786458,39.309014 L23.3333333,38.4316193 Z M26.0455208,36.8788087 L25,37.4016205 L23.9544792,36.8788087 L23.015,34.9999568 L26.985,34.9999568 L26.0455208,36.8788087 Z M29.0807292,33.1837091 L28.4986458,26.781217 C29.3360774,27.2598645 30.2854622,27.5078768 31.25,27.4999661 C32.4707292,27.4999661 33.6267708,27.1237166 34.5052083,26.4405924 L34.581875,26.380905 L36.405625,31.8519399 L29.0807292,33.1837091 Z M34.659375,23.6793458 L34.5052083,23.5593459 C33.6267708,22.8762218 32.4707292,22.4999723 31.25,22.4999723 C31.225625,22.4999723 31.2014583,22.5011181 31.1770833,22.5013264 L32.103125,21.5752859 L36.0436458,20.4494539 L34.659375,23.6793458 Z M31.5498958,19.9999753 L18.4501042,19.9999753 L13.3985417,18.5566438 L13.5621875,16.9195625 C13.8522238,13.9334418 16.366398,11.6581355 19.3665625,11.6666284 L30.6334375,11.6666284 C33.6334824,11.658297 36.1474748,13.9335614 36.4375,16.9195625 L36.6011458,18.5566438 L31.5498958,19.9999753 Z M12.5026042,27.5154869 L13.0075,22.4663265 L14.1092708,25.0370525 L12.6258333,29.4872553 L12.5026042,27.5154869 Z M21.1077083,34.9120403 L22.2153125,37.1272459 L20.1319792,38.1689113 L15.2747917,33.8515208 L21.1077083,34.9120403 Z M29.868125,38.1689113 L27.7847917,37.1272459 L28.8923958,34.9120403 L34.7257292,33.8515208 L29.868125,38.1689113 Z M35.8908333,25.0370525 L36.9926042,22.4663265 L37.4975,27.5154869 L37.3742708,29.4872553 L35.8908333,25.0370525 Z M9.16666667,29.1666307 L9.16666667,24.9999692 C9.16721761,24.6572348 9.37735368,24.349716 9.69645833,24.2246576 L10.8422917,27.6603826 L11.12625,32.204127 C9.93533134,31.6618717 9.16976301,30.4751852 9.16666667,29.1666307 L9.16666667,29.1666307 Z M15.7916667,42.4916143 C14.2099793,41.1689013 13.2398332,39.2554942 13.1076042,37.1978708 L12.90625,33.9762081 L19.3263542,39.6828677 L23.5644792,48.1591073 C22.6639563,47.9402885 21.8253732,47.5185034 21.1128125,46.9259838 L15.7916667,42.4916143 Z M34.2083333,42.4916143 L34.2083333,42.4916143 L28.8871875,46.9259838 C28.1746268,47.5185034 27.3360437,47.9402885 26.4355208,48.1591073 L30.6736458,39.6828677 L37.09375,33.9762081 L36.8922917,37.1978708 C36.760089,39.255478 35.7899819,41.1688826 34.2083333,42.4916143 L34.2083333,42.4916143 Z M40.8333333,29.1666307 C40.8303301,30.475064 40.0649861,31.6617181 38.8742708,32.204127 L39.1582292,27.6603826 L40.3040625,24.2246576 C40.6229624,24.3498827 40.8328666,24.6573644 40.8333333,24.9999692 L40.8333333,29.1666307 Z" id="Shape"></path>
                </g>
            </g>
        </g>
    </g>
</svg>