<?xml version="1.0" encoding="UTF-8"?>
<svg width="48px" height="48px" viewBox="0 0 48 48" version="1.1" xmlns="http://www.w3.org/2000/svg" xmlns:xlink="http://www.w3.org/1999/xlink">
    <!-- Generator: Sketch 56.2 (81672) - https://sketch.com -->
    <title>Media_profiling</title>
    <desc>Created with Sketch.</desc>
    <g id="Page-1" stroke="none" stroke-width="1" fill="none" fill-rule="evenodd">
        <g id="Desktop-HD" transform="translate(-1063.000000, -403.000000)">
            <g id="Media_profiling" transform="translate(1057.000000, 396.000000)">
                <rect id="Rectangle-Copy-2" x="0" y="0" width="60" height="60"></rect>
                <g id="noun_Data-Analysis_1802475" transform="translate(6.000000, 7.000000)" fill="#FFFFFF" fill-rule="nonzero">
                    <g id="Group">
                        <path d="M24,38.0000033 C16.2714405,37.9917327 10.0082673,31.7285595 10,24 L12,24 C12.0015051,30.0177742 16.4599559,35.1038142 22.4257202,35.8932857 C28.3914844,36.6827573 34.0194094,32.9314845 35.5861593,27.1212433 C37.1529092,21.3110021 34.1739036,15.2388433 28.62,12.922 L29.392,11.076 C35.5547125,13.6425524 39.0479454,20.2033418 37.7370315,26.7491589 C36.4261176,33.2949759 30.6757917,38.0045817 24,38.0000033 L24,38.0000033 Z" id="Path"></path>
                        <path d="M43.865,48.0000053 C42.7686565,48.0017574 41.7167809,47.5666847 40.942,46.791 L34.293,40.14 C33.9026181,39.7495001 33.9026181,39.1164999 34.293,38.726 L38.726,34.293 C39.1164999,33.9026181 39.7495001,33.9026181 40.14,34.293 L46.789,40.942 C48.3999986,42.5580964 48.3999986,45.1729036 46.789,46.789 L46.789,46.789 C46.0141776,47.5654766 44.9619339,48.0012724 43.865,48.0000053 Z M36.414,39.435 L42.356,45.377 C43.1932502,46.1892775 44.5274618,46.1791786 45.3523202,45.3543202 C46.1771786,44.5294618 46.1872775,43.1952502 45.375,42.358 L39.433,36.416 L36.414,39.435 Z" id="Shape"></path>
                        <rect id="Rectangle" transform="translate(40.170727, 40.170646) rotate(-45.000000) translate(-40.170727, -40.170646) " x="37.0362266" y="39.1706464" width="6.269" height="2"></rect>
                        <rect id="Rectangle" transform="translate(35.000828, 35.000354) rotate(-45.000000) translate(-35.000828, -35.000354) " x="34.0008282" y="32.1718536" width="2" height="5.657"></rect>
                        <path d="M25,29 C24.7348052,29 24.4804927,28.8945494 24.293,28.707 L19.586,24 L3,24 C1.34314575,24 0,22.6568542 0,21 L0,3 C0,1.34314575 1.34314575,0 3,0 L27,0 C28.6568542,0 30,1.34314575 30,3 L30,21 C30,22.6568542 28.6568542,24 27,24 L26,24 L26,28 C26.0001018,28.4044291 25.7565907,28.7691037 25.383,28.924 C25.2616682,28.9745857 25.1314539,29.0004246 25,29 Z M3,2 C2.44771525,2 2,2.44771525 2,3 L2,21 C2,21.5522847 2.44771525,22 3,22 L20,22 C20.2651948,22.0000566 20.5195073,22.1054506 20.707,22.293 L24,25.586 L24,23 C24,22.4477153 24.4477153,22 25,22 L27,22 C27.5522847,22 28,21.5522847 28,21 L28,3 C28,2.44771525 27.5522847,2 27,2 L3,2 Z" id="Shape"></path>
                        <path d="M13,17.0000051 C12.8685461,17.0004246 12.7383318,16.9745857 12.617,16.924 C12.2434093,16.7691037 11.9998982,16.4044291 12,16 L12,8 C12.0000863,7.5956041 12.2437275,7.23106595 12.6173454,7.07632202 C12.9909634,6.92157809 13.4210057,7.00709208 13.707,7.293 L17.707,11.293 C18.0973819,11.6834999 18.0973819,12.3165001 17.707,12.707 L13.707,16.707 C13.5195073,16.8945494 13.2651948,17.0000051 13,17.0000051 Z M14,10.414 L14,13.586 L15.586,12 L14,10.414 Z" id="Shape"></path>
                        <rect id="Rectangle" x="17" y="11" width="8" height="2"></rect>
                        <rect id="Rectangle" x="5" y="11" width="8" height="2"></rect>
                        <path d="M45,16 L39,16 L39,14 L45,14 C45.5522847,14 46,13.5522847 46,13 L46,9 C46,8.44771525 45.5522847,8 45,8 L32,8 L32,6 L45,6 C46.6568542,6 48,7.34314575 48,9 L48,13 C48,14.6568542 46.6568542,16 45,16 Z" id="Path"></path>
                        <rect id="Rectangle" x="42" y="10" width="2" height="2"></rect>
                        <rect id="Rectangle" x="34" y="10" width="6" height="2"></rect>
                        <path d="M22,48 L3,48 C1.34314575,48 0,46.6568542 0,45 L0,41 C0,39.3431458 1.34314575,38 3,38 L15,38 L15,40 L3,40 C2.44771525,40 2,40.4477153 2,41 L2,45 C2,45.5522847 2.44771525,46 3,46 L22,46 C22.5522847,46 23,45.5522847 23,45 L23,40 L25,40 L25,45 C25,46.6568542 23.6568542,48 22,48 Z" id="Path"></path>
                        <rect id="Rectangle" x="4" y="42" width="2" height="2"></rect>
                        <rect id="Rectangle" x="8" y="42" width="13" height="2"></rect>
                        <path d="M41.707,21.707 L40.293,20.293 L42,18.586 L42,15 L44,15 L44,19 C43.9999434,19.2651948 43.8945494,19.5195073 43.707,19.707 L41.707,21.707 Z" id="Path"></path>
                        <path d="M9,39 L7,39 L7,36 C7.00005664,35.7348052 7.10545063,35.4804927 7.293,35.293 L10.293,32.293 L11.707,33.707 L9,36.414 L9,39 Z" id="Path"></path>
                    </g>
                </g>
            </g>
        </g>
    </g>
</svg>