<?xml version="1.0" encoding="UTF-8"?>
<svg width="48px" height="53px" viewBox="0 0 48 53" version="1.1" xmlns="http://www.w3.org/2000/svg" xmlns:xlink="http://www.w3.org/1999/xlink">
    <!-- Generator: Sketch 56.2 (81672) - https://sketch.com -->
    <title>modular</title>
    <desc>Created with Sketch.</desc>
    <g id="Page-1" stroke="none" stroke-width="1" fill="none" fill-rule="evenodd">
        <g id="Desktop-HD" transform="translate(-973.000000, -181.000000)" fill="#7686B1" fill-rule="nonzero">
            <g id="modular" transform="translate(973.000000, 181.000000)">
                <path d="M17.4183051,26.5179661 C17.208917,26.4165723 16.9646423,26.4165723 16.7552542,26.5179661 L12.5369492,28.8488136 C12.342817,28.9664707 12.2183089,29.1714535 12.2033898,29.3979661 L12.2033898,34.059661 C12.2176952,34.2874326 12.3421904,34.4939125 12.5369492,34.6128814 L16.7552542,36.9437288 C16.9646423,37.0451226 17.208917,37.0451226 17.4183051,36.9437288 L21.6325424,34.6128814 C21.8278085,34.4944177 21.95248,34.2876455 21.9661017,34.059661 L21.9661017,29.3979661 C21.95248,29.1699816 21.8278085,28.9632094 21.6325424,28.8447458 L17.4183051,26.5179661 Z M20.3389831,33.4657627 L17.0847458,35.2637288 L13.8305085,33.4657627 L13.8305085,29.9918644 L17.0847458,28.1938983 L20.3389831,29.9918644 L20.3389831,33.4657627 Z" id="Shape"></path>
                <path d="M47.2230508,16.3159322 L37.3871186,10.759322 C36.898846,10.5173348 36.3255608,10.5173348 35.8372881,10.759322 L25.9972881,16.3159322 C25.5418176,16.6032135 25.2526075,17.0922966 25.220339,17.6298305 L25.220339,28.7430508 C25.2526075,29.2805848 25.5418176,29.7696678 25.9972881,30.0569492 L35.8332203,35.6135593 C36.321493,35.8555466 36.8947782,35.8555466 37.3830508,35.6135593 L47.2230508,30.0569492 C47.6785214,29.7696678 47.9677315,29.2805848 48,28.7430508 L48,17.6298305 C47.9677315,17.0922966 47.6785214,16.6032135 47.2230508,16.3159322 Z M46.3728814,28.6616949 L46.3728814,28.6616949 L36.6386441,34.1694915 L36.5816949,34.1694915 L26.8474576,28.6779661 L26.8474576,28.6779661 L26.8474576,17.7111864 L26.8474576,17.7111864 L36.5816949,12.2033898 L36.6345763,12.2033898 L46.3728814,17.6989831 L46.3728814,17.6989831 L46.3728814,28.6616949 Z" id="Shape"></path>
                <circle id="Oval" cx="31.3830508" cy="27.2542373" r="1"></circle>
                <path d="M5.28813559,16.3769492 L3.66101695,17.300339 C3.40829761,17.4462435 3.25307877,17.7163243 3.25423085,18.0081356 L3.25423085,20.3389831 C3.25423085,20.7882995 3.6184802,21.1525424 4.06779661,21.1525424 C4.51711302,21.1525424 4.88135593,20.7882995 4.88135593,20.3389831 L4.88135593,18.7118644 L5.04,18.3905085 L6.10169492,17.7925424 C6.49260017,17.5678842 6.62737003,17.0688714 6.40271184,16.6779661 C6.17805364,16.2870609 5.67904086,16.152291 5.28813559,16.3769492 L5.28813559,16.3769492 Z" id="Path"></path>
                <path d="M26.7579661,4.51525424 C26.6604372,4.32257729 26.4903041,4.17658205 26.2850535,4.10943687 C26.0798029,4.04229169 25.8562776,4.05950647 25.6637288,4.15728814 L24.0366102,4.97084746 C23.7646057,5.10982916 23.5933705,5.38946093 23.5932203,5.69491525 L23.5932203,7.3220339 C23.5932203,7.7713503 23.9574633,8.13559322 24.4067797,8.13559322 C24.8560961,8.13559322 25.220339,7.7713503 25.220339,7.3220339 L25.220339,6.20338983 L26.4,5.60542373 C26.7988987,5.40237915 26.9588537,4.91524357 26.7579661,4.51525424 Z" id="Path"></path>
                <path d="M44.3389831,36.3457627 C44.2772067,36.6730559 44.0923194,36.9642169 43.8223729,37.159322 L32.9491525,43.1715254 L32.9491525,41.3410169 C32.9328893,41.0094193 32.7570404,40.7062316 32.4772881,40.5274576 L26.5057627,37.1267797 C26.2089283,36.9773653 25.8588683,36.9773653 25.5620339,37.1267797 L19.5905085,40.5355932 C19.3107562,40.7143672 19.1349073,41.0175549 19.1186441,41.3491525 L19.1186441,43.179661 L8.24542373,37.1715254 C7.97547721,36.9764203 7.79058992,36.6852592 7.72881356,36.3579661 L7.72881356,27.3559322 L13.3586441,24.1464407 C13.6383964,23.9676667 13.8142452,23.664479 13.8305085,23.3328814 L13.8305085,16.5274576 C13.8142452,16.19586 13.6383964,15.8926723 13.3586441,15.7138983 L11.560678,14.6888136 L20.4244068,9.80745763 C20.4895275,9.94918371 20.5940153,10.0692036 20.7254237,10.1532203 L25.6271186,12.9274576 C25.8718864,13.0488085 26.1593,13.0488085 26.4040678,12.9274576 L31.3220339,10.1491525 C31.4534423,10.0651358 31.5579302,9.94511591 31.6230508,9.80338983 L32.9491525,10.5233898 L34.6128814,9.58372881 L31.7288136,7.99322034 L31.7288136,3.92542373 C31.7131668,3.65117542 31.5601831,3.40334184 31.3220339,3.26644068 L26.440678,0.496271186 C26.185998,0.362460546 25.8817986,0.362460546 25.6271186,0.496271186 L20.7457627,3.27457627 C20.5102097,3.41413866 20.3581724,3.66043914 20.3389831,3.93355932 L20.3389831,8.00135593 L9.90508475,13.7491525 L7.38711864,12.3132203 C7.09028421,12.163806 6.74022426,12.163806 6.44338983,12.3132203 L0.471864407,15.7220339 C0.192112112,15.9008079 0.0162632404,16.2039956 0,16.5355932 L0,23.3369492 C0.0169311338,23.6683491 0.192615375,23.9712529 0.471864407,24.1505085 L6.10169492,27.3559322 L6.10169492,36.3457627 C6.16079544,37.2722398 6.6678339,38.1117376 7.46033898,38.5952542 L19.1186441,45.0305085 L19.1186441,48.1505085 C19.1355752,48.4819084 19.3112594,48.7848123 19.5905085,48.9640678 L25.5661017,52.3688136 C25.8629361,52.5182279 26.2129961,52.5182279 26.5098305,52.3688136 L32.4813559,48.9640678 C32.7611082,48.7852938 32.9369571,48.4821061 32.9532203,48.1505085 L32.9532203,45.0305085 L44.6115254,38.599322 C45.4036049,38.114052 45.9091895,37.2729293 45.9661017,36.3457627 L45.9661017,32.6359322 L44.3389831,33.5552542 L44.3389831,36.3457627 Z M21.9661017,4.44610169 L26.0338983,2.14779661 L30.1016949,4.44610169 L30.1016949,8.97762712 L26.0338983,11.2759322 L21.9661017,8.97762712 L21.9661017,4.44610169 Z M1.62711864,16.9342373 L6.91525424,13.92 L12.2033898,16.9342373 L12.2033898,22.9301695 L6.91525424,25.9444068 L1.62711864,22.9301695 L1.62711864,16.9342373 Z M31.3220339,47.7437288 L26.0338983,50.7579661 L20.7457627,47.7437288 L20.7457627,41.7477966 L26.0338983,38.7335593 L31.3220339,41.7477966 L31.3220339,47.7437288 Z" id="Shape"></path>
                <path d="M24.4067797,41.1905085 L22.779661,42.1138983 C22.5269417,42.2598028 22.3717228,42.5298836 22.3728749,42.8216949 L22.3728749,45.1525424 C22.3728749,45.6018588 22.7371243,45.9661017 23.1864407,45.9661017 C23.6357571,45.9661017 24,45.6018588 24,45.1525424 L24,43.5254237 L24.1586441,43.2040678 L25.220339,42.6061017 C25.6112442,42.3814435 25.7460141,41.8824307 25.5213559,41.4915254 C25.2966977,41.1006202 24.7976849,40.9658503 24.4067797,41.1905085 Z" id="Path"></path>
                <path d="M34.9830508,16.7877966 L30.9152542,19.1471186 C30.663796,19.2922979 30.5087724,19.5604888 30.5084746,19.8508475 L30.5084746,24 C30.5084746,24.4493164 30.8727175,24.8135593 31.3220339,24.8135593 C31.7713503,24.8135593 32.1355932,24.4493164 32.1355932,24 L32.1355932,20.3389831 L35.7966102,18.2155932 C36.1645445,17.9816982 36.2826958,17.4993382 36.0645097,17.1218764 C35.8463237,16.7444146 35.3693698,16.6060461 34.9830508,16.8081356 L34.9830508,16.7877966 Z" id="Path"></path>
            </g>
        </g>
    </g>
</svg>