<?xml version="1.0" encoding="UTF-8"?>
<svg width="100px" height="100px" viewBox="0 0 100 100" version="1.1" xmlns="http://www.w3.org/2000/svg" xmlns:xlink="http://www.w3.org/1999/xlink">
    <!-- Generator: Sketch 56.2 (81672) - https://sketch.com -->
    <title>semantic search_Icon</title>
    <desc>Created with Sketch.</desc>
    <g id="Page-1" stroke="none" stroke-width="1" fill="none" fill-rule="evenodd">
        <g id="Desktop-HD" transform="translate(-363.000000, -215.000000)">
            <g id="semantic-search_Icon" transform="translate(363.000000, 215.000000)">
                <circle id="Oval" fill="#BCDAF3" cx="50" cy="50" r="50"></circle>
                <g id="noun_Search_3088335" transform="translate(14.000000, 21.000000)" fill="#282968" fill-rule="nonzero">
                    <g id="Group">
                        <path d="M25.1612903,23.2258065 C18.7577419,23.2258065 13.5483871,28.4351613 13.5483871,34.8387097 C13.5483871,41.2422581 18.7577419,46.4516129 25.1612903,46.4516129 C31.5648387,46.4516129 36.7741935,41.2422581 36.7741935,34.8387097 C36.7741935,28.4351613 31.5648387,23.2258065 25.1612903,23.2258065 Z M25.1612903,25.1612903 C30.4974194,25.1612903 34.8387097,29.5025806 34.8387097,34.8387097 C34.8387097,36.8883871 34.1941935,38.7880645 33.1025806,40.353871 C31.9219355,39.0241935 30.4364516,38.0274194 28.7941935,37.4254839 C30.1170968,36.3609677 30.9677419,34.7303226 30.9677419,32.9032258 C30.9677419,29.7009677 28.3635484,27.0967742 25.1612903,27.0967742 C21.9590323,27.0967742 19.3548387,29.7009677 19.3548387,32.9032258 C19.3548387,34.7303226 20.2054839,36.3609677 21.5283871,37.4264516 C19.886129,38.0274194 18.3996774,39.0251613 17.22,40.3548387 C16.1283871,38.7880645 15.483871,36.8883871 15.483871,34.8387097 C15.483871,29.5025806 19.8251613,25.1612903 25.1612903,25.1612903 Z M21.2903226,32.9032258 C21.2903226,30.7683871 23.0264516,29.0322581 25.1612903,29.0322581 C27.296129,29.0322581 29.0322581,30.7683871 29.0322581,32.9032258 C29.0322581,35.0380645 27.296129,36.7741935 25.1612903,36.7741935 C23.0264516,36.7741935 21.2903226,35.0380645 21.2903226,32.9032258 Z M18.5051613,41.8451613 C20.1522581,39.8748387 22.5803226,38.7096774 25.1612903,38.7096774 C27.7422581,38.7096774 30.1703226,39.8748387 31.8174194,41.8451613 C30.0803226,43.496129 27.7403226,44.516129 25.1612903,44.516129 C22.5822581,44.516129 20.2422581,43.496129 18.5051613,41.8451613 Z" id="Shape"></path>
                        <path d="M55.1612903,11.6129032 L55.1612903,0 L14.516129,0 L14.516129,15.483871 C11.8480645,15.483871 9.67741935,17.6545161 9.67741935,20.3225806 L9.67741935,34.8387097 C9.67741935,37.5145161 10.3606452,40.0335484 11.5606452,42.2322581 L1.28516129,52.5067742 C0.456774194,53.336129 0,54.4374194 0,55.6103226 C0,58.0306452 1.9683871,60 4.38870968,60 C5.56064516,60 6.66387097,59.5432258 7.49225806,58.713871 L17.7677419,48.4393548 C19.9664516,49.6393548 22.4854839,50.3225806 25.1612903,50.3225806 L55.1612903,50.3225806 C57.8293548,50.3225806 60,48.1519355 60,45.483871 L60,16.4516129 C60,13.7835484 57.8293548,11.6129032 55.1612903,11.6129032 Z M16.4516129,1.93548387 L53.2258065,1.93548387 L53.2258065,11.6129032 L48.0551613,11.6129032 C46.7622581,11.6129032 45.5467742,12.116129 44.6332258,13.0296774 L42.18,15.483871 L16.4516129,15.483871 L16.4516129,1.93548387 Z M14.516129,17.4193548 L42.9812903,17.4193548 L46.0016129,14.3980645 C46.5503226,13.8503226 47.2790323,13.5483871 48.0551613,13.5483871 L55.1612903,13.5483871 C56.7619355,13.5483871 58.0645161,14.8509677 58.0645161,16.4516129 L58.0645161,19.3548387 L11.7909677,19.3548387 C12.1916129,18.2312903 13.256129,17.4193548 14.516129,17.4193548 Z M11.6129032,21.2903226 L17.6816129,21.2903226 C15.1335484,22.7022581 13.0248387,24.8109677 11.6129032,27.3590323 L11.6129032,21.2903226 Z M6.12387097,57.3454839 C5.66032258,57.8090323 5.04387097,58.0645161 4.38870968,58.0645161 C3.03677419,58.0645161 1.93548387,56.9632258 1.93548387,55.6103226 C1.93548387,54.9541935 2.19096774,54.3387097 2.65354839,53.8751613 L12.6309677,43.8977419 C13.5977419,45.2303226 14.7687097,46.4012903 16.1012903,47.3680645 L6.12387097,57.3454839 Z M11.6129032,34.8387097 C11.6129032,27.3677419 17.6903226,21.2903226 25.1612903,21.2903226 C32.6322581,21.2903226 38.7096774,27.3677419 38.7096774,34.8387097 C38.7096774,42.3096774 32.6322581,48.3870968 25.1612903,48.3870968 C17.6903226,48.3870968 11.6129032,42.3096774 11.6129032,34.8387097 Z M55.1612903,48.3870968 L32.6409677,48.3870968 C37.4080645,45.7441935 40.6451613,40.6645161 40.6451613,34.8387097 C40.6451613,29.0129032 37.4080645,23.9332258 32.6409677,21.2903226 L58.0645161,21.2903226 L58.0645161,45.483871 C58.0645161,47.0845161 56.7619355,48.3870968 55.1612903,48.3870968 Z" id="Shape"></path>
                        <rect id="Rectangle" x="50.3225806" y="15.483871" width="1.93548387" height="1.93548387"></rect>
                        <rect id="Rectangle" x="54.1935484" y="15.483871" width="1.93548387" height="1.93548387"></rect>
                        <rect id="Rectangle" x="46.4516129" y="15.483871" width="1.93548387" height="1.93548387"></rect>
                        <path d="M54.1935484,40.6451613 L46.4516129,40.6451613 C45.3841935,40.6451613 44.516129,41.5132258 44.516129,42.5806452 L44.516129,44.516129 C44.516129,45.5835484 45.3841935,46.4516129 46.4516129,46.4516129 L54.1935484,46.4516129 C55.2609677,46.4516129 56.1290323,45.5835484 56.1290323,44.516129 L56.1290323,42.5806452 C56.1290323,41.5132258 55.2609677,40.6451613 54.1935484,40.6451613 Z M54.1935484,44.516129 L46.4516129,44.516129 L46.4506452,42.5806452 L46.4516129,42.5806452 L54.1935484,42.5806452 L54.1935484,44.516129 Z" id="Shape"></path>
                        <path d="M18.3870968,13.5483871 L35.8064516,13.5483871 L35.8064516,3.87096774 L18.3870968,3.87096774 L18.3870968,13.5483871 Z M20.3225806,5.80645161 L33.8709677,5.80645161 L33.8709677,11.6129032 L20.3225806,11.6129032 L20.3225806,5.80645161 Z" id="Shape"></path>
                        <rect id="Rectangle" x="37.7419355" y="3.87096774" width="13.5483871" height="1.93548387"></rect>
                        <rect id="Rectangle" x="37.7419355" y="7.74193548" width="13.5483871" height="1.93548387"></rect>
                        <rect id="Rectangle" x="37.7419355" y="11.6129032" width="1.93548387" height="1.93548387"></rect>
                        <rect id="Rectangle" x="41.6129032" y="11.6129032" width="1.93548387" height="1.93548387"></rect>
                        <rect id="Rectangle" x="54.1935484" y="23.2258065" width="1.93548387" height="1.93548387"></rect>
                        <rect id="Rectangle" x="54.1935484" y="27.0967742" width="1.93548387" height="1.93548387"></rect>
                        <rect id="Rectangle" x="54.1935484" y="30.9677419" width="1.93548387" height="1.93548387"></rect>
                    </g>
                </g>
            </g>
        </g>
    </g>
</svg>