<?xml version="1.0" encoding="UTF-8"?>
<svg width="47px" height="50px" viewBox="0 0 47 50" version="1.1" xmlns="http://www.w3.org/2000/svg" xmlns:xlink="http://www.w3.org/1999/xlink">
    <!-- Generator: Sketch 56.2 (81672) - https://sketch.com -->
    <title>structured ACL</title>
    <desc>Created with Sketch.</desc>
    <g id="Page-1" stroke="none" stroke-width="1" fill="none" fill-rule="evenodd">
        <g id="Desktop-HD" transform="translate(-787.000000, -183.000000)" fill="#7686B1">
            <g id="structured-ACL" transform="translate(787.000000, 183.000000)">
                <path d="M18.1935484,45.4545455 L14.7822581,45.4545455 C12.0642435,45.4545455 9.85483871,43.2499076 9.85483871,40.5333818 L9.85483871,21.2121212 L3.79163252,21.2121212 C1.69595785,21.2121212 0,19.517478 0,17.4200606 L0,3.79206061 C0,1.69734242 1.6960981,0 3.79163252,0 L32.5954643,0 C34.6911389,0 36.3870968,1.69464318 36.3870968,3.79206061 L36.3870968,17.4200606 C36.3870968,19.5147788 34.6909987,21.2121212 32.5954643,21.2121212 L11.3709677,21.2121212 L11.3709677,31.0606061 L30.3225806,31.0606061 L30.3225806,28.7943409 C30.3225806,27.5384917 31.3399699,26.5151515 32.5897962,26.5151515 L44.7327844,26.5151515 C45.9859045,26.5151515 47,27.5385712 47,28.7943409 L47,34.8420227 C47,36.097872 45.9826107,37.1212121 44.7327844,37.1212121 L32.5897962,37.1212121 C31.3366761,37.1212121 30.3225806,36.0977924 30.3225806,34.8420227 L30.3225806,32.5757576 L11.3709677,32.5757576 L11.3709677,40.5333818 C11.3709677,42.4125985 12.9010649,43.9393939 14.7822581,43.9393939 L18.1935484,43.9393939 L18.1935484,41.6731288 C18.1935484,40.4149159 19.2161327,39.3939394 20.4742082,39.3939394 L26.5257918,39.3939394 C27.7848164,39.3939394 28.8064516,40.4158644 28.8064516,41.6731288 L28.8064516,47.7208106 C28.8064516,48.9790235 27.7838673,50 26.5257918,50 L20.4742082,50 C19.2151836,50 18.1935484,48.978075 18.1935484,47.7208106 L18.1935484,45.4545455 Z M19.7096774,41.6731288 L19.7096774,47.7208106 C19.7096774,48.1415947 20.0528335,48.4848485 20.4742082,48.4848485 L26.5257918,48.4848485 C26.9468473,48.4848485 27.2903226,48.1419136 27.2903226,47.7208106 L27.2903226,41.6731288 C27.2903226,41.2523447 26.9471665,40.9090909 26.5257918,40.9090909 L20.4742082,40.9090909 C20.0531527,40.9090909 19.7096774,41.2520258 19.7096774,41.6731288 Z M31.8387097,28.7943409 L31.8387097,34.8420227 C31.8387097,35.2643023 32.1773545,35.6060606 32.5897962,35.6060606 L44.7327844,35.6060606 C45.1430694,35.6060606 45.483871,35.2632659 45.483871,34.8420227 L45.483871,28.7943409 C45.483871,28.3720614 45.1452261,28.030303 44.7327844,28.030303 L32.5897962,28.030303 C32.1795112,28.030303 31.8387097,28.3730977 31.8387097,28.7943409 Z M1.51612903,3.79206061 L1.51612903,17.4200606 C1.51612903,18.6806386 2.53324845,19.6969697 3.79163252,19.6969697 L32.5954643,19.6969697 C33.8531956,19.6969697 34.8709677,18.6784508 34.8709677,17.4200606 L34.8709677,3.79206061 C34.8709677,2.53148258 33.8538483,1.51515152 32.5954643,1.51515152 L3.79163252,1.51515152 C2.53390115,1.51515152 1.51612903,2.53367045 1.51612903,3.79206061 Z M10.6129032,15.1515152 C8.10089877,15.1515152 6.06451613,13.1164455 6.06451613,10.6060606 C6.06451613,8.09567576 8.10089877,6.06060606 10.6129032,6.06060606 C13.1249077,6.06060606 15.1612903,8.09567576 15.1612903,10.6060606 C15.1612903,13.1164455 13.1249077,15.1515152 10.6129032,15.1515152 Z M10.6129032,13.6363636 C12.2875731,13.6363636 13.6451613,12.2796508 13.6451613,10.6060606 C13.6451613,8.93247045 12.2875731,7.57575758 10.6129032,7.57575758 C8.93823334,7.57575758 7.58064516,8.93247045 7.58064516,10.6060606 C7.58064516,12.2796508 8.93823334,13.6363636 10.6129032,13.6363636 Z M18.9516129,8.33333333 C18.5329452,8.33333333 18.1935484,7.9941553 18.1935484,7.57575758 C18.1935484,7.15735985 18.5329452,6.81818182 18.9516129,6.81818182 L29.5645161,6.81818182 C29.9831838,6.81818182 30.3225806,7.15735985 30.3225806,7.57575758 C30.3225806,7.9941553 29.9831838,8.33333333 29.5645161,8.33333333 L18.9516129,8.33333333 Z M18.9516129,14.3939394 C18.5329452,14.3939394 18.1935484,14.0547614 18.1935484,13.6363636 C18.1935484,13.2179659 18.5329452,12.8787879 18.9516129,12.8787879 L25.016129,12.8787879 C25.4347967,12.8787879 25.7741935,13.2179659 25.7741935,13.6363636 C25.7741935,14.0547614 25.4347967,14.3939394 25.016129,14.3939394 L18.9516129,14.3939394 Z" id="Shape"></path>
            </g>
        </g>
    </g>
</svg>