<?xml version="1.0" encoding="UTF-8"?>
<svg width="48px" height="41px" viewBox="0 0 48 41" version="1.1" xmlns="http://www.w3.org/2000/svg" xmlns:xlink="http://www.w3.org/1999/xlink">
    <!-- Generator: Sketch 56.2 (81672) - https://sketch.com -->
    <title>tailormade</title>
    <desc>Created with Sketch.</desc>
    <g id="Page-1" stroke="none" stroke-width="1" fill="none" fill-rule="evenodd">
        <g id="Desktop-HD" transform="translate(-876.000000, -187.000000)" fill="#7686B1" fill-rule="nonzero">
            <g id="tailormade" transform="translate(876.000000, 187.000000)">
                <g id="Group">
                    <path d="M47.25,34.2087184 L45.0395475,34.2087184 L45.0395475,0.309856471 L2.965575,0.309856471 L2.965575,34.2087184 L0.75,34.2087184 C0.510495,34.2087184 0.285645,34.324218 0.144285,34.5196894 C0.002925,34.7151608 -0.0373575,34.9672599 0.03552,35.1975237 L1.1748,38.8021592 C1.520505,39.8960999 2.5162275,40.63132 3.6525825,40.63132 L44.34741,40.63132 C45.483765,40.63132 46.4794875,39.8960999 46.8251925,38.8021592 L47.9644725,35.1975237 C48.03735,34.9672599 47.9970675,34.7151532 47.8557075,34.5196894 C47.7143475,34.3242256 47.489505,34.2087184 47.25,34.2087184 Z M4.465575,1.82619634 L43.5395475,1.82619634 L43.5395475,34.2087184 L4.465575,34.2087184 L4.465575,1.82619634 Z M45.39624,38.3408886 C45.250125,38.8040092 44.82861,39.1149801 44.34741,39.1149801 L3.65259,39.1149801 C3.17139,39.1149801 2.7498825,38.8040092 2.60376,38.3408886 L1.776855,35.7250507 C10.6727475,35.7250507 35.4853725,35.7250507 46.223145,35.7250507 L45.39624,38.3408886 Z" id="Shape"></path>
                    <path d="M6.8408175,31.8053804 L41.160645,31.8053804 L41.160645,4.23064889 L6.8408175,4.23064889 L6.8408175,31.8053804 Z M8.3408175,5.74698876 L39.660645,5.74698876 L39.660645,30.2890405 L8.3408175,30.2890405 L8.3408175,5.74698876 Z" id="Shape"></path>
                    <rect id="Rectangle" x="6.2347425" y="36.662035" width="1.690065" height="1.51633987"></rect>
                    <rect id="Rectangle" x="9.708255" y="36.662035" width="1.6904325" height="1.51633987"></rect>
                    <rect id="Rectangle" x="13.1821275" y="36.662035" width="1.6904325" height="1.51633987"></rect>
                    <path d="M24.5302725,27.7416881 L23.47998,27.7416881 L23.47998,25.1769433 C23.1638325,25.0953339 21.5456625,25.0531644 19.884885,23.8371888 L19.368165,23.4588468 L17.571165,25.2680146 L16.8295875,24.518359 L18.6196275,22.7017838 L18.244995,22.1790635 C17.04264,20.5016201 17.000685,18.8658912 16.9196775,18.5451778 L14.3825625,18.5451778 L14.3825625,17.4834442 L16.91895,17.4834442 L17.020755,16.8459597 C17.3502975,14.7798481 18.427335,13.6509255 18.6189,13.3238737 L16.83069,11.5169273 L17.571165,10.7683861 L19.368165,12.577554 C19.6545375,12.4061697 20.802735,11.29376 22.8489975,10.961257 L23.47998,10.8587145 L23.47998,8.2947051 L24.5302725,8.2947051 L24.5302725,10.858343 C24.849735,10.9412034 26.46012,10.9857838 28.1176725,12.1992044 L28.6343925,12.5775464 L30.4313925,10.7680071 L31.172235,11.5169197 L29.384025,13.3238661 C29.54967,13.6079979 30.6551325,14.7952162 30.98217,16.8459522 L31.083975,17.4834366 L33.6199875,17.4834366 L33.6199875,18.5451702 L31.722645,18.5451702 L31.722645,20.0615101 L35.1199875,20.0615101 L35.1199875,15.9670967 L32.336055,15.9670967 C32.1295125,15.1008269 31.787835,14.2656573 31.32861,13.5030444 L33.2933325,11.5169197 L30.43359,8.62602536 L28.462275,10.6106716 C27.7126425,10.1471796 26.8883025,9.80178771 26.030265,9.59262379 L26.030265,6.77836523 L21.9799725,6.77836523 L21.9799725,9.59188837 C21.118275,9.80105229 20.2913775,10.1464518 19.540275,10.6106792 L17.56896,8.62566902 L14.709585,11.5169349 L16.6743075,13.5030596 C16.2150825,14.2653009 15.873405,15.1004706 15.6668625,15.9671119 L12.8825625,15.9671119 L12.8825625,20.0615252 L15.666135,20.0615252 C15.8726775,20.9326094 16.214355,21.7685145 16.6739475,22.5281705 L14.7106875,24.520588 L17.5689675,27.4100039 L19.5402825,25.4257292 C20.2913775,25.8899566 21.1182825,26.2353561 21.97998,26.4441485 L21.97998,29.2580431 L26.0302725,29.2580431 L26.0302725,25.8233286 L24.5302725,25.8233286 L24.5302725,27.7416881 Z" id="Path"></path>
                    <path d="M23.7879675,12.3632042 C22.3167375,12.3632042 21.47235,12.9158039 20.701545,13.1791239 L24.076545,16.5820029 L22.48206,18.1934855 L19.104495,14.7876421 L18.6866475,15.8649258 C17.8879425,17.9254573 18.368775,20.2654957 19.9123575,21.8255213 C21.4439925,23.3743942 23.6245275,23.8002507 25.5196425,23.1648133 L31.725225,29.4383208 L35.2331625,25.9576991 L28.98501,19.6412034 C30.144345,16.068502 27.546585,12.3632042 23.7879675,12.3632042 Z M20.9729025,20.7534235 C20.150025,19.9215822 19.7427975,18.7839558 19.813845,17.644851 L22.4835225,20.3365741 L26.1990975,16.5805244 L23.5283175,13.8876868 C24.6694275,13.81328 25.7907675,14.2353077 26.60376,15.0567773 C28.089435,16.5510392 28.2300075,19.0860638 26.6147475,20.7486016 C24.9216675,22.4275537 22.4024175,22.1980481 20.9729025,20.7534235 Z M31.7347425,27.3037464 L26.9333475,22.4493132 C26.94777,22.43904 26.9606775,22.4244604 26.9750475,22.4140052 C27.2165625,22.2383903 27.451215,22.043571 27.675285,21.821086 C27.9005025,21.5889723 28.1048475,21.340937 28.2861225,21.0792016 L33.1017975,25.9473349 L31.7347425,27.3037464 Z" id="Shape"></path>
                </g>
            </g>
        </g>
    </g>
</svg>