<?xml version="1.0" encoding="UTF-8"?>
<svg width="100px" height="100px" viewBox="0 0 100 100" version="1.1" xmlns="http://www.w3.org/2000/svg" xmlns:xlink="http://www.w3.org/1999/xlink">
    <!-- Generator: Sketch 56.2 (81672) - https://sketch.com -->
    <title>Video_insights_icon</title>
    <desc>Created with Sketch.</desc>
    <g id="Page-1" stroke="none" stroke-width="1" fill="none" fill-rule="evenodd">
        <g id="Desktop-HD" transform="translate(-208.000000, -214.000000)">
            <g id="Video_insights_icon" transform="translate(208.000000, 214.000000)">
                <circle id="Oval" fill="#F3BCD1" cx="50" cy="50" r="50"></circle>
                <g id="noun_cognitive_2307437" transform="translate(20.000000, 20.000000)" fill="#880838" fill-rule="nonzero">
                    <g id="Group">
                        <path d="M27.264595,60.9825934 L1.53313499,60.9825934 C0.743581267,60.9825934 0.103669421,60.3434798 0.103669421,59.555101 L0.103669421,19.5879318 C0.103669421,14.2667601 2.34598347,9.29664646 6.41747658,5.59320707 C10.3704904,1.99775 15.5402314,0.0175606061 20.9746997,0.0175606061 C26.3962094,0.0175606061 31.5190523,2.00113889 35.399405,5.60306566 C39.372011,9.29033081 41.5598678,14.2569015 41.5598678,19.5880859 L41.5598678,31.0072551 C41.5598678,31.7954798 40.9199559,32.4347475 40.1302479,32.4347475 L37.2713168,32.4347475 L37.2713168,43.8539167 C37.2713168,44.6421414 36.6312507,45.2814091 35.841697,45.2814091 L28.6942149,45.2814091 L28.6942149,59.5554091 C28.6942149,60.3433258 28.054303,60.9825934 27.264595,60.9825934 Z M2.96275482,58.1277626 L25.8352837,58.1277626 L25.8352837,43.8537626 C25.8352837,43.0655379 26.4751956,42.4264242 27.2647493,42.4264242 L34.4123857,42.4264242 L34.4123857,31.007101 C34.4123857,30.2187222 35.0524518,29.5797626 35.8420055,29.5797626 L38.7010909,29.5797626 L38.7010909,19.5879318 C38.7010909,10.3709242 30.7490909,2.87223737 20.974854,2.87223737 C11.0429532,2.87223737 2.96275482,10.3709242 2.96275482,19.5879318 L2.96275482,58.1277626 Z" id="Shape"></path>
                        <path d="M27.2635152,60.9827475 C26.9759559,60.9827475 26.6856198,60.8961768 26.4338512,60.7167197 L6.42040771,46.4427197 C5.77787328,45.9844495 5.62915702,45.0928636 6.08811019,44.4514394 C6.54706336,43.8097071 7.43997796,43.6615202 8.08235813,44.1194823 L28.0956474,58.3936364 C28.7381818,58.8517525 28.8868981,59.7433384 28.4279449,60.3849167 C28.1488705,60.7747929 27.7095096,60.9827475 27.2635152,60.9827475 Z" id="Path"></path>
                        <path d="M18.6864132,49.5634242 C18.3879008,49.5634242 18.0869201,49.4703838 17.8297521,49.2778333 L6.39356474,40.7133409 C5.76198347,40.2404369 5.63409366,39.3456162 6.10770248,38.7149747 C6.58146556,38.0841793 7.47746556,37.9563258 8.10904683,38.4293838 L19.5452342,46.9938763 C20.1768154,47.4667803 20.3048595,48.361601 19.8312507,48.9922424 C19.5503251,49.3662525 19.1209917,49.5634242 18.6864132,49.5634242 Z" id="Path"></path>
                        <path d="M22.9761983,31.007101 L18.6876474,31.007101 C17.8980937,31.007101 17.2580275,30.3681414 17.2580275,29.5797626 L17.2580275,27.4894343 L15.7776529,28.9676061 C15.2195041,29.5249242 14.3144022,29.5250783 13.7560992,28.9676061 L10.7236143,25.9396338 C10.1653113,25.3821616 10.1653113,24.4784066 10.7236143,23.9209343 L12.203989,22.4427626 L10.1103912,22.4427626 C9.32083747,22.4427626 8.68092562,21.803649 8.68092562,21.0152702 L8.68092562,16.733101 C8.68092562,15.9447222 9.32083747,15.3057626 10.1103912,15.3057626 L12.2038347,15.3057626 L10.7236143,13.8277449 C10.4554931,13.5600227 10.3049256,13.1969495 10.3049256,12.8184722 C10.3049256,12.4399949 10.4554931,12.0769217 10.7236143,11.8091995 L13.7560992,8.78107323 C14.0242204,8.51335101 14.3878347,8.36300758 14.766876,8.36300758 C15.1459174,8.36300758 15.509686,8.51350505 15.7778072,8.78107323 L17.2581818,10.2592449 L17.2581818,8.16891667 C17.2581818,7.38053788 17.8982479,6.74142424 18.6878017,6.74142424 L22.9763526,6.74142424 C23.7659063,6.74142424 24.4058182,7.38038384 24.4058182,8.16891667 L24.4058182,10.2592449 L25.8861928,8.78107323 C26.154314,8.51350505 26.5179284,8.36300758 26.897124,8.36300758 L26.897124,8.36300758 C27.2763196,8.36300758 27.6397796,8.51350505 27.9080551,8.78107323 L30.9405399,11.8091995 C31.4986887,12.3666717 31.4986887,13.2704268 30.9405399,13.8277449 C30.3820826,14.3852172 29.477135,14.3852172 28.918832,13.8277449 L26.8972782,11.8090455 L25.148011,13.5558636 C24.7061818,13.9970354 24.0289366,14.1005505 23.4749532,13.8115707 C23.1738182,13.6544495 22.8620386,13.5249015 22.5484077,13.4266237 C21.9526171,13.2397727 21.5470413,12.6883081 21.5470413,12.0647525 L21.5470413,9.59640909 L20.1174215,9.59640909 L20.1174215,12.0647525 C20.1174215,12.6883081 19.712,13.2397727 19.1162094,13.4266237 C18.8024242,13.5249015 18.4907989,13.6544495 18.1896639,13.8115707 C17.635989,14.1005505 16.9584353,13.9970354 16.5166061,13.5558636 L14.7671846,11.8090455 L13.7564077,12.8184722 L15.5056749,14.5651364 C15.9475041,15.0063081 16.0513278,15.6828535 15.7617631,16.2357045 C15.6044077,16.5363914 15.4746667,16.8477071 15.3759339,17.1613333 C15.1886501,17.7560833 14.6365179,18.1607475 14.0121873,18.1607475 L11.5403196,18.1607475 L11.5403196,19.5880859 L14.0121873,19.5880859 C14.6365179,19.5880859 15.1886501,19.99275 15.3759339,20.5875 C15.4746667,20.9014343 15.6044077,21.21275 15.7616088,21.5129747 C16.0511736,22.0658258 15.9475041,22.7423712 15.5056749,23.183697 L13.7562534,24.9303611 L14.7670303,25.9396338 L16.5164518,24.1929697 C16.9581267,23.751952 17.6353719,23.6482828 18.1890468,23.9371086 C18.4904904,24.0942298 18.8025785,24.2239318 19.1163636,24.3223636 C19.712,24.5093687 20.1172672,25.0606793 20.1172672,25.6840808 L20.1172672,28.1522702 L21.5468871,28.1522702 L21.5468871,25.6840808 C21.5468871,25.0606793 21.952,24.5093687 22.5477906,24.3223636 C22.86173,24.2239318 23.1736639,24.0942298 23.4751074,23.9371086 C24.0286281,23.6482828 24.7060275,23.7521061 25.1477025,24.1929697 L26.897124,25.9396338 L28.9186777,23.9210884 C29.477135,23.3636162 30.3819284,23.3636162 30.9403857,23.9210884 C31.4985344,24.4785606 31.4985344,25.3823157 30.9403857,25.9397879 L27.9079008,28.9677601 C27.3495978,29.5250783 26.4444959,29.5252323 25.8861928,28.9677601 L24.4058182,27.4895884 L24.4058182,29.5799167 C24.4056639,30.3681414 23.7655978,31.007101 22.9761983,31.007101 Z" id="Path"></path>
                        <path d="M20.8318457,22.4427626 C18.8612011,22.4427626 17.2580275,20.8419747 17.2580275,18.8742626 C17.2580275,16.9065505 18.8612011,15.3057626 20.8318457,15.3057626 C22.8024904,15.3057626 24.4056639,16.9065505 24.4056639,18.8742626 C24.4056639,20.8419747 22.8024904,22.4427626 20.8318457,22.4427626 Z M20.8318457,18.1605934 C20.437686,18.1605934 20.1171129,18.4808434 20.1171129,18.8742626 C20.1171129,19.2676818 20.4378402,19.5879318 20.8318457,19.5879318 C21.2258512,19.5879318 21.5465785,19.2676818 21.5465785,18.8742626 C21.5465785,18.4806894 21.2258512,18.1605934 20.8318457,18.1605934 Z" id="Shape"></path>
                        <path d="M20.8312287,18.1607475 C20.2126061,18.1607475 19.6424242,17.7566995 19.4599229,17.1339141 C19.2380826,16.3772677 19.6726612,15.5844217 20.430281,15.3630657 L49.7357135,6.79857323 C50.4930248,6.57721717 51.2875152,7.01084091 51.5092011,7.76764141 C51.7310413,8.52428788 51.2964628,9.31713384 50.5386887,9.5384899 L21.2334105,18.1028283 C21.0993499,18.1421086 20.9640551,18.1607475 20.8312287,18.1607475 Z" id="Path"></path>
                        <path d="M50.1378953,31.0075631 C50.0049146,31.0075631 49.8697741,30.9889242 49.7357135,30.9496439 L20.430281,22.3851515 C19.6726612,22.1636414 19.2380826,21.3709495 19.4599229,20.614303 C19.6817631,19.8578106 20.4754821,19.4237247 21.2334105,19.6453889 L50.5386887,28.2098813 C51.2964628,28.4312374 51.7310413,29.2240833 51.5092011,29.9807298 C51.3265455,30.6033611 50.7563636,31.0075631 50.1378953,31.0075631 Z" id="Path"></path>
                        <rect id="Rectangle" x="44.4191074" y="16.733101" width="2.85893113" height="2.85483081"></rect>
                        <rect id="Rectangle" x="48.7075041" y="16.733101" width="2.8590854" height="2.85483081"></rect>
                        <rect id="Rectangle" x="52.9962094" y="16.733101" width="2.85893113" height="2.85483081"></rect>
                    </g>
                </g>
                <g id="noun_Video_966159" transform="translate(64.000000, 34.000000)" fill="#880838" fill-rule="nonzero">
                    <g id="Group">
                        <path d="M11.2736842,9.88095238 L1.51578947,9.88095238 C0.734210526,9.88095238 0.118421053,9.23809524 0.118421053,8.47619048 L0.118421053,1.52380952 C0.118421053,0.738095238 0.757894737,0.119047619 1.51578947,0.119047619 L11.25,0.119047619 C12.0315789,0.119047619 12.6473684,0.761904762 12.6473684,1.52380952 L12.6473684,8.45238095 C12.6710526,9.23809524 12.0315789,9.88095238 11.2736842,9.88095238 Z" id="Path"></path>
                        <path d="M13.6184211,2.88095238 L13.6184211,7.11904762 L17.5263158,9.33333333 C17.6921053,9.42857143 17.8815789,9.30952381 17.8815789,9.11904762 L17.8815789,0.880952381 C17.8815789,0.69047619 17.6921053,0.595238095 17.5263158,0.666666667 L13.6184211,2.88095238 Z" id="Path"></path>
                    </g>
                </g>
            </g>
        </g>
    </g>
</svg>